{
.appVersion = "3337";
copyright = "Copyright (c) 1997-2025, Sparksoft Systems";
customParameters = (
{
name = panose;
value = (
0,
0,
4,
0,
0,
0,
0,
0,
0,
0
);
},
{
name = unicodeRanges;
value = (
0,
1,
71
);
},
{
name = fsType;
value = (
2
);
},
{
name = glyphOrder;
value = (
.notdef,
.null,
CR,
space,
noName00004,
noName00005,
exclam,
quotedbl,
numbersign,
dollar,
percent,
ampersand,
quotesingle,
parenleft,
parenright,
asterisk,
plus,
comma,
hyphen,
period,
slash,
zero,
one,
two,
three,
four,
five,
six,
seven,
eight,
nine,
colon,
semicolon,
less,
equal,
greater,
question,
at,
A,
B,
C,
D,
E,
F,
G,
H,
I,
J,
K,
L,
M,
N,
O,
P,
Q,
R,
S,
T,
U,
V,
W,
X,
Y,
Z,
bracketleft,
backslash,
bracketright,
asciicircum,
underscore,
grave,
a,
b,
c,
d,
e,
f,
g,
h,
i,
j,
k,
l,
m,
n,
o,
p,
q,
r,
s,
t,
u,
v,
w,
x,
y,
z,
braceleft,
bar,
braceright,
asciitilde,
exclamdown,
cent,
sterling,
currency,
yen,
brokenbar,
section,
dieresis,
copyright,
ordfeminine,
guillemotleft,
logicalnot,
registered,
overscore,
degree,
plusminus,
twosuperior,
threesuperior,
acute,
mu1,
paragraph,
middot,
cedilla,
onesuperior,
ordmasculine,
guillemotright,
onequarter,
onehalf,
threequarters,
questiondown,
Agrave,
Aacute,
Acircumflex,
Atilde,
Adieresis,
Aring,
AE,
Ccedilla,
Egrave,
Eacute,
Ecircumflex,
Edieresis,
Igrave,
Iacute,
Icircumflex,
Idieresis,
Eth,
Ntilde,
Ograve,
Oacute,
Ocircumflex,
Otilde,
Odieresis,
multiply,
Oslash,
Ugrave,
Uacute,
Ucircumflex,
Udieresis,
Yacute,
Thorn,
germandbls,
agrave,
aacute,
acircumflex,
atilde,
adieresis,
aring,
ae,
ccedilla,
egrave,
eacute,
ecircumflex,
edieresis,
igrave,
iacute,
icircumflex,
idieresis,
eth,
ntilde,
ograve,
oacute,
ocircumflex,
otilde,
odieresis,
divide,
oslash,
ugrave,
uacute,
ucircumflex,
udieresis,
yacute,
thorn,
ydieresis,
Amacron,
amacron,
Emacron,
emacron,
Imacron,
imacron,
Omacron,
omacron,
Umacron,
umacron,
U02c0,
U02c1,
U02d2,
U02d3,
quoteleft,
quoteright,
quotedblleft,
quotedblright,
noName00212,
U1e06,
U1e07,
U1e0c,
U1e0d,
U1e0e,
U1e0f,

glyphs = (
{
glyphname = .notdef;
lastChange = "2025-02-10 17:38:38 +0000";
layers = (
{
background = {
paths = (
{
closed = 1;
nodes = (
"896 1400 LINE",
"128 1400 LINE",
"128 0 LINE",
"896 0 LINE"
);
},
{
closed = 1;
nodes = (
"768 1272 LINE",
"768 128 LINE",
"256 128 LINE",
"256 1272 LINE"
);
}
);
};
layerId = m01;
paths = (
{
closed = 1;
nodes = (
"896 0 LINE",
"896 1400 LINE",
"128 1400 LINE",
"128 0 LINE"
);
},
{
closed = 1;
nodes = (
"256 1272 LINE",
"768 1272 LINE",
"768 128 LINE",
"256 128 LINE"
);
}
);
userData = {
assembly = "NPUSHB[ ]	/* 32 values pushed */
1 8 8 64 9 2 7 4 6 1 0 6 5 6 3 2 5 4 8 0 7 6 8 1 2 1 3 0 1 1 0 70
SROUND[ ]	/* SuperRound */
MDAP[1]	/* MoveDirectAbsPt */
SHZ[1]	/* ShiftZoneByLastPoint */
RTG[ ]	/* RoundToGrid */
SVTCA[0]	/* SetFreedomAndProjectionVectorToAxis */
MIAP[1]	/* MoveIndirectAbsPt */
ALIGNRP[ ]	/* AlignRelativePt */
MDAP[1]	/* MoveDirectAbsPt */
ALIGNRP[ ]	/* AlignRelativePt */
SRP0[ ]	/* SetRefPoint0 */
MIRP[11101]	/* MoveIndirectRelPt */
ALIGNRP[ ]	/* AlignRelativePt */
SRP0[ ]	/* SetRefPoint0 */
MIRP[11101]	/* MoveIndirectRelPt */
ALIGNRP[ ]	/* AlignRelativePt */
SVTCA[1]	/* SetFreedomAndProjectionVectorToAxis */
MDAP[1]	/* MoveDirectAbsPt */
ALIGNRP[ ]	/* AlignRelativePt */
MIRP[11101]	/* MoveIndirectRelPt */
ALIGNRP[ ]	/* AlignRelativePt */
MDAP[1]	/* MoveDirectAbsPt */
ALIGNRP[ ]	/* AlignRelativePt */
MIRP[11101]	/* MoveIndirectRelPt */
ALIGNRP[ ]	/* AlignRelativePt */
SVTCA[0]	/* SetFreedomAndProjectionVectorToAxis */
IUP[1]	/* InterpolateUntPts */
IUP[0]	/* InterpolateUntPts */
SVTCA[1]	/* SetFreedomAndProjectionVectorToAxis */
MD[0]	/* MeasureDistance */
ROUND[00]	/* Round */
PUSHW[ ]	/* 2 values pushed */
0 8
MD[0]	/* MeasureDistance */
ROUND[00]	/* Round */
SUB[ ]	/* Subtract */
PUSHB[ ]	/* 1 value pushed */
64
GT[ ]	/* GreaterThan */
IF[ ]	/* If */
SHPIX[ ]	/* ShiftZoneByPixel */
SRP1[ ]	/* SetRefPoint1 */
SHZ[1]	/* ShiftZoneByLastPoint */
PUSHW[ ]	/* 2 values pushed */
8 -64
SHPIX[ ]	/* ShiftZoneByPixel */
EIF[ ]	/* EndIf */";
};
width = 1024;
}
);
note = .notdef;
},
{
glyphname = exclam;
lastChange = "2025-02-10 17:38:38 +0000";
layers = (
{
background = {
paths = (
{
closed = 1;
nodes = (
"309 1288 OFFCURVE",
"274 1288 QCURVE SMOOTH",
"239 1288 OFFCURVE",
"192 1242 OFFCURVE",
"192 1208 QCURVE SMOOTH",
"192 1210 OFFCURVE",
"194 1173 QCURVE SMOOTH",
"231 495 LINE SMOOTH",
"234 437 OFFCURVE",
"274 437 QCURVE SMOOTH",
"313 437 OFFCURVE",
"316 495 QCURVE SMOOTH",
"354 1173 LINE",
"355 1207 LINE SMOOTH",
"356 1242 OFFCURVE"
);
},
{
closed = 1;
nodes = (
"336 181 OFFCURVE",
"293 181 QCURVE SMOOTH",
"254 181 LINE SMOOTH",
"210 181 OFFCURVE",
"150 120 OFFCURVE",
"150 76 QCURVE SMOOTH",
"150 33 OFFCURVE",
"211 -27 OFFCURVE",
"254 -27 QCURVE SMOOTH",
"293 -27 LINE SMOOTH",
"336 -27 OFFCURVE",
"397 34 OFFCURVE",
"397 77 QCURVE SMOOTH",
"397 120 OFFCURVE"
);
}
);
};
layerId = m01;
paths = (
{
closed = 1;
nodes = (
"300 437 OFFCURVE",
"314 456 OFFCURVE",
"316 495 CURVE SMOOTH",
"354 1173 LINE",
"355 1207 LINE SMOOTH",
"356 1254 OFFCURVE",
"321 1288 OFFCURVE",
"274 1288 CURVE SMOOTH",
"227 1288 OFFCURVE",
"192 1253 OFFCURVE",
"192 1208 CURVE SMOOTH",
"194 1173 LINE",
"231 495 LINE SMOOTH",
"233 456 OFFCURVE",
"247 437 OFFCURVE",
"274 437 CURVE SMOOTH"
);
},
{
closed = 1;
nodes = (
"293 -27 LINE SMOOTH",
"350 -27 OFFCURVE",
"397 20 OFFCURVE",
"397 77 CURVE SMOOTH",
"397 134 OFFCURVE",
"350 181 OFFCURVE",
"293 181 CURVE SMOOTH",
"254 181 LINE SMOOTH",
"195 181 OFFCURVE",
"150 135 OFFCURVE",
"150 76 CURVE SMOOTH",
"150 19 OFFCURVE",
"197 -27 OFFCURVE",
"254 -27 CURVE SMOOTH"
);
}
);
userData = {
assembly = "NPUSHB[ ]	/* 31 values pushed */
1 29 29 64 30 15 4 15 24 2 22 24 6 2 6 6 0 1 5 9 26 25 7 18 12 19 18 1 1 22 70
SROUND[ ]	/* SuperRound */
MDAP[1]	/* MoveDirectAbsPt */
SHZ[1]	/* ShiftZoneByLastPoint */
RTG[ ]	/* RoundToGrid */
SVTCA[0]	/* SetFreedomAndProjectionVectorToAxis */
MIAP[1]	/* MoveIndirectAbsPt */
ALIGNRP[ ]	/* AlignRelativePt */
MDAP[1]	/* MoveDirectAbsPt */
SRP0[ ]	/* SetRefPoint0 */
MIRP[11101]	/* MoveIndirectRelPt */
ALIGNRP[ ]	/* AlignRelativePt */
SVTCA[1]	/* SetFreedomAndProjectionVectorToAxis */
MDAP[1]	/* MoveDirectAbsPt */
MIRP[11101]	/* MoveIndirectRelPt */
ALIGNRP[ ]	/* AlignRelativePt */
MDAP[1]	/* MoveDirectAbsPt */
MIRP[11101]	/* MoveIndirectRelPt */
SRP0[ ]	/* SetRefPoint0 */
MIRP[11101]	/* MoveIndirectRelPt */
SRP0[ ]	/* SetRefPoint0 */
MIRP[11101]	/* MoveIndirectRelPt */
SVTCA[0]	/* SetFreedomAndProjectionVectorToAxis */
MDAP[0]	/* MoveDirectAbsPt */
IUP[1]	/* InterpolateUntPts */
IUP[0]	/* InterpolateUntPts */
SVTCA[1]	/* SetFreedomAndProjectionVectorToAxis */
MD[0]	/* MeasureDistance */
ROUND[00]	/* Round */
PUSHW[ ]	/* 2 values pushed */
22 29
MD[0]	/* MeasureDistance */
ROUND[00]	/* Round */
SUB[ ]	/* Subtract */
PUSHB[ ]	/* 1 value pushed */
64
GT[ ]	/* GreaterThan */
IF[ ]	/* If */
SHPIX[ ]	/* ShiftZoneByPixel */
SRP1[ ]	/* SetRefPoint1 */
SHZ[1]	/* ShiftZoneByLastPoint */
PUSHW[ ]	/* 2 values pushed */
29 -64
SHPIX[ ]	/* ShiftZoneByPixel */
EIF[ ]	/* EndIf */";
};
width = 549;
}
);
note = exclam;
unicode = 0021;
},
{
glyphname = quotedbl;
lastChange = "2025-02-10 17:44:19 +0000";
layers = (
{
background = {
paths = (
{
closed = 1;
nodes = (
"183 994 LINE SMOOTH",
"186 971 OFFCURVE",
"204 971 QCURVE SMOOTH",
"220 971 OFFCURVE",
"224 994 QCURVE SMOOTH",
"246 1151 LINE",
"160 1151 LINE"
);
},
{
closed = 1;
nodes = (
"44 994 LINE SMOOTH",
"47 971 OFFCURVE",
"64 971 QCURVE SMOOTH",
"82 971 OFFCURVE",
"85 994 QCURVE SMOOTH",
"107 1151 LINE",
"21 1151 LINE"
);
}
);
};
layerId = m01;
paths = (
{
closed = 1;
nodes = (
"215 971 OFFCURVE",
"221 979 OFFCURVE",
"224 994 CURVE SMOOTH",
"246 1151 LINE",
"160 1151 LINE",
"183 994 LINE SMOOTH",
"185 979 OFFCURVE",
"192 971 OFFCURVE",
"204 971 CURVE SMOOTH"
);
},
{
closed = 1;
nodes = (
"76 971 OFFCURVE",
"83 979 OFFCURVE",
"85 994 CURVE SMOOTH",
"107 1151 LINE",
"21 1151 LINE",
"44 994 LINE SMOOTH",
"46 979 OFFCURVE",
"53 971 OFFCURVE",
"64 971 CURVE SMOOTH"
);
}
);
userData = {
assembly = "NPUSHB[ ]	/* 20 values pushed */
1 14 14 64 15 0 13 7 6 0 13 7 6 3 0 10 3 1 13 70
SROUND[ ]	/* SuperRound */
MDAP[1]	/* MoveDirectAbsPt */
SHZ[1]	/* ShiftZoneByLastPoint */
RTG[ ]	/* RoundToGrid */
SVTCA[0]	/* SetFreedomAndProjectionVectorToAxis */
MDAP[1]	/* MoveDirectAbsPt */
ALIGNRP[ ]	/* AlignRelativePt */
MDAP[1]	/* MoveDirectAbsPt */
SLOOP[ ]	/* SetLoopVariable */
ALIGNRP[ ]	/* AlignRelativePt */
SVTCA[1]	/* SetFreedomAndProjectionVectorToAxis */
MDAP[0]	/* MoveDirectAbsPt */
MDAP[0]	/* MoveDirectAbsPt */
MDAP[0]	/* MoveDirectAbsPt */
MDAP[0]	/* MoveDirectAbsPt */
SVTCA[0]	/* SetFreedomAndProjectionVectorToAxis */
IUP[1]	/* InterpolateUntPts */
IUP[0]	/* InterpolateUntPts */
SVTCA[1]	/* SetFreedomAndProjectionVectorToAxis */
MD[0]	/* MeasureDistance */
ROUND[00]	/* Round */
PUSHW[ ]	/* 2 values pushed */
13 14
MD[0]	/* MeasureDistance */
ROUND[00]	/* Round */
SUB[ ]	/* Subtract */
PUSHB[ ]	/* 1 value pushed */
64
GT[ ]	/* GreaterThan */
IF[ ]	/* If */
SHPIX[ ]	/* ShiftZoneByPixel */
SRP1[ ]	/* SetRefPoint1 */
SHZ[1]	/* ShiftZoneByLastPoint */
PUSHW[ ]	/* 2 values pushed */
14 -64
SHPIX[ ]	/* ShiftZoneByPixel */
EIF[ ]	/* EndIf */";
};
width = 256;
}
);
note = quotedbl;
unicode = 0022;
},
{
glyphname = numbersign;
lastChange = "2025-02-10 17:38:38 +0000";
layers = (
{
background = {
paths = (
{
closed = 1;
nodes = (
"825 394 LINE",
"859 561 LINE",
"963 561 LINE",
"963 686 LINE",
"885 686 LINE",
"930 907 LINE",
"799 907 LINE",
"755 686 LINE",
"630 686 LINE",
"675 907 LINE",
"548 907 LINE",
"503 686 LINE",
"341 686 LINE",
"341 561 LINE",
"477 561 LINE",
"443 394 LINE",
"341 394 LINE",
"341 269 LINE",
"418 269 LINE",
"373 48 LINE",
"502 48 LINE",
"546 269 LINE",
"672 269 LINE",
"629 48 LINE",
"755 48 LINE",
"800 269 LINE",
"963 269 LINE",
"963 394 LINE"
);
},
{
closed = 1;
nodes = (
"571 394 LINE",
"605 561 LINE",
"730 561 LINE",
"697 394 LINE"
);
}
);
};
layerId = m01;
paths = (
{
closed = 1;
nodes = (
"502 48 LINE",
"546 269 LINE",
"672 269 LINE",
"629 48 LINE",
"755 48 LINE",
"800 269 LINE",
"963 269 LINE",
"963 394 LINE",
"825 394 LINE",
"859 561 LINE",
"963 561 LINE",
"963 686 LINE",
"885 686 LINE",
"930 907 LINE",
"799 907 LINE",
"755 686 LINE",
"630 686 LINE",
"675 907 LINE",
"548 907 LINE",
"503 686 LINE",
"341 686 LINE",
"341 561 LINE",
"477 561 LINE",
"443 394 LINE",
"341 394 LINE",
"341 269 LINE",
"418 269 LINE",
"373 48 LINE"
);
},
{
closed = 1;
nodes = (
"605 561 LINE",
"730 561 LINE",
"697 394 LINE",
"571 394 LINE"
);
}
);
userData = {
assembly = "NPUSHB[ ]	/* 172 values pushed */
1 32 32 64 33 0 30 28 26 22 21 18 17 12 8 7 4 3 26 26 27 25 24 25 22 1 0 1 21 20 21 2 12 2 3 15 14 15 12 12 13 11 10 11 8 16 16 17 7 7 16 31 30 31 28 28 29 19 18 19 3 2 3 20 10 20 21 26 26 27 25 24 25 22 1 0 1 2 2 3 21 21 2 30 30 31 29 28 29 18 18 19 5 4 5 17 16 17 6 10 6 7 15 14 15 12 12 13 11 10 11 8 16 16 17 7 7 16 14 13 10 3 9 5 27 24 23 3 0 31 30 27 26 11 5 10 8 9 8 5 4 1 5 0 29 28 25 24 13 5 12 8 23 22 19 18 15 5 14 21 20 17 3 16 7 6 3 3 2 1 9 70
SROUND[ ]	/* SuperRound */
MDAP[1]	/* MoveDirectAbsPt */
SHZ[1]	/* ShiftZoneByLastPoint */
RTG[ ]	/* RoundToGrid */
SVTCA[0]	/* SetFreedomAndProjectionVectorToAxis */
MDAP[1]	/* MoveDirectAbsPt */
SLOOP[ ]	/* SetLoopVariable */
ALIGNRP[ ]	/* AlignRelativePt */
MDAP[1]	/* MoveDirectAbsPt */
SLOOP[ ]	/* SetLoopVariable */
ALIGNRP[ ]	/* AlignRelativePt */
MDAP[1]	/* MoveDirectAbsPt */
SLOOP[ ]	/* SetLoopVariable */
ALIGNRP[ ]	/* AlignRelativePt */
MIRP[11101]	/* MoveIndirectRelPt */
SLOOP[ ]	/* SetLoopVariable */
ALIGNRP[ ]	/* AlignRelativePt */
MDAP[1]	/* MoveDirectAbsPt */
SLOOP[ ]	/* SetLoopVariable */
ALIGNRP[ ]	/* AlignRelativePt */
MIRP[11101]	/* MoveIndirectRelPt */
SLOOP[ ]	/* SetLoopVariable */
ALIGNRP[ ]	/* AlignRelativePt */
SVTCA[1]	/* SetFreedomAndProjectionVectorToAxis */
MDAP[1]	/* MoveDirectAbsPt */
SLOOP[ ]	/* SetLoopVariable */
ALIGNRP[ ]	/* AlignRelativePt */
MIRP[11101]	/* MoveIndirectRelPt */
SLOOP[ ]	/* SetLoopVariable */
ALIGNRP[ ]	/* AlignRelativePt */
SDPVTL[1]	/* SetDualPVectorToLine */
MDAP[0]	/* MoveDirectAbsPt */
SFVTL[0]	/* SetFVectorToLine */
MDRP[00100]	/* MoveDirectRelPt */
SFVTPV[ ]	/* SetFVectorToPVector */
MDRP[00100]	/* MoveDirectRelPt */
SFVTL[0]	/* SetFVectorToLine */
MDRP[00100]	/* MoveDirectRelPt */
SFVTL[0]	/* SetFVectorToLine */
MDRP[00100]	/* MoveDirectRelPt */
SFVTL[0]	/* SetFVectorToLine */
MDRP[00100]	/* MoveDirectRelPt */
SFVTL[0]	/* SetFVectorToLine */
MIRP[11100]	/* MoveIndirectRelPt */
SFVTL[0]	/* SetFVectorToLine */
MDRP[00100]	/* MoveDirectRelPt */
SFVTL[0]	/* SetFVectorToLine */
MDRP[00100]	/* MoveDirectRelPt */
SFVTL[0]	/* SetFVectorToLine */
MDRP[00100]	/* MoveDirectRelPt */
SFVTL[0]	/* SetFVectorToLine */
MDRP[00100]	/* MoveDirectRelPt */
SFVTL[0]	/* SetFVectorToLine */
MDRP[00100]	/* MoveDirectRelPt */
SDPVTL[1]	/* SetDualPVectorToLine */
MDAP[0]	/* MoveDirectAbsPt */
SFVTL[0]	/* SetFVectorToLine */
MDRP[00100]	/* MoveDirectRelPt */
SFVTL[0]	/* SetFVectorToLine */
MDRP[00100]	/* MoveDirectRelPt */
SFVTPV[ ]	/* SetFVectorToPVector */
MDRP[00100]	/* MoveDirectRelPt */
SFVTL[0]	/* SetFVectorToLine */
MDRP[00100]	/* MoveDirectRelPt */
SFVTL[0]	/* SetFVectorToLine */
MDRP[00100]	/* MoveDirectRelPt */
SFVTL[0]	/* SetFVectorToLine */
MIRP[11100]	/* MoveIndirectRelPt */
SFVTL[0]	/* SetFVectorToLine */
MDRP[00100]	/* MoveDirectRelPt */
SFVTL[0]	/* SetFVectorToLine */
MDRP[00100]	/* MoveDirectRelPt */
SFVTL[0]	/* SetFVectorToLine */
MDRP[00100]	/* MoveDirectRelPt */
SFVTL[0]	/* SetFVectorToLine */
MDRP[00100]	/* MoveDirectRelPt */
SDPVTL[1]	/* SetDualPVectorToLine */
MDAP[0]	/* MoveDirectAbsPt */
SFVTL[0]	/* SetFVectorToLine */
MDRP[00100]	/* MoveDirectRelPt */
SFVTPV[ ]	/* SetFVectorToPVector */
MDRP[00100]	/* MoveDirectRelPt */
SFVTL[0]	/* SetFVectorToLine */
MDRP[00100]	/* MoveDirectRelPt */
SFVTL[0]	/* SetFVectorToLine */
MDRP[00100]	/* MoveDirectRelPt */
SFVTL[0]	/* SetFVectorToLine */
MDRP[00100]	/* MoveDirectRelPt */
SFVTL[0]	/* SetFVectorToLine */
MIRP[11100]	/* MoveIndirectRelPt */
SFVTL[0]	/* SetFVectorToLine */
MDRP[00100]	/* MoveDirectRelPt */
SFVTL[0]	/* SetFVectorToLine */
MDRP[00100]	/* MoveDirectRelPt */
SFVTPV[ ]	/* SetFVectorToPVector */
MDRP[00100]	/* MoveDirectRelPt */
SFVTL[0]	/* SetFVectorToLine */
MDRP[00100]	/* MoveDirectRelPt */
SFVTL[0]	/* SetFVectorToLine */
MDRP[00100]	/* MoveDirectRelPt */
SVTCA[1]	/* SetFreedomAndProjectionVectorToAxis */
MDAP[0]	/* MoveDirectAbsPt */
MDAP[0]	/* MoveDirectAbsPt */
MDAP[0]	/* MoveDirectAbsPt */
MDAP[0]	/* MoveDirectAbsPt */
MDAP[0]	/* MoveDirectAbsPt */
MDAP[0]	/* MoveDirectAbsPt */
MDAP[0]	/* MoveDirectAbsPt */
MDAP[0]	/* MoveDirectAbsPt */
MDAP[0]	/* MoveDirectAbsPt */
MDAP[0]	/* MoveDirectAbsPt */
MDAP[0]	/* MoveDirectAbsPt */
MDAP[0]	/* MoveDirectAbsPt */
SVTCA[0]	/* SetFreedomAndProjectionVectorToAxis */
IUP[1]	/* InterpolateUntPts */
IUP[0]	/* InterpolateUntPts */
SVTCA[1]	/* SetFreedomAndProjectionVectorToAxis */
MD[0]	/* MeasureDistance */
ROUND[00]	/* Round */
PUSHW[ ]	/* 2 values pushed */
9 32
MD[0]	/* MeasureDistance */
ROUND[00]	/* Round */
SUB[ ]	/* Subtract */
PUSHB[ ]	/* 1 value pushed */
64
GT[ ]	/* GreaterThan */
IF[ ]	/* If */
SHPIX[ ]	/* ShiftZoneByPixel */
SRP1[ ]	/* SetRefPoint1 */
SHZ[1]	/* ShiftZoneByLastPoint */
PUSHW[ ]	/* 2 values pushed */
32 -64
SHPIX[ ]	/* ShiftZoneByPixel */
EIF[ ]	/* EndIf */";
};
width = 1090;
}
);
note = numbersign;
unicode = 0023;
},
{
glyphname = dollar;
lastChange = "2025-02-10 17:38:38 +0000";
layers = (
{
background = {
paths = (
{
closed = 1;
nodes = (
"790 456 QCURVE SMOOTH",
"737 503 OFFCURVE",
"621 534 QCURVE",
"621 756 LINE",
"676 732 OFFCURVE",
"689 665 QCURVE",
"833 684 LINE",
"802 860 OFFCURVE",
"621 881 QCURVE",
"621 938 LINE",
"539 938 LINE",
"539 881 LINE",
"443 872 OFFCURVE",
"324 748 OFFCURVE",
"324 652 QCURVE SMOOTH",
"324 461 OFFCURVE",
"539 400 QCURVE",
"539 162 LINE",
"468 197 OFFCURVE",
"449 288 QCURVE",
"301 272 LINE",
"335 51 OFFCURVE",
"539 26 QCURVE",
"539 -77 LINE",
"621 -77 LINE",
"621 29 LINE",
"728 45 OFFCURVE",
"856 182 OFFCURVE",
"856 288 QCURVE SMOOTH",
"856 396 OFFCURVE"
);
},
{
closed = 1;
nodes = (
"466 659 QCURVE SMOOTH",
"466 733 OFFCURVE",
"539 758 QCURVE",
"539 562 LINE",
"466 593 OFFCURVE"
);
},
{
closed = 1;
nodes = (
"621 155 QCURVE",
"621 376 LINE",
"717 348 OFFCURVE",
"717 268 QCURVE SMOOTH",
"717 172 OFFCURVE"
);
}
);
};
layerId = m01;
paths = (
{
closed = 1;
nodes = (
"621 -77 LINE",
"621 29 LINE",
"764 50 OFFCURVE",
"856 147 OFFCURVE",
"856 288 CURVE SMOOTH",
"856 360 OFFCURVE",
"834 416 OFFCURVE",
"790 456 CURVE SMOOTH",
"755 487 OFFCURVE",
"698 513 OFFCURVE",
"621 534 CURVE",
"621 756 LINE",
"658 740 OFFCURVE",
"680 710 OFFCURVE",
"689 665 CURVE",
"833 684 LINE",
"812 801 OFFCURVE",
"742 867 OFFCURVE",
"621 881 CURVE",
"621 938 LINE",
"539 938 LINE",
"539 881 LINE",
"411 869 OFFCURVE",
"324 780 OFFCURVE",
"324 652 CURVE SMOOTH",
"324 525 OFFCURVE",
"396 441 OFFCURVE",
"539 400 CURVE",
"539 162 LINE",
"492 185 OFFCURVE",
"462 227 OFFCURVE",
"449 288 CURVE",
"301 272 LINE",
"324 125 OFFCURVE",
"403 43 OFFCURVE",
"539 26 CURVE",
"539 -77 LINE"
);
},
{
closed = 1;
nodes = (
"621 376 LINE",
"685 357 OFFCURVE",
"717 321 OFFCURVE",
"717 268 CURVE SMOOTH",
"717 204 OFFCURVE",
"685 166 OFFCURVE",
"621 155 CURVE"
);
},
{
closed = 1;
nodes = (
"490 583 OFFCURVE",
"466 615 OFFCURVE",
"466 659 CURVE SMOOTH",
"466 708 OFFCURVE",
"490 741 OFFCURVE",
"539 758 CURVE",
"539 562 LINE"
);
}
);
userData = {
assembly = "NPUSHB[ ]	/* 48 values pushed */
1 40 40 64 41 0 38 37 31 30 25 23 11 9 22 8 31 30 18 17 12 11 6 7 5 6 38 37 26 25 20 19 4 7 3 33 6 14 35 6 0 19 18 5 4 1 8 70
SROUND[ ]	/* SuperRound */
MDAP[1]	/* MoveDirectAbsPt */
SHZ[1]	/* ShiftZoneByLastPoint */
RTG[ ]	/* RoundToGrid */
SVTCA[0]	/* SetFreedomAndProjectionVectorToAxis */
MDAP[1]	/* MoveDirectAbsPt */
ALIGNRP[ ]	/* AlignRelativePt */
MDAP[1]	/* MoveDirectAbsPt */
ALIGNRP[ ]	/* AlignRelativePt */
SVTCA[1]	/* SetFreedomAndProjectionVectorToAxis */
MDAP[1]	/* MoveDirectAbsPt */
MIRP[11101]	/* MoveIndirectRelPt */
MDAP[1]	/* MoveDirectAbsPt */
MIRP[11101]	/* MoveIndirectRelPt */
MDAP[1]	/* MoveDirectAbsPt */
SLOOP[ ]	/* SetLoopVariable */
ALIGNRP[ ]	/* AlignRelativePt */
MIRP[11101]	/* MoveIndirectRelPt */
SLOOP[ ]	/* SetLoopVariable */
ALIGNRP[ ]	/* AlignRelativePt */
MDAP[0]	/* MoveDirectAbsPt */
MDAP[0]	/* MoveDirectAbsPt */
SVTCA[0]	/* SetFreedomAndProjectionVectorToAxis */
MDAP[0]	/* MoveDirectAbsPt */
MDAP[0]	/* MoveDirectAbsPt */
MDAP[0]	/* MoveDirectAbsPt */
MDAP[0]	/* MoveDirectAbsPt */
MDAP[0]	/* MoveDirectAbsPt */
MDAP[0]	/* MoveDirectAbsPt */
MDAP[0]	/* MoveDirectAbsPt */
MDAP[0]	/* MoveDirectAbsPt */
IUP[1]	/* InterpolateUntPts */
IUP[0]	/* InterpolateUntPts */
SVTCA[1]	/* SetFreedomAndProjectionVectorToAxis */
MD[0]	/* MeasureDistance */
ROUND[00]	/* Round */
PUSHW[ ]	/* 2 values pushed */
8 40
MD[0]	/* MeasureDistance */
ROUND[00]	/* Round */
SUB[ ]	/* Subtract */
PUSHB[ ]	/* 1 value pushed */
64
GT[ ]	/* GreaterThan */
IF[ ]	/* If */
SHPIX[ ]	/* ShiftZoneByPixel */
SRP1[ ]	/* SetRefPoint1 */
SHZ[1]	/* ShiftZoneByLastPoint */
PUSHW[ ]	/* 2 values pushed */
40 -64
SHPIX[ ]	/* ShiftZoneByPixel */
EIF[ ]	/* EndIf */";
};
width = 985;
}
);
note = dollar;
unicode = 0024;
},
{
glyphname = percent;
lastChange = "2025-02-10 17:38:38 +0000";
layers = (
{
background = {
paths = (
{
closed = 1;
nodes = (
"1054 485 QCURVE SMOOTH",
"871 485 OFFCURVE",
"871 266 QCURVE SMOOTH",
"871 46 OFFCURVE",
"1056 46 QCURVE SMOOTH",
"1238 46 OFFCURVE",
"1238 266 QCURVE SMOOTH",
"1238 485 OFFCURVE"
);
},
{
closed = 1;
nodes = (
"495 47 LINE",
"613 47 LINE",
"1053 924 LINE",
"938 924 LINE"
);
},
{
closed = 1;
nodes = (
"492 924 QCURVE SMOOTH",
"310 924 OFFCURVE",
"310 705 QCURVE SMOOTH",
"310 486 OFFCURVE",
"495 486 QCURVE SMOOTH",
"677 486 OFFCURVE",
"677 705 QCURVE SMOOTH",
"677 924 OFFCURVE"
);
},
{
closed = 1;
nodes = (
"1053 137 QCURVE SMOOTH",
"995 137 OFFCURVE",
"995 266 QCURVE SMOOTH",
"995 395 OFFCURVE",
"1053 395 QCURVE SMOOTH",
"1111 395 OFFCURVE",
"1111 266 QCURVE SMOOTH",
"1111 137 OFFCURVE"
);
},
{
closed = 1;
nodes = (
"492 577 QCURVE SMOOTH",
"434 577 OFFCURVE",
"434 706 QCURVE SMOOTH",
"434 835 OFFCURVE",
"492 835 QCURVE SMOOTH",
"550 835 OFFCURVE",
"550 706 QCURVE SMOOTH",
"550 577 OFFCURVE"
);
}
);
};
layerId = m01;
paths = (
{
closed = 1;
nodes = (
"613 47 LINE",
"1053 924 LINE",
"938 924 LINE",
"495 47 LINE"
);
},
{
closed = 1;
nodes = (
"616 486 OFFCURVE",
"677 559 OFFCURVE",
"677 705 CURVE SMOOTH",
"677 851 OFFCURVE",
"615 924 OFFCURVE",
"492 924 CURVE SMOOTH",
"371 924 OFFCURVE",
"310 851 OFFCURVE",
"310 705 CURVE SMOOTH",
"310 559 OFFCURVE",
"372 486 OFFCURVE",
"495 486 CURVE SMOOTH"
);
},
{
closed = 1;
nodes = (
"453 577 OFFCURVE",
"434 620 OFFCURVE",
"434 706 CURVE SMOOTH",
"434 792 OFFCURVE",
"453 835 OFFCURVE",
"492 835 CURVE SMOOTH",
"531 835 OFFCURVE",
"550 792 OFFCURVE",
"550 706 CURVE SMOOTH",
"550 620 OFFCURVE",
"531 577 OFFCURVE",
"492 577 CURVE SMOOTH"
);
},
{
closed = 1;
nodes = (
"1177 46 OFFCURVE",
"1238 119 OFFCURVE",
"1238 266 CURVE SMOOTH",
"1238 412 OFFCURVE",
"1177 485 OFFCURVE",
"1054 485 CURVE SMOOTH",
"932 485 OFFCURVE",
"871 412 OFFCURVE",
"871 266 CURVE SMOOTH",
"871 119 OFFCURVE",
"933 46 OFFCURVE",
"1056 46 CURVE SMOOTH"
);
},
{
closed = 1;
nodes = (
"1014 137 OFFCURVE",
"995 180 OFFCURVE",
"995 266 CURVE SMOOTH",
"995 352 OFFCURVE",
"1014 395 OFFCURVE",
"1053 395 CURVE SMOOTH",
"1092 395 OFFCURVE",
"1111 352 OFFCURVE",
"1111 266 CURVE SMOOTH",
"1111 180 OFFCURVE",
"1092 137 OFFCURVE",
"1053 137 CURVE SMOOTH"
);
}
);
userData = {
assembly = "NPUSHB[ ]	/* 54 values pushed */
1 36 36 64 37 0 10 8 10 9 10 11 9 11 8 9 9 10 8 8 9 4 6 24 32 6 16 20 6 0 12 6 28 26 8 2 14 8 34 6 8 22 30 8 8 18 11 8 10 9 2 1 16 70
SROUND[ ]	/* SuperRound */
MDAP[1]	/* MoveDirectAbsPt */
SHZ[1]	/* ShiftZoneByLastPoint */
RTG[ ]	/* RoundToGrid */
SVTCA[0]	/* SetFreedomAndProjectionVectorToAxis */
MDAP[1]	/* MoveDirectAbsPt */
ALIGNRP[ ]	/* AlignRelativePt */
ALIGNRP[ ]	/* AlignRelativePt */
MDAP[1]	/* MoveDirectAbsPt */
ALIGNRP[ ]	/* AlignRelativePt */
ALIGNRP[ ]	/* AlignRelativePt */
SRP0[ ]	/* SetRefPoint0 */
MIRP[11101]	/* MoveIndirectRelPt */
MDAP[1]	/* MoveDirectAbsPt */
MIRP[11101]	/* MoveIndirectRelPt */
MDAP[1]	/* MoveDirectAbsPt */
MIRP[11101]	/* MoveIndirectRelPt */
SRP0[ ]	/* SetRefPoint0 */
MIRP[11101]	/* MoveIndirectRelPt */
SVTCA[1]	/* SetFreedomAndProjectionVectorToAxis */
MDAP[1]	/* MoveDirectAbsPt */
MIRP[11101]	/* MoveIndirectRelPt */
MDAP[1]	/* MoveDirectAbsPt */
MIRP[11101]	/* MoveIndirectRelPt */
MDAP[1]	/* MoveDirectAbsPt */
MIRP[11101]	/* MoveIndirectRelPt */
MDAP[1]	/* MoveDirectAbsPt */
MIRP[11101]	/* MoveIndirectRelPt */
SDPVTL[1]	/* SetDualPVectorToLine */
MDAP[0]	/* MoveDirectAbsPt */
SFVTL[0]	/* SetFVectorToLine */
MDRP[00100]	/* MoveDirectRelPt */
SFVTL[0]	/* SetFVectorToLine */
MIRP[11100]	/* MoveIndirectRelPt */
SFVTL[0]	/* SetFVectorToLine */
MDRP[00100]	/* MoveDirectRelPt */
SVTCA[1]	/* SetFreedomAndProjectionVectorToAxis */
MDAP[0]	/* MoveDirectAbsPt */
MDAP[0]	/* MoveDirectAbsPt */
SVTCA[0]	/* SetFreedomAndProjectionVectorToAxis */
IUP[1]	/* InterpolateUntPts */
IUP[0]	/* InterpolateUntPts */
SVTCA[1]	/* SetFreedomAndProjectionVectorToAxis */
MD[0]	/* MeasureDistance */
ROUND[00]	/* Round */
PUSHW[ ]	/* 2 values pushed */
16 36
MD[0]	/* MeasureDistance */
ROUND[00]	/* Round */
SUB[ ]	/* Subtract */
PUSHB[ ]	/* 1 value pushed */
64
GT[ ]	/* GreaterThan */
IF[ ]	/* If */
SHPIX[ ]	/* ShiftZoneByPixel */
SRP1[ ]	/* SetRefPoint1 */
SHZ[1]	/* ShiftZoneByLastPoint */
PUSHW[ ]	/* 2 values pushed */
36 -64
SHPIX[ ]	/* ShiftZoneByPixel */
EIF[ ]	/* EndIf */";
};
width = 1348;
}
);
note = percent;
unicode = 0025;
},
{
glyphname = ampersand;
lastChange = "2025-02-10 17:38:38 +0000";
layers = (
{
background = {
paths = (
{
closed = 1;
nodes = (
"834 131 QCURVE SMOOTH",
"841 130 OFFCURVE",
"765 130 QCURVE",
"714 207 LINE",
"770 291 OFFCURVE",
"813 443 QCURVE",
"880 443 OFFCURVE",
"880 482 QCURVE SMOOTH",
"880 520 OFFCURVE",
"829 520 QCURVE SMOOTH",
"755 520 LINE",
"724 384 OFFCURVE",
"669 280 QCURVE",
"460 612 LINE SMOOTH",
"379 741 OFFCURVE",
"379 799 QCURVE SMOOTH",
"379 859 OFFCURVE",
"474 948 OFFCURVE",
"534 948 QCURVE SMOOTH",
"596 948 OFFCURVE",
"651 898 QCURVE",
"678 912 OFFCURVE",
"705 926 QCURVE SMOOTH",
"741 947 OFFCURVE",
"741 969 QCURVE SMOOTH",
"741 1007 OFFCURVE",
"703 1007 QCURVE SMOOTH",
"694 1007 OFFCURVE",
"655 988 QCURVE",
"596 1024 OFFCURVE",
"533 1024 QCURVE SMOOTH",
"440 1024 OFFCURVE",
"304 894 OFFCURVE",
"304 801 QCURVE SMOOTH",
"304 740 OFFCURVE",
"396 591 QCURVE",
"301 563 OFFCURVE",
"188 417 OFFCURVE",
"188 319 QCURVE SMOOTH",
"188 202 OFFCURVE",
"265 115 QCURVE SMOOTH",
"345 25 OFFCURVE",
"460 25 QCURVE SMOOTH",
"588 25 OFFCURVE",
"669 143 QCURVE",
"727 54 LINE",
"829 54 LINE SMOOTH",
"880 54 OFFCURVE",
"880 92 QCURVE SMOOTH",
"880 125 OFFCURVE"
);
},
{
closed = 1;
nodes = (
"458 100 QCURVE SMOOTH",
"376 100 OFFCURVE",
"318 170 QCURVE SMOOTH",
"264 235 OFFCURVE",
"264 319 QCURVE SMOOTH",
"264 396 OFFCURVE",
"354 506 OFFCURVE",
"429 524 QCURVE",
"625 214 LINE",
"559 100 OFFCURVE"
);
}
);
};
layerId = m01;
paths = (
{
closed = 1;
nodes = (
"545 25 OFFCURVE",
"615 64 OFFCURVE",
"669 143 CURVE",
"727 54 LINE",
"829 54 LINE SMOOTH",
"863 54 OFFCURVE",
"880 67 OFFCURVE",
"880 92 CURVE SMOOTH",
"880 114 OFFCURVE",
"865 127 OFFCURVE",
"834 131 CURVE",
"765 130 LINE",
"714 207 LINE",
"751 263 OFFCURVE",
"784 342 OFFCURVE",
"813 443 CURVE",
"858 443 OFFCURVE",
"880 456 OFFCURVE",
"880 482 CURVE SMOOTH",
"880 507 OFFCURVE",
"863 520 OFFCURVE",
"829 520 CURVE SMOOTH",
"755 520 LINE",
"734 429 OFFCURVE",
"706 349 OFFCURVE",
"669 280 CURVE",
"460 612 LINE SMOOTH",
"406 698 OFFCURVE",
"379 760 OFFCURVE",
"379 799 CURVE SMOOTH",
"379 879 OFFCURVE",
"454 948 OFFCURVE",
"534 948 CURVE SMOOTH",
"575 948 OFFCURVE",
"614 931 OFFCURVE",
"651 898 CURVE",
"705 926 LINE SMOOTH",
"729 940 OFFCURVE",
"741 954 OFFCURVE",
"741 969 CURVE SMOOTH",
"741 994 OFFCURVE",
"728 1007 OFFCURVE",
"703 1007 CURVE SMOOTH",
"697 1007 OFFCURVE",
"681 1001 OFFCURVE",
"655 988 CURVE",
"616 1012 OFFCURVE",
"575 1024 OFFCURVE",
"533 1024 CURVE SMOOTH",
"409 1024 OFFCURVE",
"304 925 OFFCURVE",
"304 801 CURVE SMOOTH",
"304 760 OFFCURVE",
"335 690 OFFCURVE",
"396 591 CURVE",
"269 554 OFFCURVE",
"188 450 OFFCURVE",
"188 319 CURVE SMOOTH",
"188 241 OFFCURVE",
"214 173 OFFCURVE",
"265 115 CURVE SMOOTH",
"318 55 OFFCURVE",
"383 25 OFFCURVE",
"460 25 CURVE SMOOTH"
);
},
{
closed = 1;
nodes = (
"403 100 OFFCURVE",
"357 123 OFFCURVE",
"318 170 CURVE SMOOTH",
"282 213 OFFCURVE",
"264 263 OFFCURVE",
"264 319 CURVE SMOOTH",
"264 422 OFFCURVE",
"329 500 OFFCURVE",
"429 524 CURVE",
"625 214 LINE",
"581 138 OFFCURVE",
"525 100 OFFCURVE",
"458 100 CURVE SMOOTH"
);
}
);
userData = {
assembly = "NPUSHB[ ]	/* 62 values pushed */
1 60 60 64 61 0 51 36 28 22 20 4 50 45 41 24 13 0 45 36 35 46 9 4 3 3 4 45 36 35 46 9 51 50 50 51 54 6 10 33 6 15 39 38 7 2 48 46 8 3 2 58 8 6 30 8 18 18 6 1 10 70
SROUND[ ]	/* SuperRound */
MDAP[1]	/* MoveDirectAbsPt */
SHZ[1]	/* ShiftZoneByLastPoint */
RTG[ ]	/* RoundToGrid */
SVTCA[0]	/* SetFreedomAndProjectionVectorToAxis */
MDAP[1]	/* MoveDirectAbsPt */
MDAP[1]	/* MoveDirectAbsPt */
SRP0[ ]	/* SetRefPoint0 */
MIRP[11101]	/* MoveIndirectRelPt */
SRP0[ ]	/* SetRefPoint0 */
MIRP[11101]	/* MoveIndirectRelPt */
MDAP[1]	/* MoveDirectAbsPt */
ALIGNRP[ ]	/* AlignRelativePt */
MIRP[11101]	/* MoveIndirectRelPt */
ALIGNRP[ ]	/* AlignRelativePt */
SRP0[ ]	/* SetRefPoint0 */
MIRP[11101]	/* MoveIndirectRelPt */
ALIGNRP[ ]	/* AlignRelativePt */
SVTCA[1]	/* SetFreedomAndProjectionVectorToAxis */
MDAP[1]	/* MoveDirectAbsPt */
MIRP[11101]	/* MoveIndirectRelPt */
MDAP[1]	/* MoveDirectAbsPt */
MIRP[11101]	/* MoveIndirectRelPt */
SDPVTL[1]	/* SetDualPVectorToLine */
MDAP[0]	/* MoveDirectAbsPt */
SFVTPV[ ]	/* SetFVectorToPVector */
MDRP[00100]	/* MoveDirectRelPt */
SFVTPV[ ]	/* SetFVectorToPVector */
MIRP[11100]	/* MoveIndirectRelPt */
SFVTPV[ ]	/* SetFVectorToPVector */
MDRP[00100]	/* MoveDirectRelPt */
SFVTPV[ ]	/* SetFVectorToPVector */
MDRP[00100]	/* MoveDirectRelPt */
SFVTPV[ ]	/* SetFVectorToPVector */
MDRP[00100]	/* MoveDirectRelPt */
SDPVTL[1]	/* SetDualPVectorToLine */
MDAP[0]	/* MoveDirectAbsPt */
SFVTPV[ ]	/* SetFVectorToPVector */
MDRP[00100]	/* MoveDirectRelPt */
SFVTPV[ ]	/* SetFVectorToPVector */
MIRP[11100]	/* MoveIndirectRelPt */
SFVTPV[ ]	/* SetFVectorToPVector */
MDRP[00100]	/* MoveDirectRelPt */
SFVTPV[ ]	/* SetFVectorToPVector */
MDRP[00100]	/* MoveDirectRelPt */
SFVTPV[ ]	/* SetFVectorToPVector */
MDRP[00100]	/* MoveDirectRelPt */
SVTCA[1]	/* SetFreedomAndProjectionVectorToAxis */
MDAP[0]	/* MoveDirectAbsPt */
MDAP[0]	/* MoveDirectAbsPt */
MDAP[0]	/* MoveDirectAbsPt */
MDAP[0]	/* MoveDirectAbsPt */
MDAP[0]	/* MoveDirectAbsPt */
MDAP[0]	/* MoveDirectAbsPt */
SVTCA[0]	/* SetFreedomAndProjectionVectorToAxis */
MDAP[0]	/* MoveDirectAbsPt */
MDAP[0]	/* MoveDirectAbsPt */
MDAP[0]	/* MoveDirectAbsPt */
MDAP[0]	/* MoveDirectAbsPt */
MDAP[0]	/* MoveDirectAbsPt */
MDAP[0]	/* MoveDirectAbsPt */
IUP[1]	/* InterpolateUntPts */
IUP[0]	/* InterpolateUntPts */
SVTCA[1]	/* SetFreedomAndProjectionVectorToAxis */
MD[0]	/* MeasureDistance */
ROUND[00]	/* Round */
PUSHW[ ]	/* 2 values pushed */
10 60
MD[0]	/* MeasureDistance */
ROUND[00]	/* Round */
SUB[ ]	/* Subtract */
PUSHB[ ]	/* 1 value pushed */
64
GT[ ]	/* GreaterThan */
IF[ ]	/* If */
SHPIX[ ]	/* ShiftZoneByPixel */
SRP1[ ]	/* SetRefPoint1 */
SHZ[1]	/* ShiftZoneByLastPoint */
PUSHW[ ]	/* 2 values pushed */
60 -64
SHPIX[ ]	/* ShiftZoneByPixel */
EIF[ ]	/* EndIf */";
};
width = 1016;
}
);
note = ampersand;
unicode = 0026;
},
{
glyphname = quotesingle;
lastChange = "2025-02-10 17:38:38 +0000";
layers = (
{
background = {
paths = (
{
closed = 1;
nodes = (
"55 996 LINE SMOOTH",
"58 973 OFFCURVE",
"75 973 QCURVE SMOOTH",
"92 973 OFFCURVE",
"95 996 QCURVE SMOOTH",
"118 1153 LINE",
"32 1153 LINE"
);
}
);
};
layerId = m01;
paths = (
{
closed = 1;
nodes = (
"86 973 OFFCURVE",
"93 981 OFFCURVE",
"95 996 CURVE SMOOTH",
"118 1153 LINE",
"32 1153 LINE",
"55 996 LINE SMOOTH",
"57 981 OFFCURVE",
"64 973 OFFCURVE",
"75 973 CURVE SMOOTH"
);
}
);
userData = {
assembly = "NPUSHB[ ]	/* 14 values pushed */
1 7 7 64 8 0 6 0 6 0 3 1 6 70
SROUND[ ]	/* SuperRound */
MDAP[1]	/* MoveDirectAbsPt */
SHZ[1]	/* ShiftZoneByLastPoint */
RTG[ ]	/* RoundToGrid */
SVTCA[0]	/* SetFreedomAndProjectionVectorToAxis */
MDAP[1]	/* MoveDirectAbsPt */
MDAP[1]	/* MoveDirectAbsPt */
ALIGNRP[ ]	/* AlignRelativePt */
SVTCA[1]	/* SetFreedomAndProjectionVectorToAxis */
MDAP[0]	/* MoveDirectAbsPt */
MDAP[0]	/* MoveDirectAbsPt */
SVTCA[0]	/* SetFreedomAndProjectionVectorToAxis */
IUP[1]	/* InterpolateUntPts */
IUP[0]	/* InterpolateUntPts */
SVTCA[1]	/* SetFreedomAndProjectionVectorToAxis */
MD[0]	/* MeasureDistance */
ROUND[00]	/* Round */
PUSHW[ ]	/* 2 values pushed */
6 7
MD[0]	/* MeasureDistance */
ROUND[00]	/* Round */
SUB[ ]	/* Subtract */
PUSHB[ ]	/* 1 value pushed */
64
GT[ ]	/* GreaterThan */
IF[ ]	/* If */
SHPIX[ ]	/* ShiftZoneByPixel */
SRP1[ ]	/* SetRefPoint1 */
SHZ[1]	/* ShiftZoneByLastPoint */
PUSHW[ ]	/* 2 values pushed */
7 -64
SHPIX[ ]	/* ShiftZoneByPixel */
EIF[ ]	/* EndIf */";
};
width = 150;
}
);
note = quotesingle;
unicode = 0027;
},
{
glyphname = parenleft;
lastChange = "2025-02-10 17:38:38 +0000";
layers = (
{
background = {
paths = (
{
closed = 1;
nodes = (
"217 818 OFFCURVE",
"217 531 QCURVE SMOOTH",
"217 253 OFFCURVE",
"395 -15 QCURVE",
"504 -15 LINE",
"454 94 OFFCURVE",
"434 151 QCURVE SMOOTH",
"370 340 OFFCURVE",
"370 527 QCURVE SMOOTH",
"370 774 OFFCURVE",
"506 1075 QCURVE",
"397 1075 LINE"
);
}
);
};
layerId = m01;
paths = (
{
closed = 1;
nodes = (
"504 -15 LINE",
"471 58 OFFCURVE",
"447 113 OFFCURVE",
"434 151 CURVE SMOOTH",
"391 277 OFFCURVE",
"370 402 OFFCURVE",
"370 527 CURVE SMOOTH",
"370 692 OFFCURVE",
"415 874 OFFCURVE",
"506 1075 CURVE",
"397 1075 LINE",
"277 904 OFFCURVE",
"217 722 OFFCURVE",
"217 531 CURVE SMOOTH",
"217 346 OFFCURVE",
"276 164 OFFCURVE",
"395 -15 CURVE"
);
}
);
userData = {
assembly = "NPUSHB[ ]	/* 19 values pushed */
1 12 12 64 13 0 6 0 2 5 9 11 0 7 6 1 1 9 70
SROUND[ ]	/* SuperRound */
MDAP[1]	/* MoveDirectAbsPt */
SHZ[1]	/* ShiftZoneByLastPoint */
RTG[ ]	/* RoundToGrid */
SVTCA[0]	/* SetFreedomAndProjectionVectorToAxis */
MIAP[1]	/* MoveIndirectAbsPt */
ALIGNRP[ ]	/* AlignRelativePt */
MDAP[1]	/* MoveDirectAbsPt */
ALIGNRP[ ]	/* AlignRelativePt */
SVTCA[1]	/* SetFreedomAndProjectionVectorToAxis */
MDAP[1]	/* MoveDirectAbsPt */
MIRP[11101]	/* MoveIndirectRelPt */
MDAP[0]	/* MoveDirectAbsPt */
MDAP[0]	/* MoveDirectAbsPt */
SVTCA[0]	/* SetFreedomAndProjectionVectorToAxis */
IUP[1]	/* InterpolateUntPts */
IUP[0]	/* InterpolateUntPts */
SVTCA[1]	/* SetFreedomAndProjectionVectorToAxis */
MD[0]	/* MeasureDistance */
ROUND[00]	/* Round */
PUSHW[ ]	/* 2 values pushed */
9 12
MD[0]	/* MeasureDistance */
ROUND[00]	/* Round */
SUB[ ]	/* Subtract */
PUSHB[ ]	/* 1 value pushed */
64
GT[ ]	/* GreaterThan */
IF[ ]	/* If */
SHPIX[ ]	/* ShiftZoneByPixel */
SRP1[ ]	/* SetRefPoint1 */
SHZ[1]	/* ShiftZoneByLastPoint */
PUSHW[ ]	/* 2 values pushed */
12 -64
SHPIX[ ]	/* ShiftZoneByPixel */
EIF[ ]	/* EndIf */";
};
width = 650;
}
);
note = parenleft;
unicode = 0028;
},
{
glyphname = parenright;
lastChange = "2025-02-10 17:38:38 +0000";
layers = (
{
background = {
paths = (
{
closed = 1;
nodes = (
"285 1075 QCURVE",
"177 1075 LINE",
"313 775 OFFCURVE",
"313 527 QCURVE SMOOTH",
"313 402 OFFCURVE",
"280 264 QCURVE SMOOTH",
"252 144 OFFCURVE",
"178 -15 QCURVE",
"288 -15 LINE",
"466 254 OFFCURVE",
"466 539 QCURVE SMOOTH",
"466 818 OFFCURVE"
);
}
);
};
layerId = m01;
paths = (
{
closed = 1;
nodes = (
"288 -15 LINE",
"407 164 OFFCURVE",
"466 349 OFFCURVE",
"466 539 CURVE SMOOTH",
"466 725 OFFCURVE",
"406 904 OFFCURVE",
"285 1075 CURVE",
"177 1075 LINE",
"268 875 OFFCURVE",
"313 692 OFFCURVE",
"313 527 CURVE SMOOTH",
"313 444 OFFCURVE",
"302 356 OFFCURVE",
"280 264 CURVE SMOOTH",
"261 184 OFFCURVE",
"227 91 OFFCURVE",
"178 -15 CURVE"
);
}
);
userData = {
assembly = "NPUSHB[ ]	/* 19 values pushed */
1 12 12 64 13 0 9 3 7 5 0 10 9 3 2 1 1 9 70
SROUND[ ]	/* SuperRound */
MDAP[1]	/* MoveDirectAbsPt */
SHZ[1]	/* ShiftZoneByLastPoint */
RTG[ ]	/* RoundToGrid */
SVTCA[0]	/* SetFreedomAndProjectionVectorToAxis */
MIAP[1]	/* MoveIndirectAbsPt */
ALIGNRP[ ]	/* AlignRelativePt */
MDAP[1]	/* MoveDirectAbsPt */
ALIGNRP[ ]	/* AlignRelativePt */
SVTCA[1]	/* SetFreedomAndProjectionVectorToAxis */
MDAP[1]	/* MoveDirectAbsPt */
MIRP[11101]	/* MoveIndirectRelPt */
MDAP[0]	/* MoveDirectAbsPt */
MDAP[0]	/* MoveDirectAbsPt */
SVTCA[0]	/* SetFreedomAndProjectionVectorToAxis */
IUP[1]	/* InterpolateUntPts */
IUP[0]	/* InterpolateUntPts */
SVTCA[1]	/* SetFreedomAndProjectionVectorToAxis */
MD[0]	/* MeasureDistance */
ROUND[00]	/* Round */
PUSHW[ ]	/* 2 values pushed */
9 12
MD[0]	/* MeasureDistance */
ROUND[00]	/* Round */
SUB[ ]	/* Subtract */
PUSHB[ ]	/* 1 value pushed */
64
GT[ ]	/* GreaterThan */
IF[ ]	/* If */
SHPIX[ ]	/* ShiftZoneByPixel */
SRP1[ ]	/* SetRefPoint1 */
SHZ[1]	/* ShiftZoneByLastPoint */
PUSHW[ ]	/* 2 values pushed */
12 -64
SHPIX[ ]	/* ShiftZoneByPixel */
EIF[ ]	/* EndIf */";
};
width = 646;
}
);
note = parenright;
unicode = 0029;
},
{
glyphname = asterisk;
lastChange = "2025-02-10 17:38:38 +0000";
layers = (
{
background = {
paths = (
{
closed = 1;
nodes = (
"752 207 QCURVE",
"668 227 LINE",
"671 249 LINE",
"668 271 LINE",
"735 289 LINE SMOOTH",
"784 303 OFFCURVE",
"784 342 QCURVE SMOOTH",
"784 394 OFFCURVE",
"735 394 QCURVE",
"715 391 OFFCURVE",
"691 368 QCURVE SMOOTH",
"640 317 LINE",
"625 329 OFFCURVE",
"605 334 QCURVE",
"622 388 LINE",
"631 427 LINE",
"624 480 OFFCURVE",
"583 480 QCURVE",
"552 473 LINE",
"530 461 OFFCURVE",
"530 427 QCURVE SMOOTH",
"530 417 OFFCURVE",
"551 346 QCURVE",
"551 340 OFFCURVE",
"552 336 QCURVE",
"535 329 LINE",
"516 315 LINE",
"476 357 LINE SMOOTH",
"445 390 OFFCURVE",
"420 390 QCURVE SMOOTH",
"374 390 OFFCURVE",
"374 342 QCURVE SMOOTH",
"374 307 OFFCURVE",
"410 295 QCURVE SMOOTH",
"492 269 LINE",
"490 249 LINE",
"492 230 LINE",
"424 212 LINE",
"374 193 OFFCURVE",
"374 158 QCURVE",
"377 136 OFFCURVE",
"385 124 QCURVE",
"397 110 OFFCURVE",
"422 110 QCURVE SMOOTH",
"441 110 OFFCURVE",
"453 119 QCURVE",
"495 159 LINE",
"506 175 OFFCURVE",
"516 182 QCURVE",
"535 168 OFFCURVE",
"555 164 QCURVE",
"538 111 LINE SMOOTH",
"530 87 OFFCURVE",
"530 71 QCURVE SMOOTH",
"530 18 OFFCURVE",
"578 18 QCURVE",
"631 24 OFFCURVE",
"631 74 QCURVE",
"620 111 LINE",
"609 134 OFFCURVE",
"605 161 QCURVE",
"623 170 LINE",
"642 184 LINE",
"701 124 LINE",
"722 110 OFFCURVE",
"736 110 QCURVE",
"786 117 OFFCURVE",
"786 159 QCURVE SMOOTH",
"786 195 OFFCURVE"
);
},
{
closed = 1;
nodes = (
"581 213 QCURVE SMOOTH",
"547 213 OFFCURVE",
"547 247 QCURVE SMOOTH",
"547 285 OFFCURVE",
"581 285 QCURVE SMOOTH",
"617 285 OFFCURVE",
"617 250 QCURVE SMOOTH",
"617 213 OFFCURVE"
);
}
);
};
layerId = m01;
paths = (
{
closed = 1;
nodes = (
"613 22 OFFCURVE",
"631 41 OFFCURVE",
"631 74 CURVE",
"620 111 LINE",
"613 126 OFFCURVE",
"608 143 OFFCURVE",
"605 161 CURVE",
"623 170 LINE",
"642 184 LINE",
"701 124 LINE",
"715 115 OFFCURVE",
"727 110 OFFCURVE",
"736 110 CURVE",
"769 115 OFFCURVE",
"786 131 OFFCURVE",
"786 159 CURVE SMOOTH",
"786 183 OFFCURVE",
"775 199 OFFCURVE",
"752 207 CURVE",
"668 227 LINE",
"671 249 LINE",
"668 271 LINE",
"735 289 LINE SMOOTH",
"768 298 OFFCURVE",
"784 316 OFFCURVE",
"784 342 CURVE SMOOTH",
"784 377 OFFCURVE",
"768 394 OFFCURVE",
"735 394 CURVE",
"722 392 OFFCURVE",
"707 383 OFFCURVE",
"691 368 CURVE SMOOTH",
"640 317 LINE",
"630 325 OFFCURVE",
"618 331 OFFCURVE",
"605 334 CURVE",
"622 388 LINE",
"631 427 LINE",
"626 462 OFFCURVE",
"610 480 OFFCURVE",
"583 480 CURVE",
"552 473 LINE",
"537 465 OFFCURVE",
"530 450 OFFCURVE",
"530 427 CURVE SMOOTH",
"530 420 OFFCURVE",
"537 393 OFFCURVE",
"551 346 CURVE",
"551 342 OFFCURVE",
"551 339 OFFCURVE",
"552 336 CURVE",
"535 329 LINE",
"516 315 LINE",
"476 357 LINE SMOOTH",
"455 379 OFFCURVE",
"437 390 OFFCURVE",
"420 390 CURVE SMOOTH",
"389 390 OFFCURVE",
"374 374 OFFCURVE",
"374 342 CURVE SMOOTH",
"374 319 OFFCURVE",
"386 303 OFFCURVE",
"410 295 CURVE SMOOTH",
"492 269 LINE",
"490 249 LINE",
"492 230 LINE",
"424 212 LINE",
"391 199 OFFCURVE",
"374 181 OFFCURVE",
"374 158 CURVE",
"376 143 OFFCURVE",
"380 132 OFFCURVE",
"385 124 CURVE",
"393 115 OFFCURVE",
"405 110 OFFCURVE",
"422 110 CURVE SMOOTH",
"435 110 OFFCURVE",
"445 113 OFFCURVE",
"453 119 CURVE",
"495 159 LINE",
"502 170 OFFCURVE",
"509 177 OFFCURVE",
"516 182 CURVE",
"529 173 OFFCURVE",
"542 167 OFFCURVE",
"555 164 CURVE",
"538 111 LINE SMOOTH",
"533 95 OFFCURVE",
"530 82 OFFCURVE",
"530 71 CURVE SMOOTH",
"530 36 OFFCURVE",
"546 18 OFFCURVE",
"578 18 CURVE"
);
},
{
closed = 1;
nodes = (
"558 213 OFFCURVE",
"547 224 OFFCURVE",
"547 247 CURVE SMOOTH",
"547 272 OFFCURVE",
"558 285 OFFCURVE",
"581 285 CURVE SMOOTH",
"605 285 OFFCURVE",
"617 273 OFFCURVE",
"617 250 CURVE SMOOTH",
"617 225 OFFCURVE",
"605 213 OFFCURVE",
"581 213 CURVE SMOOTH"
);
}
);
userData = {
assembly = "NPUSHB[ ]	/* 55 values pushed */
1 77 77 64 78 0 75 71 56 41 19 5 69 66 65 64 54 52 47 43 17 14 10 7 5 4 5 6 11 42 41 41 42 61 0 5 36 28 73 6 33 31 32 59 7 2 24 2 7 38 50 12 1 28 70
SROUND[ ]	/* SuperRound */
MDAP[1]	/* MoveDirectAbsPt */
SHZ[1]	/* ShiftZoneByLastPoint */
RTG[ ]	/* RoundToGrid */
SVTCA[0]	/* SetFreedomAndProjectionVectorToAxis */
MDAP[1]	/* MoveDirectAbsPt */
MDAP[1]	/* MoveDirectAbsPt */
MDAP[1]	/* MoveDirectAbsPt */
MIRP[11101]	/* MoveIndirectRelPt */
ALIGNRP[ ]	/* AlignRelativePt */
SRP0[ ]	/* SetRefPoint0 */
MIRP[11101]	/* MoveIndirectRelPt */
SVTCA[1]	/* SetFreedomAndProjectionVectorToAxis */
MDAP[1]	/* MoveDirectAbsPt */
ALIGNRP[ ]	/* AlignRelativePt */
ALIGNRP[ ]	/* AlignRelativePt */
MIRP[11101]	/* MoveIndirectRelPt */
MDAP[1]	/* MoveDirectAbsPt */
ALIGNRP[ ]	/* AlignRelativePt */
MIRP[11101]	/* MoveIndirectRelPt */
ALIGNRP[ ]	/* AlignRelativePt */
SDPVTL[1]	/* SetDualPVectorToLine */
MDAP[0]	/* MoveDirectAbsPt */
SFVTPV[ ]	/* SetFVectorToPVector */
MDRP[00100]	/* MoveDirectRelPt */
SFVTPV[ ]	/* SetFVectorToPVector */
MIRP[11100]	/* MoveIndirectRelPt */
SFVTL[0]	/* SetFVectorToLine */
MDRP[00100]	/* MoveDirectRelPt */
SVTCA[1]	/* SetFreedomAndProjectionVectorToAxis */
MDAP[0]	/* MoveDirectAbsPt */
MDAP[0]	/* MoveDirectAbsPt */
MDAP[0]	/* MoveDirectAbsPt */
MDAP[0]	/* MoveDirectAbsPt */
MDAP[0]	/* MoveDirectAbsPt */
MDAP[0]	/* MoveDirectAbsPt */
MDAP[0]	/* MoveDirectAbsPt */
MDAP[0]	/* MoveDirectAbsPt */
MDAP[0]	/* MoveDirectAbsPt */
MDAP[0]	/* MoveDirectAbsPt */
MDAP[0]	/* MoveDirectAbsPt */
MDAP[0]	/* MoveDirectAbsPt */
SVTCA[0]	/* SetFreedomAndProjectionVectorToAxis */
MDAP[0]	/* MoveDirectAbsPt */
MDAP[0]	/* MoveDirectAbsPt */
MDAP[0]	/* MoveDirectAbsPt */
MDAP[0]	/* MoveDirectAbsPt */
MDAP[0]	/* MoveDirectAbsPt */
MDAP[0]	/* MoveDirectAbsPt */
IUP[1]	/* InterpolateUntPts */
IUP[0]	/* InterpolateUntPts */
SVTCA[1]	/* SetFreedomAndProjectionVectorToAxis */
MD[0]	/* MeasureDistance */
ROUND[00]	/* Round */
PUSHW[ ]	/* 2 values pushed */
28 77
MD[0]	/* MeasureDistance */
ROUND[00]	/* Round */
SUB[ ]	/* Subtract */
PUSHB[ ]	/* 1 value pushed */
64
GT[ ]	/* GreaterThan */
IF[ ]	/* If */
SHPIX[ ]	/* ShiftZoneByPixel */
SRP1[ ]	/* SetRefPoint1 */
SHZ[1]	/* ShiftZoneByLastPoint */
PUSHW[ ]	/* 2 values pushed */
77 -64
SHPIX[ ]	/* ShiftZoneByPixel */
EIF[ ]	/* EndIf */";
};
width = 960;
}
);
note = asterisk;
unicode = 002A;
},
{
glyphname = plus;
lastChange = "2025-02-10 17:38:38 +0000";
layers = (
{
background = {
paths = (
{
closed = 1;
nodes = (
"547 469 LINE",
"547 710 LINE",
"402 710 LINE",
"402 469 LINE",
"150 469 LINE",
"150 320 LINE",
"402 320 LINE",
"402 72 LINE",
"547 72 LINE",
"547 320 LINE",
"789 320 LINE",
"789 469 LINE"
);
}
);
};
layerId = m01;
paths = (
{
closed = 1;
nodes = (
"547 72 LINE",
"547 320 LINE",
"789 320 LINE",
"789 469 LINE",
"547 469 LINE",
"547 710 LINE",
"402 710 LINE",
"402 469 LINE",
"150 469 LINE",
"150 320 LINE",
"402 320 LINE",
"402 72 LINE"
);
}
);
userData = {
assembly = "NPUSHB[ ]	/* 43 values pushed */
1 12 12 64 13 0 11 0 18 1 6 5 18 3 8 7 4 3 3 6 10 9 2 3 1 5 4 1 3 0 8 11 10 7 3 6 9 8 3 2 1 5 70
SROUND[ ]	/* SuperRound */
MDAP[1]	/* MoveDirectAbsPt */
SHZ[1]	/* ShiftZoneByLastPoint */
RTG[ ]	/* RoundToGrid */
SVTCA[0]	/* SetFreedomAndProjectionVectorToAxis */
MDAP[1]	/* MoveDirectAbsPt */
ALIGNRP[ ]	/* AlignRelativePt */
MDAP[1]	/* MoveDirectAbsPt */
ALIGNRP[ ]	/* AlignRelativePt */
MDAP[1]	/* MoveDirectAbsPt */
SLOOP[ ]	/* SetLoopVariable */
ALIGNRP[ ]	/* AlignRelativePt */
MIRP[11101]	/* MoveIndirectRelPt */
SLOOP[ ]	/* SetLoopVariable */
ALIGNRP[ ]	/* AlignRelativePt */
SVTCA[1]	/* SetFreedomAndProjectionVectorToAxis */
MDAP[1]	/* MoveDirectAbsPt */
SLOOP[ ]	/* SetLoopVariable */
ALIGNRP[ ]	/* AlignRelativePt */
MIRP[11101]	/* MoveIndirectRelPt */
SLOOP[ ]	/* SetLoopVariable */
ALIGNRP[ ]	/* AlignRelativePt */
SRP0[ ]	/* SetRefPoint0 */
MIRP[11101]	/* MoveIndirectRelPt */
ALIGNRP[ ]	/* AlignRelativePt */
SRP0[ ]	/* SetRefPoint0 */
MIRP[11101]	/* MoveIndirectRelPt */
ALIGNRP[ ]	/* AlignRelativePt */
SVTCA[0]	/* SetFreedomAndProjectionVectorToAxis */
IUP[1]	/* InterpolateUntPts */
IUP[0]	/* InterpolateUntPts */
SVTCA[1]	/* SetFreedomAndProjectionVectorToAxis */
MD[0]	/* MeasureDistance */
ROUND[00]	/* Round */
PUSHW[ ]	/* 2 values pushed */
5 12
MD[0]	/* MeasureDistance */
ROUND[00]	/* Round */
SUB[ ]	/* Subtract */
PUSHB[ ]	/* 1 value pushed */
64
GT[ ]	/* GreaterThan */
IF[ ]	/* If */
SHPIX[ ]	/* ShiftZoneByPixel */
SRP1[ ]	/* SetRefPoint1 */
SHZ[1]	/* ShiftZoneByLastPoint */
PUSHW[ ]	/* 2 values pushed */
12 -64
SHPIX[ ]	/* ShiftZoneByPixel */
EIF[ ]	/* EndIf */";
};
width = 911;
}
);
note = plus;
unicode = 002B;
},
{
glyphname = comma;
lastChange = "2025-02-10 17:38:38 +0000";
layers = (
{
background = {
paths = (
{
closed = 1;
nodes = (
"164 348 QCURVE SMOOTH",
"135 348 OFFCURVE",
"94 305 OFFCURVE",
"94 276 QCURVE SMOOTH",
"94 217 OFFCURVE",
"147 203 QCURVE",
"147 153 OFFCURVE",
"87 124 QCURVE",
"106 112 OFFCURVE",
"106 28 QCURVE",
"238 130 OFFCURVE",
"238 261 QCURVE SMOOTH",
"238 348 OFFCURVE"
);
}
);
};
layerId = m01;
paths = (
{
closed = 1;
nodes = (
"194 96 OFFCURVE",
"238 174 OFFCURVE",
"238 261 CURVE SMOOTH",
"238 319 OFFCURVE",
"213 348 OFFCURVE",
"164 348 CURVE SMOOTH",
"125 348 OFFCURVE",
"94 315 OFFCURVE",
"94 276 CURVE SMOOTH",
"94 237 OFFCURVE",
"112 212 OFFCURVE",
"147 203 CURVE",
"147 170 OFFCURVE",
"127 143 OFFCURVE",
"87 124 CURVE",
"100 116 OFFCURVE",
"106 84 OFFCURVE",
"106 28 CURVE"
);
}
);
userData = {
assembly = "NPUSHB[ ]	/* 16 values pushed */
1 13 13 64 14 0 6 4 8 6 0 11 2 1 4 70
SROUND[ ]	/* SuperRound */
MDAP[1]	/* MoveDirectAbsPt */
SHZ[1]	/* ShiftZoneByLastPoint */
RTG[ ]	/* RoundToGrid */
SVTCA[0]	/* SetFreedomAndProjectionVectorToAxis */
MDAP[1]	/* MoveDirectAbsPt */
MDAP[1]	/* MoveDirectAbsPt */
SVTCA[1]	/* SetFreedomAndProjectionVectorToAxis */
MDAP[1]	/* MoveDirectAbsPt */
MIRP[11101]	/* MoveIndirectRelPt */
MDAP[0]	/* MoveDirectAbsPt */
MDAP[0]	/* MoveDirectAbsPt */
SVTCA[0]	/* SetFreedomAndProjectionVectorToAxis */
IUP[1]	/* InterpolateUntPts */
IUP[0]	/* InterpolateUntPts */
SVTCA[1]	/* SetFreedomAndProjectionVectorToAxis */
MD[0]	/* MeasureDistance */
ROUND[00]	/* Round */
PUSHW[ ]	/* 2 values pushed */
4 13
MD[0]	/* MeasureDistance */
ROUND[00]	/* Round */
SUB[ ]	/* Subtract */
PUSHB[ ]	/* 1 value pushed */
64
GT[ ]	/* GreaterThan */
IF[ ]	/* If */
SHPIX[ ]	/* ShiftZoneByPixel */
SRP1[ ]	/* SetRefPoint1 */
SHZ[1]	/* ShiftZoneByLastPoint */
PUSHW[ ]	/* 2 values pushed */
13 -64
SHPIX[ ]	/* ShiftZoneByPixel */
EIF[ ]	/* EndIf */";
};
width = 301;
}
);
note = comma;
unicode = 002C;
},
{
glyphname = hyphen;
lastChange = "2025-02-10 17:38:38 +0000";
layers = (
{
background = {
paths = (
{
closed = 1;
nodes = (
"223 469 LINE",
"223 322 LINE",
"705 322 LINE",
"705 469 LINE"
);
}
);
};
layerId = m01;
paths = (
{
closed = 1;
nodes = (
"705 322 LINE",
"705 469 LINE",
"223 469 LINE",
"223 322 LINE"
);
}
);
userData = {
assembly = "NPUSHB[ ]	/* 18 values pushed */
1 4 4 64 5 0 2 1 5 3 0 3 2 1 0 1 1 70
SROUND[ ]	/* SuperRound */
MDAP[1]	/* MoveDirectAbsPt */
SHZ[1]	/* ShiftZoneByLastPoint */
RTG[ ]	/* RoundToGrid */
SVTCA[0]	/* SetFreedomAndProjectionVectorToAxis */
MDAP[1]	/* MoveDirectAbsPt */
ALIGNRP[ ]	/* AlignRelativePt */
MDAP[1]	/* MoveDirectAbsPt */
ALIGNRP[ ]	/* AlignRelativePt */
SVTCA[1]	/* SetFreedomAndProjectionVectorToAxis */
MDAP[1]	/* MoveDirectAbsPt */
ALIGNRP[ ]	/* AlignRelativePt */
MIRP[11101]	/* MoveIndirectRelPt */
ALIGNRP[ ]	/* AlignRelativePt */
SVTCA[0]	/* SetFreedomAndProjectionVectorToAxis */
IUP[1]	/* InterpolateUntPts */
IUP[0]	/* InterpolateUntPts */
SVTCA[1]	/* SetFreedomAndProjectionVectorToAxis */
MD[0]	/* MeasureDistance */
ROUND[00]	/* Round */
PUSHW[ ]	/* 2 values pushed */
1 4
MD[0]	/* MeasureDistance */
ROUND[00]	/* Round */
SUB[ ]	/* Subtract */
PUSHB[ ]	/* 1 value pushed */
64
GT[ ]	/* GreaterThan */
IF[ ]	/* If */
SHPIX[ ]	/* ShiftZoneByPixel */
SRP1[ ]	/* SetRefPoint1 */
SHZ[1]	/* ShiftZoneByLastPoint */
PUSHW[ ]	/* 2 values pushed */
4 -64
SHPIX[ ]	/* ShiftZoneByPixel */
EIF[ ]	/* EndIf */";
};
width = 884;
}
);
note = hyphen;
unicode = 2010;
},
{
glyphname = period;
lastChange = "2025-02-10 17:38:38 +0000";
layers = (
{
background = {
paths = (
{
closed = 1;
nodes = (
"61 204 LINE",
"61 9 LINE",
"256 9 LINE",
"256 204 LINE"
);
}
);
};
layerId = m01;
paths = (
{
closed = 1;
nodes = (
"256 9 LINE",
"256 204 LINE",
"61 204 LINE",
"61 9 LINE"
);
}
);
userData = {
assembly = "NPUSHB[ ]	/* 18 values pushed */
1 4 4 64 5 0 3 0 5 2 1 3 2 1 0 1 1 70
SROUND[ ]	/* SuperRound */
MDAP[1]	/* MoveDirectAbsPt */
SHZ[1]	/* ShiftZoneByLastPoint */
RTG[ ]	/* RoundToGrid */
SVTCA[0]	/* SetFreedomAndProjectionVectorToAxis */
MDAP[1]	/* MoveDirectAbsPt */
ALIGNRP[ ]	/* AlignRelativePt */
MDAP[1]	/* MoveDirectAbsPt */
ALIGNRP[ ]	/* AlignRelativePt */
SVTCA[1]	/* SetFreedomAndProjectionVectorToAxis */
MDAP[1]	/* MoveDirectAbsPt */
ALIGNRP[ ]	/* AlignRelativePt */
MIRP[11101]	/* MoveIndirectRelPt */
ALIGNRP[ ]	/* AlignRelativePt */
SVTCA[0]	/* SetFreedomAndProjectionVectorToAxis */
IUP[1]	/* InterpolateUntPts */
IUP[0]	/* InterpolateUntPts */
SVTCA[1]	/* SetFreedomAndProjectionVectorToAxis */
MD[0]	/* MeasureDistance */
ROUND[00]	/* Round */
PUSHW[ ]	/* 2 values pushed */
1 4
MD[0]	/* MeasureDistance */
ROUND[00]	/* Round */
SUB[ ]	/* Subtract */
PUSHB[ ]	/* 1 value pushed */
64
GT[ ]	/* GreaterThan */
IF[ ]	/* If */
SHPIX[ ]	/* ShiftZoneByPixel */
SRP1[ ]	/* SetRefPoint1 */
SHZ[1]	/* ShiftZoneByLastPoint */
PUSHW[ ]	/* 2 values pushed */
4 -64
SHPIX[ ]	/* ShiftZoneByPixel */
EIF[ ]	/* EndIf */";
};
width = 404;
}
);
note = period;
unicode = 002E;
},
{
glyphname = slash;
lastChange = "2025-02-10 17:38:38 +0000";
layers = (
{
background = {
paths = (
{
closed = 1;
nodes = (
"176 53 LINE",
"293 53 LINE",
"502 912 LINE",
"382 912 LINE"
);
}
);
};
layerId = m01;
paths = (
{
closed = 1;
nodes = (
"293 53 LINE",
"502 912 LINE",
"382 912 LINE",
"176 53 LINE"
);
}
);
userData = {
assembly = "NPUSHB[ ]	/* 28 values pushed */
1 4 4 64 5 0 2 0 0 3 0 1 10 1 2 3 3 0 2 2 3 3 0 2 1 1 2 70
SROUND[ ]	/* SuperRound */
MDAP[1]	/* MoveDirectAbsPt */
SHZ[1]	/* ShiftZoneByLastPoint */
RTG[ ]	/* RoundToGrid */
SVTCA[0]	/* SetFreedomAndProjectionVectorToAxis */
MDAP[1]	/* MoveDirectAbsPt */
ALIGNRP[ ]	/* AlignRelativePt */
MDAP[1]	/* MoveDirectAbsPt */
ALIGNRP[ ]	/* AlignRelativePt */
SVTCA[1]	/* SetFreedomAndProjectionVectorToAxis */
SDPVTL[1]	/* SetDualPVectorToLine */
MDAP[0]	/* MoveDirectAbsPt */
SFVTL[0]	/* SetFVectorToLine */
MDRP[00100]	/* MoveDirectRelPt */
SFVTL[0]	/* SetFVectorToLine */
MIRP[11100]	/* MoveIndirectRelPt */
SFVTL[0]	/* SetFVectorToLine */
MDRP[00100]	/* MoveDirectRelPt */
SVTCA[1]	/* SetFreedomAndProjectionVectorToAxis */
MDAP[0]	/* MoveDirectAbsPt */
MDAP[0]	/* MoveDirectAbsPt */
SVTCA[0]	/* SetFreedomAndProjectionVectorToAxis */
IUP[1]	/* InterpolateUntPts */
IUP[0]	/* InterpolateUntPts */
SVTCA[1]	/* SetFreedomAndProjectionVectorToAxis */
MD[0]	/* MeasureDistance */
ROUND[00]	/* Round */
PUSHW[ ]	/* 2 values pushed */
2 4
MD[0]	/* MeasureDistance */
ROUND[00]	/* Round */
SUB[ ]	/* Subtract */
PUSHB[ ]	/* 1 value pushed */
64
GT[ ]	/* GreaterThan */
IF[ ]	/* If */
SHPIX[ ]	/* ShiftZoneByPixel */
SRP1[ ]	/* SetRefPoint1 */
SHZ[1]	/* ShiftZoneByLastPoint */
PUSHW[ ]	/* 2 values pushed */
4 -64
SHPIX[ ]	/* ShiftZoneByPixel */
EIF[ ]	/* EndIf */";
};
width = 604;
}
);
note = slash;
unicode = 002F;
},
{
glyphname = zero;
lastChange = "2025-02-10 17:38:38 +0000";
layers = (
{
background = {
paths = (
{
closed = 1;
nodes = (
"451 897 QCURVE SMOOTH",
"181 897 OFFCURVE",
"181 474 QCURVE SMOOTH",
"181 48 OFFCURVE",
"451 48 QCURVE SMOOTH",
"721 48 OFFCURVE",
"721 472 QCURVE SMOOTH",
"721 897 OFFCURVE"
);
},
{
closed = 1;
nodes = (
"538 264 QCURVE SMOOTH",
"516 180 OFFCURVE",
"451 180 QCURVE SMOOTH",
"422 180 OFFCURVE",
"400 198 QCURVE SMOOTH",
"348 240 OFFCURVE",
"348 472 QCURVE SMOOTH",
"348 618 OFFCURVE",
"364 680 QCURVE SMOOTH",
"387 764 OFFCURVE",
"451 764 QCURVE SMOOTH",
"480 764 OFFCURVE",
"503 746 QCURVE SMOOTH",
"554 703 OFFCURVE",
"554 472 QCURVE SMOOTH",
"554 326 OFFCURVE"
);
}
);
};
layerId = m01;
paths = (
{
closed = 1;
nodes = (
"631 48 OFFCURVE",
"721 189 OFFCURVE",
"721 472 CURVE SMOOTH",
"721 755 OFFCURVE",
"631 897 OFFCURVE",
"451 897 CURVE SMOOTH",
"271 897 OFFCURVE",
"181 756 OFFCURVE",
"181 474 CURVE SMOOTH",
"181 190 OFFCURVE",
"271 48 OFFCURVE",
"451 48 CURVE SMOOTH"
);
},
{
closed = 1;
nodes = (
"432 180 OFFCURVE",
"415 186 OFFCURVE",
"400 198 CURVE SMOOTH",
"365 226 OFFCURVE",
"348 317 OFFCURVE",
"348 472 CURVE SMOOTH",
"348 569 OFFCURVE",
"353 639 OFFCURVE",
"364 680 CURVE SMOOTH",
"379 736 OFFCURVE",
"408 764 OFFCURVE",
"451 764 CURVE SMOOTH",
"470 764 OFFCURVE",
"488 758 OFFCURVE",
"503 746 CURVE SMOOTH",
"537 717 OFFCURVE",
"554 626 OFFCURVE",
"554 472 CURVE SMOOTH",
"554 375 OFFCURVE",
"549 305 OFFCURVE",
"538 264 CURVE SMOOTH",
"523 208 OFFCURVE",
"494 180 OFFCURVE",
"451 180 CURVE SMOOTH"
);
}
);
userData = {
assembly = "NPUSHB[ ]	/* 23 values pushed */
1 24 24 64 25 0 16 5 4 8 5 0 20 8 2 12 8 6 6 2 1 4 70
SROUND[ ]	/* SuperRound */
MDAP[1]	/* MoveDirectAbsPt */
SHZ[1]	/* ShiftZoneByLastPoint */
RTG[ ]	/* RoundToGrid */
SVTCA[0]	/* SetFreedomAndProjectionVectorToAxis */
MDAP[1]	/* MoveDirectAbsPt */
MDAP[1]	/* MoveDirectAbsPt */
SRP0[ ]	/* SetRefPoint0 */
MIRP[11101]	/* MoveIndirectRelPt */
SRP0[ ]	/* SetRefPoint0 */
MIRP[11101]	/* MoveIndirectRelPt */
SVTCA[1]	/* SetFreedomAndProjectionVectorToAxis */
MDAP[1]	/* MoveDirectAbsPt */
MIRP[11101]	/* MoveIndirectRelPt */
MDAP[1]	/* MoveDirectAbsPt */
MIRP[11101]	/* MoveIndirectRelPt */
SVTCA[0]	/* SetFreedomAndProjectionVectorToAxis */
IUP[1]	/* InterpolateUntPts */
IUP[0]	/* InterpolateUntPts */
SVTCA[1]	/* SetFreedomAndProjectionVectorToAxis */
MD[0]	/* MeasureDistance */
ROUND[00]	/* Round */
PUSHW[ ]	/* 2 values pushed */
4 24
MD[0]	/* MeasureDistance */
ROUND[00]	/* Round */
SUB[ ]	/* Subtract */
PUSHB[ ]	/* 1 value pushed */
64
GT[ ]	/* GreaterThan */
IF[ ]	/* If */
SHPIX[ ]	/* ShiftZoneByPixel */
SRP1[ ]	/* SetRefPoint1 */
SHZ[1]	/* ShiftZoneByLastPoint */
PUSHW[ ]	/* 2 values pushed */
24 -64
SHPIX[ ]	/* ShiftZoneByPixel */
EIF[ ]	/* EndIf */";
};
width = 872;
}
);
note = zero;
unicode = 0030;
},
{
glyphname = one;
lastChange = "2025-02-10 17:38:38 +0000";
layers = (
{
background = {
paths = (
{
closed = 1;
nodes = (
"409 882 LINE",
"385 813 OFFCURVE",
"314 752 QCURVE SMOOTH",
"248 696 OFFCURVE",
"174 671 QCURVE",
"174 527 LINE",
"292 566 OFFCURVE",
"379 647 QCURVE",
"379 47 LINE",
"539 47 LINE",
"539 882 LINE"
);
}
);
};
layerId = m01;
paths = (
{
closed = 1;
nodes = (
"539 47 LINE",
"539 882 LINE",
"409 882 LINE",
"393 836 OFFCURVE",
"361 793 OFFCURVE",
"314 752 CURVE SMOOTH",
"270 715 OFFCURVE",
"223 688 OFFCURVE",
"174 671 CURVE",
"174 527 LINE",
"253 553 OFFCURVE",
"321 593 OFFCURVE",
"379 647 CURVE",
"379 47 LINE"
);
}
);
userData = {
assembly = "NPUSHB[ ]	/* 24 values pushed */
1 11 11 64 12 0 4 2 5 4 5 0 2 1 5 10 0 10 9 1 0 1 4 70
SROUND[ ]	/* SuperRound */
MDAP[1]	/* MoveDirectAbsPt */
SHZ[1]	/* ShiftZoneByLastPoint */
RTG[ ]	/* RoundToGrid */
SVTCA[0]	/* SetFreedomAndProjectionVectorToAxis */
MDAP[1]	/* MoveDirectAbsPt */
ALIGNRP[ ]	/* AlignRelativePt */
MDAP[1]	/* MoveDirectAbsPt */
ALIGNRP[ ]	/* AlignRelativePt */
SVTCA[1]	/* SetFreedomAndProjectionVectorToAxis */
MDAP[1]	/* MoveDirectAbsPt */
ALIGNRP[ ]	/* AlignRelativePt */
MIRP[11101]	/* MoveIndirectRelPt */
ALIGNRP[ ]	/* AlignRelativePt */
SRP0[ ]	/* SetRefPoint0 */
MIRP[11101]	/* MoveIndirectRelPt */
ALIGNRP[ ]	/* AlignRelativePt */
SVTCA[0]	/* SetFreedomAndProjectionVectorToAxis */
MDAP[0]	/* MoveDirectAbsPt */
MDAP[0]	/* MoveDirectAbsPt */
IUP[1]	/* InterpolateUntPts */
IUP[0]	/* InterpolateUntPts */
SVTCA[1]	/* SetFreedomAndProjectionVectorToAxis */
MD[0]	/* MeasureDistance */
ROUND[00]	/* Round */
PUSHW[ ]	/* 2 values pushed */
4 11
MD[0]	/* MeasureDistance */
ROUND[00]	/* Round */
SUB[ ]	/* Subtract */
PUSHB[ ]	/* 1 value pushed */
64
GT[ ]	/* GreaterThan */
IF[ ]	/* If */
SHPIX[ ]	/* ShiftZoneByPixel */
SRP1[ ]	/* SetRefPoint1 */
SHZ[1]	/* ShiftZoneByLastPoint */
PUSHW[ ]	/* 2 values pushed */
11 -64
SHPIX[ ]	/* ShiftZoneByPixel */
EIF[ ]	/* EndIf */";
};
width = 734;
}
);
note = one;
unicode = 0031;
},
{
glyphname = two;
lastChange = "2025-02-10 17:38:38 +0000";
layers = (
{
background = {
paths = (
{
closed = 1;
nodes = (
"421 194 LINE",
"434 216 OFFCURVE",
"454 238 QCURVE SMOOTH",
"481 269 OFFCURVE",
"555 336 QCURVE SMOOTH",
"622 396 OFFCURVE",
"654 436 QCURVE SMOOTH",
"738 543 OFFCURVE",
"738 649 QCURVE SMOOTH",
"738 759 OFFCURVE",
"659 822 QCURVE SMOOTH",
"586 881 OFFCURVE",
"474 881 QCURVE SMOOTH",
"224 881 OFFCURVE",
"198 635 QCURVE",
"357 619 LINE",
"365 749 OFFCURVE",
"470 749 QCURVE SMOOTH",
"578 749 OFFCURVE",
"578 638 QCURVE SMOOTH",
"578 589 OFFCURVE",
"545 541 QCURVE SMOOTH",
"521 505 OFFCURVE",
"306 305 OFFCURVE",
"262 246 QCURVE SMOOTH",
"190 150 OFFCURVE",
"179 46 QCURVE",
"738 46 LINE",
"738 194 LINE"
);
}
);
};
layerId = m01;
paths = (
{
closed = 1;
nodes = (
"738 46 LINE",
"738 194 LINE",
"421 194 LINE",
"430 209 OFFCURVE",
"441 223 OFFCURVE",
"454 238 CURVE SMOOTH",
"472 259 OFFCURVE",
"506 291 OFFCURVE",
"555 336 CURVE SMOOTH",
"600 376 OFFCURVE",
"633 409 OFFCURVE",
"654 436 CURVE SMOOTH",
"710 507 OFFCURVE",
"738 578 OFFCURVE",
"738 649 CURVE SMOOTH",
"738 722 OFFCURVE",
"712 780 OFFCURVE",
"659 822 CURVE SMOOTH",
"610 861 OFFCURVE",
"549 881 OFFCURVE",
"474 881 CURVE SMOOTH",
"307 881 OFFCURVE",
"215 799 OFFCURVE",
"198 635 CURVE",
"357 619 LINE",
"362 706 OFFCURVE",
"400 749 OFFCURVE",
"470 749 CURVE SMOOTH",
"542 749 OFFCURVE",
"578 712 OFFCURVE",
"578 638 CURVE SMOOTH",
"578 605 OFFCURVE",
"567 573 OFFCURVE",
"545 541 CURVE SMOOTH",
"529 517 OFFCURVE",
"485 472 OFFCURVE",
"414 405 CURVE SMOOTH",
"342 338 OFFCURVE",
"291 285 OFFCURVE",
"262 246 CURVE SMOOTH",
"214 182 OFFCURVE",
"186 115 OFFCURVE",
"179 46 CURVE"
);
}
);
userData = {
assembly = "NPUSHB[ ]	/* 28 values pushed */
1 29 29 64 30 0 12 27 13 1 8 5 28 19 0 28 27 8 0 10 8 15 15 1 0 1 1 70
SROUND[ ]	/* SuperRound */
MDAP[1]	/* MoveDirectAbsPt */
SHZ[1]	/* ShiftZoneByLastPoint */
RTG[ ]	/* RoundToGrid */
SVTCA[0]	/* SetFreedomAndProjectionVectorToAxis */
MDAP[1]	/* MoveDirectAbsPt */
ALIGNRP[ ]	/* AlignRelativePt */
MDAP[1]	/* MoveDirectAbsPt */
SRP0[ ]	/* SetRefPoint0 */
MIRP[11101]	/* MoveIndirectRelPt */
SRP0[ ]	/* SetRefPoint0 */
MIRP[11101]	/* MoveIndirectRelPt */
ALIGNRP[ ]	/* AlignRelativePt */
SVTCA[1]	/* SetFreedomAndProjectionVectorToAxis */
MDAP[1]	/* MoveDirectAbsPt */
ALIGNRP[ ]	/* AlignRelativePt */
ALIGNRP[ ]	/* AlignRelativePt */
MIRP[11101]	/* MoveIndirectRelPt */
MDAP[0]	/* MoveDirectAbsPt */
MDAP[0]	/* MoveDirectAbsPt */
MDAP[0]	/* MoveDirectAbsPt */
SVTCA[0]	/* SetFreedomAndProjectionVectorToAxis */
MDAP[0]	/* MoveDirectAbsPt */
IUP[1]	/* InterpolateUntPts */
IUP[0]	/* InterpolateUntPts */
SVTCA[1]	/* SetFreedomAndProjectionVectorToAxis */
MD[0]	/* MeasureDistance */
ROUND[00]	/* Round */
PUSHW[ ]	/* 2 values pushed */
1 29
MD[0]	/* MeasureDistance */
ROUND[00]	/* Round */
SUB[ ]	/* Subtract */
PUSHB[ ]	/* 1 value pushed */
64
GT[ ]	/* GreaterThan */
IF[ ]	/* If */
SHPIX[ ]	/* ShiftZoneByPixel */
SRP1[ ]	/* SetRefPoint1 */
SHZ[1]	/* ShiftZoneByLastPoint */
PUSHW[ ]	/* 2 values pushed */
29 -64
SHPIX[ ]	/* ShiftZoneByPixel */
EIF[ ]	/* EndIf */";
};
width = 886;
}
);
note = two;
unicode = 0032;
},
{
glyphname = three;
lastChange = "2025-02-10 17:38:38 +0000";
layers = (
{
background = {
paths = (
{
closed = 1;
nodes = (
"664 498 OFFCURVE",
"591 514 QCURVE",
"711 579 OFFCURVE",
"711 689 QCURVE SMOOTH",
"711 766 OFFCURVE",
"652 827 QCURVE SMOOTH",
"581 902 OFFCURVE",
"464 902 QCURVE SMOOTH",
"395 902 OFFCURVE",
"340 876 QCURVE SMOOTH",
"237 828 OFFCURVE",
"208 685 QCURVE",
"354 660 LINE",
"367 771 OFFCURVE",
"459 771 QCURVE SMOOTH",
"551 771 OFFCURVE",
"551 679 QCURVE SMOOTH",
"551 568 OFFCURVE",
"418 572 QCURVE",
"400 442 LINE",
"443 454 OFFCURVE",
"474 454 QCURVE SMOOTH",
"526 454 OFFCURVE",
"557 414 QCURVE SMOOTH",
"585 377 OFFCURVE",
"585 324 QCURVE SMOOTH",
"585 267 OFFCURVE",
"555 228 QCURVE SMOOTH",
"523 185 OFFCURVE",
"468 185 QCURVE SMOOTH",
"365 185 OFFCURVE",
"350 307 QCURVE",
"196 288 LINE",
"208 180 OFFCURVE",
"359 53 OFFCURVE",
"469 53 QCURVE SMOOTH",
"584 53 OFFCURVE",
"748 202 OFFCURVE",
"748 317 QCURVE SMOOTH",
"748 391 OFFCURVE"
);
}
);
};
layerId = m01;
paths = (
{
closed = 1;
nodes = (
"622 53 OFFCURVE",
"748 164 OFFCURVE",
"748 317 CURVE SMOOTH",
"748 416 OFFCURVE",
"688 493 OFFCURVE",
"591 514 CURVE",
"671 557 OFFCURVE",
"711 616 OFFCURVE",
"711 689 CURVE SMOOTH",
"711 740 OFFCURVE",
"691 786 OFFCURVE",
"652 827 CURVE SMOOTH",
"605 877 OFFCURVE",
"542 902 OFFCURVE",
"464 902 CURVE SMOOTH",
"418 902 OFFCURVE",
"377 893 OFFCURVE",
"340 876 CURVE SMOOTH",
"271 844 OFFCURVE",
"227 780 OFFCURVE",
"208 685 CURVE",
"354 660 LINE",
"363 734 OFFCURVE",
"398 771 OFFCURVE",
"459 771 CURVE SMOOTH",
"520 771 OFFCURVE",
"551 740 OFFCURVE",
"551 679 CURVE SMOOTH",
"551 605 OFFCURVE",
"507 569 OFFCURVE",
"418 572 CURVE",
"400 442 LINE",
"429 450 OFFCURVE",
"453 454 OFFCURVE",
"474 454 CURVE SMOOTH",
"509 454 OFFCURVE",
"536 441 OFFCURVE",
"557 414 CURVE SMOOTH",
"576 389 OFFCURVE",
"585 359 OFFCURVE",
"585 324 CURVE SMOOTH",
"585 286 OFFCURVE",
"575 254 OFFCURVE",
"555 228 CURVE SMOOTH",
"534 199 OFFCURVE",
"505 185 OFFCURVE",
"468 185 CURVE SMOOTH",
"399 185 OFFCURVE",
"360 226 OFFCURVE",
"350 307 CURVE",
"196 288 LINE",
"212 144 OFFCURVE",
"322 53 OFFCURVE",
"469 53 CURVE SMOOTH"
);
}
);
userData = {
assembly = "NPUSHB[ ]	/* 36 values pushed */
1 40 40 64 41 0 26 19 7 37 27 19 6 13 5 0 22 5 35 17 7 31 20 7 3 9 8 3 24 8 31 31 3 1 6 70
SROUND[ ]	/* SuperRound */
MDAP[1]	/* MoveDirectAbsPt */
SHZ[1]	/* ShiftZoneByLastPoint */
RTG[ ]	/* RoundToGrid */
SVTCA[0]	/* SetFreedomAndProjectionVectorToAxis */
MDAP[1]	/* MoveDirectAbsPt */
MDAP[1]	/* MoveDirectAbsPt */
SRP0[ ]	/* SetRefPoint0 */
MIRP[11101]	/* MoveIndirectRelPt */
SRP0[ ]	/* SetRefPoint0 */
MIRP[11101]	/* MoveIndirectRelPt */
SRP0[ ]	/* SetRefPoint0 */
MIRP[11101]	/* MoveIndirectRelPt */
SRP0[ ]	/* SetRefPoint0 */
MIRP[11101]	/* MoveIndirectRelPt */
SVTCA[1]	/* SetFreedomAndProjectionVectorToAxis */
MDAP[1]	/* MoveDirectAbsPt */
MIRP[11101]	/* MoveIndirectRelPt */
MDAP[1]	/* MoveDirectAbsPt */
MIRP[11101]	/* MoveIndirectRelPt */
MDAP[0]	/* MoveDirectAbsPt */
MDAP[0]	/* MoveDirectAbsPt */
MDAP[0]	/* MoveDirectAbsPt */
MDAP[0]	/* MoveDirectAbsPt */
SVTCA[0]	/* SetFreedomAndProjectionVectorToAxis */
MDAP[0]	/* MoveDirectAbsPt */
MDAP[0]	/* MoveDirectAbsPt */
MDAP[0]	/* MoveDirectAbsPt */
IUP[1]	/* InterpolateUntPts */
IUP[0]	/* InterpolateUntPts */
SVTCA[1]	/* SetFreedomAndProjectionVectorToAxis */
MD[0]	/* MeasureDistance */
ROUND[00]	/* Round */
PUSHW[ ]	/* 2 values pushed */
6 40
MD[0]	/* MeasureDistance */
ROUND[00]	/* Round */
SUB[ ]	/* Subtract */
PUSHB[ ]	/* 1 value pushed */
64
GT[ ]	/* GreaterThan */
IF[ ]	/* If */
SHPIX[ ]	/* ShiftZoneByPixel */
SRP1[ ]	/* SetRefPoint1 */
SHZ[1]	/* ShiftZoneByLastPoint */
PUSHW[ ]	/* 2 values pushed */
40 -64
SHPIX[ ]	/* ShiftZoneByPixel */
EIF[ ]	/* EndIf */";
};
width = 891;
}
);
note = three;
unicode = 0033;
},
{
glyphname = four;
lastChange = "2025-02-10 17:38:38 +0000";
layers = (
{
background = {
paths = (
{
closed = 1;
nodes = (
"680 353 LINE",
"680 881 LINE",
"546 881 LINE",
"185 353 LINE",
"185 213 LINE",
"526 213 LINE",
"526 46 LINE",
"680 46 LINE",
"680 213 LINE",
"783 213 LINE",
"783 353 LINE"
);
},
{
closed = 1;
nodes = (
"526 637 LINE",
"526 353 LINE",
"335 353 LINE"
);
}
);
};
layerId = m01;
paths = (
{
closed = 1;
nodes = (
"680 46 LINE",
"680 213 LINE",
"783 213 LINE",
"783 353 LINE",
"680 353 LINE",
"680 881 LINE",
"546 881 LINE",
"185 353 LINE",
"185 213 LINE",
"526 213 LINE",
"526 46 LINE"
);
},
{
closed = 1;
nodes = (
"526 637 LINE",
"526 353 LINE",
"335 353 LINE"
);
}
);
userData = {
assembly = "NPUSHB[ ]	/* 56 values pushed */
1 14 14 64 15 0 13 12 13 12 11 12 13 10 13 11 7 7 8 6 6 7 10 0 5 6 5 12 11 4 3 3 5 9 8 2 3 1 11 10 9 3 6 8 5 4 1 3 0 8 7 3 2 1 5 70
SROUND[ ]	/* SuperRound */
MDAP[1]	/* MoveDirectAbsPt */
SHZ[1]	/* ShiftZoneByLastPoint */
RTG[ ]	/* RoundToGrid */
SVTCA[0]	/* SetFreedomAndProjectionVectorToAxis */
MDAP[1]	/* MoveDirectAbsPt */
ALIGNRP[ ]	/* AlignRelativePt */
MDAP[1]	/* MoveDirectAbsPt */
ALIGNRP[ ]	/* AlignRelativePt */
MDAP[1]	/* MoveDirectAbsPt */
SLOOP[ ]	/* SetLoopVariable */
ALIGNRP[ ]	/* AlignRelativePt */
MIRP[11101]	/* MoveIndirectRelPt */
SLOOP[ ]	/* SetLoopVariable */
ALIGNRP[ ]	/* AlignRelativePt */
SVTCA[1]	/* SetFreedomAndProjectionVectorToAxis */
MDAP[1]	/* MoveDirectAbsPt */
SLOOP[ ]	/* SetLoopVariable */
ALIGNRP[ ]	/* AlignRelativePt */
MIRP[11101]	/* MoveIndirectRelPt */
SLOOP[ ]	/* SetLoopVariable */
ALIGNRP[ ]	/* AlignRelativePt */
MDAP[1]	/* MoveDirectAbsPt */
ALIGNRP[ ]	/* AlignRelativePt */
MIRP[11101]	/* MoveIndirectRelPt */
ALIGNRP[ ]	/* AlignRelativePt */
SDPVTL[1]	/* SetDualPVectorToLine */
MDAP[0]	/* MoveDirectAbsPt */
SFVTL[0]	/* SetFVectorToLine */
MDRP[00100]	/* MoveDirectRelPt */
SFVTL[0]	/* SetFVectorToLine */
MIRP[11100]	/* MoveIndirectRelPt */
SFVTL[0]	/* SetFVectorToLine */
MDRP[00100]	/* MoveDirectRelPt */
SVTCA[1]	/* SetFreedomAndProjectionVectorToAxis */
MDAP[0]	/* MoveDirectAbsPt */
SVTCA[0]	/* SetFreedomAndProjectionVectorToAxis */
MDAP[0]	/* MoveDirectAbsPt */
MDAP[0]	/* MoveDirectAbsPt */
IUP[1]	/* InterpolateUntPts */
IUP[0]	/* InterpolateUntPts */
SVTCA[1]	/* SetFreedomAndProjectionVectorToAxis */
MD[0]	/* MeasureDistance */
ROUND[00]	/* Round */
PUSHW[ ]	/* 2 values pushed */
5 14
MD[0]	/* MeasureDistance */
ROUND[00]	/* Round */
SUB[ ]	/* Subtract */
PUSHB[ ]	/* 1 value pushed */
64
GT[ ]	/* GreaterThan */
IF[ ]	/* If */
SHPIX[ ]	/* ShiftZoneByPixel */
SRP1[ ]	/* SetRefPoint1 */
SHZ[1]	/* ShiftZoneByLastPoint */
PUSHW[ ]	/* 2 values pushed */
14 -64
SHPIX[ ]	/* ShiftZoneByPixel */
EIF[ ]	/* EndIf */";
};
width = 892;
}
);
note = four;
unicode = 0034;
},
{
glyphname = five;
lastChange = "2025-02-10 17:38:38 +0000";
layers = (
{
background = {
paths = (
{
closed = 1;
nodes = (
"680 527 QCURVE SMOOTH",
"608 610 OFFCURVE",
"494 610 QCURVE SMOOTH",
"439 610 OFFCURVE",
"386 583 QCURVE",
"411 725 LINE",
"711 725 LINE",
"711 874 LINE",
"290 874 LINE",
"208 441 LINE",
"337 422 LINE",
"392 483 OFFCURVE",
"460 483 QCURVE SMOOTH",
"584 483 OFFCURVE",
"584 330 QCURVE SMOOTH",
"584 167 OFFCURVE",
"465 167 QCURVE SMOOTH",
"362 167 OFFCURVE",
"348 284 QCURVE",
"189 268 LINE",
"204 159 OFFCURVE",
"352 40 OFFCURVE",
"463 40 QCURVE SMOOTH",
"607 40 OFFCURVE",
"688 150 QCURVE SMOOTH",
"748 230 OFFCURVE",
"748 333 QCURVE SMOOTH",
"748 448 OFFCURVE"
);
}
);
};
layerId = m01;
paths = (
{
closed = 1;
nodes = (
"559 40 OFFCURVE",
"634 77 OFFCURVE",
"688 150 CURVE SMOOTH",
"728 203 OFFCURVE",
"748 264 OFFCURVE",
"748 333 CURVE SMOOTH",
"748 410 OFFCURVE",
"725 474 OFFCURVE",
"680 527 CURVE SMOOTH",
"632 582 OFFCURVE",
"570 610 OFFCURVE",
"494 610 CURVE SMOOTH",
"457 610 OFFCURVE",
"421 601 OFFCURVE",
"386 583 CURVE",
"411 725 LINE",
"711 725 LINE",
"711 874 LINE",
"290 874 LINE",
"208 441 LINE",
"337 422 LINE",
"374 463 OFFCURVE",
"415 483 OFFCURVE",
"460 483 CURVE SMOOTH",
"543 483 OFFCURVE",
"584 432 OFFCURVE",
"584 330 CURVE SMOOTH",
"584 221 OFFCURVE",
"544 167 OFFCURVE",
"465 167 CURVE SMOOTH",
"396 167 OFFCURVE",
"357 206 OFFCURVE",
"348 284 CURVE",
"189 268 LINE",
"209 123 OFFCURVE",
"315 40 OFFCURVE",
"463 40 CURVE SMOOTH"
);
}
);
userData = {
assembly = "NPUSHB[ ]	/* 44 values pushed */
1 28 28 64 29 0 22 16 8 22 20 19 17 7 21 20 21 22 10 18 18 19 17 17 18 12 5 0 10 8 4 14 8 24 21 20 8 18 19 18 4 1 7 70
SROUND[ ]	/* SuperRound */
MDAP[1]	/* MoveDirectAbsPt */
SHZ[1]	/* ShiftZoneByLastPoint */
RTG[ ]	/* RoundToGrid */
SVTCA[0]	/* SetFreedomAndProjectionVectorToAxis */
MDAP[1]	/* MoveDirectAbsPt */
MDAP[1]	/* MoveDirectAbsPt */
ALIGNRP[ ]	/* AlignRelativePt */
SRP0[ ]	/* SetRefPoint0 */
MIRP[11101]	/* MoveIndirectRelPt */
ALIGNRP[ ]	/* AlignRelativePt */
MDAP[1]	/* MoveDirectAbsPt */
MIRP[11101]	/* MoveIndirectRelPt */
SRP0[ ]	/* SetRefPoint0 */
MIRP[11101]	/* MoveIndirectRelPt */
SVTCA[1]	/* SetFreedomAndProjectionVectorToAxis */
MDAP[1]	/* MoveDirectAbsPt */
MIRP[11101]	/* MoveIndirectRelPt */
SDPVTL[1]	/* SetDualPVectorToLine */
MDAP[0]	/* MoveDirectAbsPt */
SFVTL[0]	/* SetFVectorToLine */
MDRP[00100]	/* MoveDirectRelPt */
SFVTPV[ ]	/* SetFVectorToPVector */
MIRP[11100]	/* MoveIndirectRelPt */
SFVTL[0]	/* SetFVectorToLine */
MDRP[00100]	/* MoveDirectRelPt */
SVTCA[1]	/* SetFreedomAndProjectionVectorToAxis */
MDAP[0]	/* MoveDirectAbsPt */
MDAP[0]	/* MoveDirectAbsPt */
MDAP[0]	/* MoveDirectAbsPt */
MDAP[0]	/* MoveDirectAbsPt */
MDAP[0]	/* MoveDirectAbsPt */
SVTCA[0]	/* SetFreedomAndProjectionVectorToAxis */
MDAP[0]	/* MoveDirectAbsPt */
MDAP[0]	/* MoveDirectAbsPt */
MDAP[0]	/* MoveDirectAbsPt */
IUP[1]	/* InterpolateUntPts */
IUP[0]	/* InterpolateUntPts */
SVTCA[1]	/* SetFreedomAndProjectionVectorToAxis */
MD[0]	/* MeasureDistance */
ROUND[00]	/* Round */
PUSHW[ ]	/* 2 values pushed */
7 28
MD[0]	/* MeasureDistance */
ROUND[00]	/* Round */
SUB[ ]	/* Subtract */
PUSHB[ ]	/* 1 value pushed */
64
GT[ ]	/* GreaterThan */
IF[ ]	/* If */
SHPIX[ ]	/* ShiftZoneByPixel */
SRP1[ ]	/* SetRefPoint1 */
SHZ[1]	/* ShiftZoneByLastPoint */
PUSHW[ ]	/* 2 values pushed */
28 -64
SHPIX[ ]	/* ShiftZoneByPixel */
EIF[ ]	/* EndIf */";
};
width = 888;
}
);
note = five;
unicode = 0035;
},
{
glyphname = six;
lastChange = "2025-02-10 17:38:38 +0000";
layers = (
{
background = {
paths = (
{
closed = 1;
nodes = (
"677 518 QCURVE SMOOTH",
"608 601 OFFCURVE",
"499 601 QCURVE SMOOTH",
"411 601 OFFCURVE",
"351 531 QCURVE",
"366 765 OFFCURVE",
"480 765 QCURVE SMOOTH",
"561 765 OFFCURVE",
"572 672 QCURVE",
"726 689 LINE",
"691 896 OFFCURVE",
"490 896 QCURVE SMOOTH",
"186 896 OFFCURVE",
"186 465 QCURVE SMOOTH",
"186 47 OFFCURVE",
"474 47 QCURVE SMOOTH",
"596 47 OFFCURVE",
"670 128 QCURVE SMOOTH",
"741 205 OFFCURVE",
"741 329 QCURVE SMOOTH",
"741 440 OFFCURVE"
);
},
{
closed = 1;
nodes = (
"482 179 QCURVE SMOOTH",
"424 179 OFFCURVE",
"392 234 QCURVE SMOOTH",
"365 280 OFFCURVE",
"365 341 QCURVE SMOOTH",
"365 484 OFFCURVE",
"474 484 QCURVE SMOOTH",
"585 484 OFFCURVE",
"585 327 QCURVE SMOOTH",
"585 179 OFFCURVE"
);
}
);
};
layerId = m01;
paths = (
{
closed = 1;
nodes = (
"555 47 OFFCURVE",
"621 74 OFFCURVE",
"670 128 CURVE SMOOTH",
"717 179 OFFCURVE",
"741 246 OFFCURVE",
"741 329 CURVE SMOOTH",
"741 403 OFFCURVE",
"720 466 OFFCURVE",
"677 518 CURVE SMOOTH",
"631 573 OFFCURVE",
"572 601 OFFCURVE",
"499 601 CURVE SMOOTH",
"440 601 OFFCURVE",
"391 578 OFFCURVE",
"351 531 CURVE",
"361 687 OFFCURVE",
"404 765 OFFCURVE",
"480 765 CURVE SMOOTH",
"534 765 OFFCURVE",
"565 734 OFFCURVE",
"572 672 CURVE",
"726 689 LINE",
"703 827 OFFCURVE",
"624 896 OFFCURVE",
"490 896 CURVE SMOOTH",
"287 896 OFFCURVE",
"186 752 OFFCURVE",
"186 465 CURVE SMOOTH",
"186 186 OFFCURVE",
"282 47 OFFCURVE",
"474 47 CURVE SMOOTH"
);
},
{
closed = 1;
nodes = (
"443 179 OFFCURVE",
"413 197 OFFCURVE",
"392 234 CURVE SMOOTH",
"374 265 OFFCURVE",
"365 300 OFFCURVE",
"365 341 CURVE SMOOTH",
"365 436 OFFCURVE",
"401 484 OFFCURVE",
"474 484 CURVE SMOOTH",
"548 484 OFFCURVE",
"585 432 OFFCURVE",
"585 327 CURVE SMOOTH",
"585 228 OFFCURVE",
"551 179 OFFCURVE",
"482 179 CURVE SMOOTH"
);
}
);
userData = {
assembly = "NPUSHB[ ]	/* 30 values pushed */
1 31 31 64 32 0 15 11 15 10 25 5 6 21 5 0 23 8 17 29 8 4 13 8 8 8 4 1 6 70
SROUND[ ]	/* SuperRound */
MDAP[1]	/* MoveDirectAbsPt */
SHZ[1]	/* ShiftZoneByLastPoint */
RTG[ ]	/* RoundToGrid */
SVTCA[0]	/* SetFreedomAndProjectionVectorToAxis */
MDAP[1]	/* MoveDirectAbsPt */
MDAP[1]	/* MoveDirectAbsPt */
SRP0[ ]	/* SetRefPoint0 */
MIRP[11101]	/* MoveIndirectRelPt */
SRP0[ ]	/* SetRefPoint0 */
MIRP[11101]	/* MoveIndirectRelPt */
MDAP[1]	/* MoveDirectAbsPt */
MIRP[11101]	/* MoveIndirectRelPt */
SVTCA[1]	/* SetFreedomAndProjectionVectorToAxis */
MDAP[1]	/* MoveDirectAbsPt */
MIRP[11101]	/* MoveIndirectRelPt */
MDAP[1]	/* MoveDirectAbsPt */
MIRP[11101]	/* MoveIndirectRelPt */
MDAP[0]	/* MoveDirectAbsPt */
MDAP[0]	/* MoveDirectAbsPt */
SVTCA[0]	/* SetFreedomAndProjectionVectorToAxis */
MDAP[0]	/* MoveDirectAbsPt */
MDAP[0]	/* MoveDirectAbsPt */
IUP[1]	/* InterpolateUntPts */
IUP[0]	/* InterpolateUntPts */
SVTCA[1]	/* SetFreedomAndProjectionVectorToAxis */
MD[0]	/* MeasureDistance */
ROUND[00]	/* Round */
PUSHW[ ]	/* 2 values pushed */
6 31
MD[0]	/* MeasureDistance */
ROUND[00]	/* Round */
SUB[ ]	/* Subtract */
PUSHB[ ]	/* 1 value pushed */
64
GT[ ]	/* GreaterThan */
IF[ ]	/* If */
SHPIX[ ]	/* ShiftZoneByPixel */
SRP1[ ]	/* SetRefPoint1 */
SHZ[1]	/* ShiftZoneByLastPoint */
PUSHW[ ]	/* 2 values pushed */
31 -64
SHPIX[ ]	/* ShiftZoneByPixel */
EIF[ ]	/* EndIf */";
};
width = 850;
}
);
note = six;
unicode = 0036;
},
{
glyphname = seven;
lastChange = "2025-02-10 17:38:38 +0000";
layers = (
{
background = {
paths = (
{
closed = 1;
nodes = (
"186 870 LINE",
"186 722 LINE",
"548 722 LINE",
"306 417 OFFCURVE",
"298 50 QCURVE",
"451 50 LINE",
"451 160 OFFCURVE",
"487 300 QCURVE SMOOTH",
"563 589 OFFCURVE",
"731 754 QCURVE",
"731 870 LINE"
);
}
);
};
layerId = m01;
paths = (
{
closed = 1;
nodes = (
"451 50 LINE",
"451 123 OFFCURVE",
"463 207 OFFCURVE",
"487 300 CURVE SMOOTH",
"538 493 OFFCURVE",
"619 644 OFFCURVE",
"731 754 CURVE",
"731 870 LINE",
"186 870 LINE",
"186 722 LINE",
"548 722 LINE",
"387 519 OFFCURVE",
"303 295 OFFCURVE",
"298 50 CURVE"
);
}
);
userData = {
assembly = "NPUSHB[ ]	/* 24 values pushed */
1 11 11 64 12 0 7 5 9 8 5 10 0 8 7 8 9 10 9 5 4 1 8 70
SROUND[ ]	/* SuperRound */
MDAP[1]	/* MoveDirectAbsPt */
SHZ[1]	/* ShiftZoneByLastPoint */
RTG[ ]	/* RoundToGrid */
SVTCA[0]	/* SetFreedomAndProjectionVectorToAxis */
MDAP[1]	/* MoveDirectAbsPt */
ALIGNRP[ ]	/* AlignRelativePt */
MDAP[1]	/* MoveDirectAbsPt */
ALIGNRP[ ]	/* AlignRelativePt */
SRP0[ ]	/* SetRefPoint0 */
MIRP[11101]	/* MoveIndirectRelPt */
ALIGNRP[ ]	/* AlignRelativePt */
SVTCA[1]	/* SetFreedomAndProjectionVectorToAxis */
MDAP[1]	/* MoveDirectAbsPt */
ALIGNRP[ ]	/* AlignRelativePt */
MIRP[11101]	/* MoveIndirectRelPt */
ALIGNRP[ ]	/* AlignRelativePt */
MDAP[0]	/* MoveDirectAbsPt */
MDAP[0]	/* MoveDirectAbsPt */
SVTCA[0]	/* SetFreedomAndProjectionVectorToAxis */
IUP[1]	/* InterpolateUntPts */
IUP[0]	/* InterpolateUntPts */
SVTCA[1]	/* SetFreedomAndProjectionVectorToAxis */
MD[0]	/* MeasureDistance */
ROUND[00]	/* Round */
PUSHW[ ]	/* 2 values pushed */
8 11
MD[0]	/* MeasureDistance */
ROUND[00]	/* Round */
SUB[ ]	/* Subtract */
PUSHB[ ]	/* 1 value pushed */
64
GT[ ]	/* GreaterThan */
IF[ ]	/* If */
SHPIX[ ]	/* ShiftZoneByPixel */
SRP1[ ]	/* SetRefPoint1 */
SHZ[1]	/* ShiftZoneByLastPoint */
PUSHW[ ]	/* 2 values pushed */
11 -64
SHPIX[ ]	/* ShiftZoneByPixel */
EIF[ ]	/* EndIf */";
};
width = 850;
}
);
note = seven;
unicode = 0037;
},
{
glyphname = eight;
lastChange = "2025-02-10 17:38:38 +0000";
layers = (
{
background = {
paths = (
{
closed = 1;
nodes = (
"584 512 QCURVE",
"698 562 OFFCURVE",
"698 683 QCURVE SMOOTH",
"698 787 OFFCURVE",
"624 845 QCURVE SMOOTH",
"556 898 OFFCURVE",
"449 898 QCURVE SMOOTH",
"342 898 OFFCURVE",
"274 845 QCURVE SMOOTH",
"199 788 OFFCURVE",
"199 683 QCURVE SMOOTH",
"199 561 OFFCURVE",
"317 512 QCURVE",
"178 453 OFFCURVE",
"178 301 QCURVE SMOOTH",
"178 183 OFFCURVE",
"260 114 QCURVE SMOOTH",
"337 48 OFFCURVE",
"456 48 QCURVE SMOOTH",
"576 48 OFFCURVE",
"725 189 OFFCURVE",
"725 308 QCURVE SMOOTH",
"725 455 OFFCURVE"
);
},
{
closed = 1;
nodes = (
"449 571 QCURVE SMOOTH",
"350 571 OFFCURVE",
"350 672 QCURVE SMOOTH",
"350 771 OFFCURVE",
"451 771 QCURVE SMOOTH",
"549 771 OFFCURVE",
"549 673 QCURVE SMOOTH",
"549 571 OFFCURVE"
);
},
{
closed = 1;
nodes = (
"453 177 QCURVE SMOOTH",
"397 177 OFFCURVE",
"364 219 QCURVE SMOOTH",
"335 257 OFFCURVE",
"335 316 QCURVE SMOOTH",
"335 370 OFFCURVE",
"398 444 OFFCURVE",
"451 444 QCURVE SMOOTH",
"505 444 OFFCURVE",
"567 369 OFFCURVE",
"567 314 QCURVE SMOOTH",
"567 177 OFFCURVE"
);
}
);
};
layerId = m01;
paths = (
{
closed = 1;
nodes = (
"616 48 OFFCURVE",
"725 149 OFFCURVE",
"725 308 CURVE SMOOTH",
"725 406 OFFCURVE",
"678 474 OFFCURVE",
"584 512 CURVE",
"660 545 OFFCURVE",
"698 602 OFFCURVE",
"698 683 CURVE SMOOTH",
"698 752 OFFCURVE",
"673 806 OFFCURVE",
"624 845 CURVE SMOOTH",
"579 880 OFFCURVE",
"520 898 OFFCURVE",
"449 898 CURVE SMOOTH",
"378 898 OFFCURVE",
"319 880 OFFCURVE",
"274 845 CURVE SMOOTH",
"224 807 OFFCURVE",
"199 753 OFFCURVE",
"199 683 CURVE SMOOTH",
"199 602 OFFCURVE",
"238 545 OFFCURVE",
"317 512 CURVE",
"224 473 OFFCURVE",
"178 402 OFFCURVE",
"178 301 CURVE SMOOTH",
"178 222 OFFCURVE",
"205 160 OFFCURVE",
"260 114 CURVE SMOOTH",
"311 70 OFFCURVE",
"377 48 OFFCURVE",
"456 48 CURVE SMOOTH"
);
},
{
closed = 1;
nodes = (
"416 177 OFFCURVE",
"386 191 OFFCURVE",
"364 219 CURVE SMOOTH",
"345 244 OFFCURVE",
"335 277 OFFCURVE",
"335 316 CURVE SMOOTH",
"335 388 OFFCURVE",
"380 444 OFFCURVE",
"451 444 CURVE SMOOTH",
"523 444 OFFCURVE",
"567 387 OFFCURVE",
"567 314 CURVE SMOOTH",
"567 223 OFFCURVE",
"529 177 OFFCURVE",
"453 177 CURVE SMOOTH"
);
},
{
closed = 1;
nodes = (
"383 571 OFFCURVE",
"350 605 OFFCURVE",
"350 672 CURVE SMOOTH",
"350 738 OFFCURVE",
"384 771 OFFCURVE",
"451 771 CURVE SMOOTH",
"516 771 OFFCURVE",
"549 738 OFFCURVE",
"549 673 CURVE SMOOTH",
"549 605 OFFCURVE",
"516 571 OFFCURVE",
"449 571 CURVE SMOOTH"
);
}
);
userData = {
assembly = "NPUSHB[ ]	/* 34 values pushed */
1 43 43 64 44 0 21 9 37 5 7 27 5 11 23 5 19 31 5 0 41 8 3 25 8 15 34 8 29 15 3 1 7 70
SROUND[ ]	/* SuperRound */
MDAP[1]	/* MoveDirectAbsPt */
SHZ[1]	/* ShiftZoneByLastPoint */
RTG[ ]	/* RoundToGrid */
SVTCA[0]	/* SetFreedomAndProjectionVectorToAxis */
MDAP[1]	/* MoveDirectAbsPt */
MDAP[1]	/* MoveDirectAbsPt */
MDAP[1]	/* MoveDirectAbsPt */
MIRP[11101]	/* MoveIndirectRelPt */
SRP0[ ]	/* SetRefPoint0 */
MIRP[11101]	/* MoveIndirectRelPt */
SRP0[ ]	/* SetRefPoint0 */
MIRP[11101]	/* MoveIndirectRelPt */
SVTCA[1]	/* SetFreedomAndProjectionVectorToAxis */
MDAP[1]	/* MoveDirectAbsPt */
MIRP[11101]	/* MoveIndirectRelPt */
MDAP[1]	/* MoveDirectAbsPt */
MIRP[11101]	/* MoveIndirectRelPt */
MDAP[1]	/* MoveDirectAbsPt */
MIRP[11101]	/* MoveIndirectRelPt */
MDAP[1]	/* MoveDirectAbsPt */
MIRP[11101]	/* MoveIndirectRelPt */
MDAP[0]	/* MoveDirectAbsPt */
MDAP[0]	/* MoveDirectAbsPt */
SVTCA[0]	/* SetFreedomAndProjectionVectorToAxis */
IUP[1]	/* InterpolateUntPts */
IUP[0]	/* InterpolateUntPts */
SVTCA[1]	/* SetFreedomAndProjectionVectorToAxis */
MD[0]	/* MeasureDistance */
ROUND[00]	/* Round */
PUSHW[ ]	/* 2 values pushed */
7 43
MD[0]	/* MeasureDistance */
ROUND[00]	/* Round */
SUB[ ]	/* Subtract */
PUSHB[ ]	/* 1 value pushed */
64
GT[ ]	/* GreaterThan */
IF[ ]	/* If */
SHPIX[ ]	/* ShiftZoneByPixel */
SRP1[ ]	/* SetRefPoint1 */
SHZ[1]	/* ShiftZoneByLastPoint */
PUSHW[ ]	/* 2 values pushed */
43 -64
SHPIX[ ]	/* ShiftZoneByPixel */
EIF[ ]	/* EndIf */";
};
width = 823;
}
);
note = eight;
unicode = 0038;
},
{
glyphname = nine;
lastChange = "2025-02-10 17:38:38 +0000";
layers = (
{
background = {
paths = (
{
closed = 1;
nodes = (
"454 899 QCURVE SMOOTH",
"333 899 OFFCURVE",
"188 740 OFFCURVE",
"188 618 QCURVE SMOOTH",
"188 507 OFFCURVE",
"252 429 QCURVE SMOOTH",
"320 345 OFFCURVE",
"428 345 QCURVE SMOOTH",
"518 345 OFFCURVE",
"578 415 QCURVE",
"563 181 OFFCURVE",
"450 181 QCURVE SMOOTH",
"369 181 OFFCURVE",
"358 273 QCURVE",
"204 256 LINE",
"238 49 OFFCURVE",
"438 49 QCURVE SMOOTH",
"743 49 OFFCURVE",
"743 479 QCURVE SMOOTH",
"743 899 OFFCURVE"
);
},
{
closed = 1;
nodes = (
"455 462 QCURVE SMOOTH",
"344 462 OFFCURVE",
"344 618 QCURVE SMOOTH",
"344 767 OFFCURVE",
"447 767 QCURVE SMOOTH",
"505 767 OFFCURVE",
"537 712 QCURVE SMOOTH",
"564 666 OFFCURVE",
"564 605 QCURVE SMOOTH",
"564 462 OFFCURVE"
);
}
);
};
layerId = m01;
paths = (
{
closed = 1;
nodes = (
"641 49 OFFCURVE",
"743 192 OFFCURVE",
"743 479 CURVE SMOOTH",
"743 759 OFFCURVE",
"647 899 OFFCURVE",
"454 899 CURVE SMOOTH",
"293 899 OFFCURVE",
"188 781 OFFCURVE",
"188 618 CURVE SMOOTH",
"188 544 OFFCURVE",
"209 481 OFFCURVE",
"252 429 CURVE SMOOTH",
"297 373 OFFCURVE",
"356 345 OFFCURVE",
"428 345 CURVE SMOOTH",
"488 345 OFFCURVE",
"538 368 OFFCURVE",
"578 415 CURVE",
"568 259 OFFCURVE",
"525 181 OFFCURVE",
"450 181 CURVE SMOOTH",
"396 181 OFFCURVE",
"365 212 OFFCURVE",
"358 273 CURVE",
"204 256 LINE",
"227 118 OFFCURVE",
"305 49 OFFCURVE",
"438 49 CURVE SMOOTH"
);
},
{
closed = 1;
nodes = (
"381 462 OFFCURVE",
"344 514 OFFCURVE",
"344 618 CURVE SMOOTH",
"344 717 OFFCURVE",
"378 767 OFFCURVE",
"447 767 CURVE SMOOTH",
"486 767 OFFCURVE",
"516 749 OFFCURVE",
"537 712 CURVE SMOOTH",
"555 681 OFFCURVE",
"564 646 OFFCURVE",
"564 605 CURVE SMOOTH",
"564 510 OFFCURVE",
"528 462 OFFCURVE",
"455 462 CURVE SMOOTH"
);
}
);
userData = {
assembly = "NPUSHB[ ]	/* 30 values pushed */
1 30 30 64 31 0 9 5 9 4 20 5 0 26 5 15 28 8 11 7 8 2 24 8 18 18 2 1 15 70
SROUND[ ]	/* SuperRound */
MDAP[1]	/* MoveDirectAbsPt */
SHZ[1]	/* ShiftZoneByLastPoint */
RTG[ ]	/* RoundToGrid */
SVTCA[0]	/* SetFreedomAndProjectionVectorToAxis */
MDAP[1]	/* MoveDirectAbsPt */
MDAP[1]	/* MoveDirectAbsPt */
SRP0[ ]	/* SetRefPoint0 */
MIRP[11101]	/* MoveIndirectRelPt */
SRP0[ ]	/* SetRefPoint0 */
MIRP[11101]	/* MoveIndirectRelPt */
MDAP[1]	/* MoveDirectAbsPt */
MIRP[11101]	/* MoveIndirectRelPt */
SVTCA[1]	/* SetFreedomAndProjectionVectorToAxis */
MDAP[1]	/* MoveDirectAbsPt */
MIRP[11101]	/* MoveIndirectRelPt */
MDAP[1]	/* MoveDirectAbsPt */
MIRP[11101]	/* MoveIndirectRelPt */
MDAP[0]	/* MoveDirectAbsPt */
MDAP[0]	/* MoveDirectAbsPt */
SVTCA[0]	/* SetFreedomAndProjectionVectorToAxis */
MDAP[0]	/* MoveDirectAbsPt */
MDAP[0]	/* MoveDirectAbsPt */
IUP[1]	/* InterpolateUntPts */
IUP[0]	/* InterpolateUntPts */
SVTCA[1]	/* SetFreedomAndProjectionVectorToAxis */
MD[0]	/* MeasureDistance */
ROUND[00]	/* Round */
PUSHW[ ]	/* 2 values pushed */
15 30
MD[0]	/* MeasureDistance */
ROUND[00]	/* Round */
SUB[ ]	/* Subtract */
PUSHB[ ]	/* 1 value pushed */
64
GT[ ]	/* GreaterThan */
IF[ ]	/* If */
SHPIX[ ]	/* ShiftZoneByPixel */
SRP1[ ]	/* SetRefPoint1 */
SHZ[1]	/* ShiftZoneByLastPoint */
PUSHW[ ]	/* 2 values pushed */
30 -64
SHPIX[ ]	/* ShiftZoneByPixel */
EIF[ ]	/* EndIf */";
};
width = 864;
}
);
note = nine;
unicode = 0039;
},
{
glyphname = colon;
lastChange = "2025-02-10 17:38:38 +0000";
layers = (
{
background = {
paths = (
{
closed = 1;
nodes = (
"154 504 LINE",
"154 309 LINE",
"349 309 LINE",
"349 504 LINE"
);
},
{
closed = 1;
nodes = (
"154 207 LINE",
"154 12 LINE",
"349 12 LINE",
"349 207 LINE"
);
}
);
};
layerId = m01;
paths = (
{
closed = 1;
nodes = (
"349 309 LINE",
"349 504 LINE",
"154 504 LINE",
"154 309 LINE"
);
},
{
closed = 1;
nodes = (
"349 12 LINE",
"349 207 LINE",
"154 207 LINE",
"154 12 LINE"
);
}
);
userData = {
assembly = "NPUSHB[ ]	/* 32 values pushed */
1 8 8 64 9 0 7 4 3 3 0 5 6 5 2 3 1 1 0 7 2 7 6 7 4 3 2 5 4 1 1 70
SROUND[ ]	/* SuperRound */
MDAP[1]	/* MoveDirectAbsPt */
SHZ[1]	/* ShiftZoneByLastPoint */
RTG[ ]	/* RoundToGrid */
SVTCA[0]	/* SetFreedomAndProjectionVectorToAxis */
MDAP[1]	/* MoveDirectAbsPt */
ALIGNRP[ ]	/* AlignRelativePt */
MDAP[1]	/* MoveDirectAbsPt */
ALIGNRP[ ]	/* AlignRelativePt */
SRP0[ ]	/* SetRefPoint0 */
MIRP[11101]	/* MoveIndirectRelPt */
ALIGNRP[ ]	/* AlignRelativePt */
SRP0[ ]	/* SetRefPoint0 */
MIRP[11101]	/* MoveIndirectRelPt */
ALIGNRP[ ]	/* AlignRelativePt */
SVTCA[1]	/* SetFreedomAndProjectionVectorToAxis */
MDAP[1]	/* MoveDirectAbsPt */
SLOOP[ ]	/* SetLoopVariable */
ALIGNRP[ ]	/* AlignRelativePt */
MIRP[11101]	/* MoveIndirectRelPt */
SLOOP[ ]	/* SetLoopVariable */
ALIGNRP[ ]	/* AlignRelativePt */
SVTCA[0]	/* SetFreedomAndProjectionVectorToAxis */
IUP[1]	/* InterpolateUntPts */
IUP[0]	/* InterpolateUntPts */
SVTCA[1]	/* SetFreedomAndProjectionVectorToAxis */
MD[0]	/* MeasureDistance */
ROUND[00]	/* Round */
PUSHW[ ]	/* 2 values pushed */
1 8
MD[0]	/* MeasureDistance */
ROUND[00]	/* Round */
SUB[ ]	/* Subtract */
PUSHB[ ]	/* 1 value pushed */
64
GT[ ]	/* GreaterThan */
IF[ ]	/* If */
SHPIX[ ]	/* ShiftZoneByPixel */
SRP1[ ]	/* SetRefPoint1 */
SHZ[1]	/* ShiftZoneByLastPoint */
PUSHW[ ]	/* 2 values pushed */
8 -64
SHPIX[ ]	/* ShiftZoneByPixel */
EIF[ ]	/* EndIf */";
};
width = 481;
}
);
note = colon;
unicode = 003A;
},
{
glyphname = semicolon;
lastChange = "2025-02-10 17:38:38 +0000";
layers = (
{
background = {
paths = (
{
closed = 1;
nodes = (
"187 522 OFFCURVE",
"158 522 QCURVE SMOOTH",
"130 522 OFFCURVE",
"89 481 OFFCURVE",
"89 453 QCURVE SMOOTH",
"89 424 OFFCURVE",
"129 384 OFFCURVE",
"158 384 QCURVE SMOOTH",
"228 384 OFFCURVE",
"228 453 QCURVE SMOOTH",
"228 482 OFFCURVE"
);
},
{
closed = 1;
nodes = (
"158 156 QCURVE SMOOTH",
"129 156 OFFCURVE",
"88 114 OFFCURVE",
"88 84 QCURVE SMOOTH",
"88 26 OFFCURVE",
"141 11 QCURVE",
"141 -39 OFFCURVE",
"81 -67 QCURVE",
"100 -80 OFFCURVE",
"100 -164 QCURVE",
"232 -61 OFFCURVE",
"232 69 QCURVE SMOOTH",
"232 156 OFFCURVE"
);
}
);
};
layerId = m01;
paths = (
{
closed = 1;
nodes = (
"188 -95 OFFCURVE",
"232 -18 OFFCURVE",
"232 69 CURVE SMOOTH",
"232 127 OFFCURVE",
"207 156 OFFCURVE",
"158 156 CURVE SMOOTH",
"119 156 OFFCURVE",
"88 124 OFFCURVE",
"88 84 CURVE SMOOTH",
"88 45 OFFCURVE",
"106 21 OFFCURVE",
"141 11 CURVE",
"141 -22 OFFCURVE",
"121 -48 OFFCURVE",
"81 -67 CURVE",
"94 -76 OFFCURVE",
"100 -108 OFFCURVE",
"100 -164 CURVE"
);
},
{
closed = 1;
nodes = (
"205 384 OFFCURVE",
"228 407 OFFCURVE",
"228 453 CURVE SMOOTH",
"228 492 OFFCURVE",
"197 522 OFFCURVE",
"158 522 CURVE SMOOTH",
"121 522 OFFCURVE",
"89 490 OFFCURVE",
"89 453 CURVE SMOOTH",
"89 414 OFFCURVE",
"119 384 OFFCURVE",
"158 384 CURVE SMOOTH"
);
}
);
userData = {
assembly = "NPUSHB[ ]	/* 24 values pushed */
1 24 24 64 25 11 22 17 15 0 6 5 5 19 6 11 2 8 8 8 13 1 15 70
SROUND[ ]	/* SuperRound */
MDAP[1]	/* MoveDirectAbsPt */
SHZ[1]	/* ShiftZoneByLastPoint */
RTG[ ]	/* RoundToGrid */
SVTCA[0]	/* SetFreedomAndProjectionVectorToAxis */
MDAP[1]	/* MoveDirectAbsPt */
MDAP[1]	/* MoveDirectAbsPt */
SRP0[ ]	/* SetRefPoint0 */
MIRP[11101]	/* MoveIndirectRelPt */
SVTCA[1]	/* SetFreedomAndProjectionVectorToAxis */
MDAP[1]	/* MoveDirectAbsPt */
MIRP[11101]	/* MoveIndirectRelPt */
ALIGNRP[ ]	/* AlignRelativePt */
SRP0[ ]	/* SetRefPoint0 */
MIRP[11101]	/* MoveIndirectRelPt */
MDAP[0]	/* MoveDirectAbsPt */
MDAP[0]	/* MoveDirectAbsPt */
SVTCA[0]	/* SetFreedomAndProjectionVectorToAxis */
MDAP[0]	/* MoveDirectAbsPt */
IUP[1]	/* InterpolateUntPts */
IUP[0]	/* InterpolateUntPts */
SVTCA[1]	/* SetFreedomAndProjectionVectorToAxis */
MD[0]	/* MeasureDistance */
ROUND[00]	/* Round */
PUSHW[ ]	/* 2 values pushed */
15 24
MD[0]	/* MeasureDistance */
ROUND[00]	/* Round */
SUB[ ]	/* Subtract */
PUSHB[ ]	/* 1 value pushed */
64
GT[ ]	/* GreaterThan */
IF[ ]	/* If */
SHPIX[ ]	/* ShiftZoneByPixel */
SRP1[ ]	/* SetRefPoint1 */
SHZ[1]	/* ShiftZoneByLastPoint */
PUSHW[ ]	/* 2 values pushed */
24 -64
SHPIX[ ]	/* ShiftZoneByPixel */
EIF[ ]	/* EndIf */";
};
width = 300;
}
);
note = semicolon;
unicode = 003B;
},
{
glyphname = less;
lastChange = "2025-02-10 17:38:38 +0000";
layers = (
{
background = {
paths = (
{
closed = 1;
nodes = (
"361 326 LINE",
"758 478 LINE",
"758 639 LINE",
"189 393 LINE",
"189 256 LINE",
"758 8 LINE",
"758 168 LINE"
);
}
);
};
layerId = m01;
paths = (
{
closed = 1;
nodes = (
"758 168 LINE",
"361 326 LINE",
"758 478 LINE",
"758 639 LINE",
"189 393 LINE",
"189 256 LINE",
"758 8 LINE"
);
}
);
userData = {
assembly = "NPUSHB[ ]	/* 18 values pushed */
1 7 7 64 8 0 6 5 4 3 2 1 0 3 0 1 1 70
SROUND[ ]	/* SuperRound */
MDAP[1]	/* MoveDirectAbsPt */
SHZ[1]	/* ShiftZoneByLastPoint */
RTG[ ]	/* RoundToGrid */
SVTCA[0]	/* SetFreedomAndProjectionVectorToAxis */
MDAP[1]	/* MoveDirectAbsPt */
MDAP[1]	/* MoveDirectAbsPt */
SVTCA[1]	/* SetFreedomAndProjectionVectorToAxis */
MDAP[0]	/* MoveDirectAbsPt */
MDAP[0]	/* MoveDirectAbsPt */
MDAP[0]	/* MoveDirectAbsPt */
MDAP[0]	/* MoveDirectAbsPt */
MDAP[0]	/* MoveDirectAbsPt */
MDAP[0]	/* MoveDirectAbsPt */
MDAP[0]	/* MoveDirectAbsPt */
SVTCA[0]	/* SetFreedomAndProjectionVectorToAxis */
IUP[1]	/* InterpolateUntPts */
IUP[0]	/* InterpolateUntPts */
SVTCA[1]	/* SetFreedomAndProjectionVectorToAxis */
MD[0]	/* MeasureDistance */
ROUND[00]	/* Round */
PUSHW[ ]	/* 2 values pushed */
1 7
MD[0]	/* MeasureDistance */
ROUND[00]	/* Round */
SUB[ ]	/* Subtract */
PUSHB[ ]	/* 1 value pushed */
64
GT[ ]	/* GreaterThan */
IF[ ]	/* If */
SHPIX[ ]	/* ShiftZoneByPixel */
SRP1[ ]	/* SetRefPoint1 */
SHZ[1]	/* ShiftZoneByLastPoint */
PUSHW[ ]	/* 2 values pushed */
7 -64
SHPIX[ ]	/* ShiftZoneByPixel */
EIF[ ]	/* EndIf */";
};
width = 890;
}
);
note = less;
unicode = 003C;
},
{
glyphname = equal;
lastChange = "2025-02-10 17:38:38 +0000";
layers = (
{
background = {
paths = (
{
closed = 1;
nodes = (
"195 556 LINE",
"195 410 LINE",
"776 410 LINE",
"776 556 LINE"
);
},
{
closed = 1;
nodes = (
"195 305 LINE",
"195 158 LINE",
"776 158 LINE",
"776 305 LINE"
);
}
);
};
layerId = m01;
paths = (
{
closed = 1;
nodes = (
"776 158 LINE",
"776 305 LINE",
"195 305 LINE",
"195 158 LINE"
);
},
{
closed = 1;
nodes = (
"776 410 LINE",
"776 556 LINE",
"195 556 LINE",
"195 410 LINE"
);
}
);
userData = {
assembly = "NPUSHB[ ]	/* 32 values pushed */
1 8 8 64 9 0 6 5 2 3 1 5 7 4 3 3 0 1 0 8 2 7 6 8 4 3 2 5 4 1 1 70
SROUND[ ]	/* SuperRound */
MDAP[1]	/* MoveDirectAbsPt */
SHZ[1]	/* ShiftZoneByLastPoint */
RTG[ ]	/* RoundToGrid */
SVTCA[0]	/* SetFreedomAndProjectionVectorToAxis */
MDAP[1]	/* MoveDirectAbsPt */
ALIGNRP[ ]	/* AlignRelativePt */
MDAP[1]	/* MoveDirectAbsPt */
ALIGNRP[ ]	/* AlignRelativePt */
SRP0[ ]	/* SetRefPoint0 */
MIRP[11101]	/* MoveIndirectRelPt */
ALIGNRP[ ]	/* AlignRelativePt */
SRP0[ ]	/* SetRefPoint0 */
MIRP[11101]	/* MoveIndirectRelPt */
ALIGNRP[ ]	/* AlignRelativePt */
SVTCA[1]	/* SetFreedomAndProjectionVectorToAxis */
MDAP[1]	/* MoveDirectAbsPt */
SLOOP[ ]	/* SetLoopVariable */
ALIGNRP[ ]	/* AlignRelativePt */
MIRP[11101]	/* MoveIndirectRelPt */
SLOOP[ ]	/* SetLoopVariable */
ALIGNRP[ ]	/* AlignRelativePt */
SVTCA[0]	/* SetFreedomAndProjectionVectorToAxis */
IUP[1]	/* InterpolateUntPts */
IUP[0]	/* InterpolateUntPts */
SVTCA[1]	/* SetFreedomAndProjectionVectorToAxis */
MD[0]	/* MeasureDistance */
ROUND[00]	/* Round */
PUSHW[ ]	/* 2 values pushed */
1 8
MD[0]	/* MeasureDistance */
ROUND[00]	/* Round */
SUB[ ]	/* Subtract */
PUSHB[ ]	/* 1 value pushed */
64
GT[ ]	/* GreaterThan */
IF[ ]	/* If */
SHPIX[ ]	/* ShiftZoneByPixel */
SRP1[ ]	/* SetRefPoint1 */
SHZ[1]	/* ShiftZoneByLastPoint */
PUSHW[ ]	/* 2 values pushed */
8 -64
SHPIX[ ]	/* ShiftZoneByPixel */
EIF[ ]	/* EndIf */";
};
width = 929;
}
);
note = equal;
unicode = 003D;
},
{
glyphname = greater;
lastChange = "2025-02-10 17:38:38 +0000";
layers = (
{
background = {
paths = (
{
closed = 1;
nodes = (
"183 673 LINE",
"183 514 LINE",
"581 359 LINE",
"183 203 LINE",
"183 42 LINE",
"753 290 LINE",
"753 427 LINE"
);
}
);
};
layerId = m01;
paths = (
{
closed = 1;
nodes = (
"753 290 LINE",
"753 427 LINE",
"183 673 LINE",
"183 514 LINE",
"581 359 LINE",
"183 203 LINE",
"183 42 LINE"
);
}
);
userData = {
assembly = "NPUSHB[ ]	/* 18 values pushed */
1 7 7 64 8 0 6 5 4 3 2 1 0 5 1 1 1 70
SROUND[ ]	/* SuperRound */
MDAP[1]	/* MoveDirectAbsPt */
SHZ[1]	/* ShiftZoneByLastPoint */
RTG[ ]	/* RoundToGrid */
SVTCA[0]	/* SetFreedomAndProjectionVectorToAxis */
MDAP[1]	/* MoveDirectAbsPt */
MDAP[1]	/* MoveDirectAbsPt */
SVTCA[1]	/* SetFreedomAndProjectionVectorToAxis */
MDAP[0]	/* MoveDirectAbsPt */
MDAP[0]	/* MoveDirectAbsPt */
MDAP[0]	/* MoveDirectAbsPt */
MDAP[0]	/* MoveDirectAbsPt */
MDAP[0]	/* MoveDirectAbsPt */
MDAP[0]	/* MoveDirectAbsPt */
MDAP[0]	/* MoveDirectAbsPt */
SVTCA[0]	/* SetFreedomAndProjectionVectorToAxis */
IUP[1]	/* InterpolateUntPts */
IUP[0]	/* InterpolateUntPts */
SVTCA[1]	/* SetFreedomAndProjectionVectorToAxis */
MD[0]	/* MeasureDistance */
ROUND[00]	/* Round */
PUSHW[ ]	/* 2 values pushed */
1 7
MD[0]	/* MeasureDistance */
ROUND[00]	/* Round */
SUB[ ]	/* Subtract */
PUSHB[ ]	/* 1 value pushed */
64
GT[ ]	/* GreaterThan */
IF[ ]	/* If */
SHPIX[ ]	/* ShiftZoneByPixel */
SRP1[ ]	/* SetRefPoint1 */
SHZ[1]	/* ShiftZoneByLastPoint */
PUSHW[ ]	/* 2 values pushed */
7 -64
SHPIX[ ]	/* ShiftZoneByPixel */
EIF[ ]	/* EndIf */";
};
width = 902;
}
);
note = greater;
unicode = 003E;
},
{
glyphname = question;
lastChange = "2025-02-10 17:38:38 +0000";
layers = (
{
background = {
paths = (
{
closed = 1;
nodes = (
"467 857 OFFCURVE",
"352 857 QCURVE SMOOTH",
"258 857 OFFCURVE",
"97 786 QCURVE",
"97 685 LINE SMOOTH",
"97 645 OFFCURVE",
"127 645 QCURVE SMOOTH",
"154 645 OFFCURVE",
"158 686 QCURVE SMOOTH",
"159 691 OFFCURVE",
"157 746 QCURVE",
"261 797 OFFCURVE",
"347 797 QCURVE SMOOTH",
"434 797 OFFCURVE",
"557 689 OFFCURVE",
"557 604 QCURVE SMOOTH",
"557 498 OFFCURVE",
"311 407 QCURVE",
"311 307 LINE SMOOTH",
"311 267 OFFCURVE",
"342 267 QCURVE SMOOTH",
"375 267 OFFCURVE",
"372 367 QCURVE",
"489 417 OFFCURVE",
"534 452 QCURVE SMOOTH",
"616 515 OFFCURVE",
"616 605 QCURVE SMOOTH",
"616 719 OFFCURVE"
);
},
{
closed = 1;
nodes = (
"401 128 OFFCURVE",
"370 128 QCURVE SMOOTH",
"310 128 LINE SMOOTH",
"279 128 OFFCURVE",
"236 84 OFFCURVE",
"236 53 QCURVE SMOOTH",
"236 23 OFFCURVE",
"280 -21 OFFCURVE",
"310 -21 QCURVE SMOOTH",
"370 -21 LINE SMOOTH",
"401 -21 OFFCURVE",
"445 23 OFFCURVE",
"445 54 QCURVE SMOOTH",
"445 84 OFFCURVE"
);
}
);
};
layerId = m01;
paths = (
{
closed = 1;
nodes = (
"364 267 OFFCURVE",
"374 300 OFFCURVE",
"372 367 CURVE",
"450 400 OFFCURVE",
"504 429 OFFCURVE",
"534 452 CURVE SMOOTH",
"589 494 OFFCURVE",
"616 545 OFFCURVE",
"616 605 CURVE SMOOTH",
"616 757 OFFCURVE",
"505 857 OFFCURVE",
"352 857 CURVE SMOOTH",
"289 857 OFFCURVE",
"204 833 OFFCURVE",
"97 786 CURVE",
"97 685 LINE SMOOTH",
"97 658 OFFCURVE",
"107 645 OFFCURVE",
"127 645 CURVE SMOOTH",
"145 645 OFFCURVE",
"155 659 OFFCURVE",
"158 686 CURVE",
"157 746 LINE",
"226 780 OFFCURVE",
"290 797 OFFCURVE",
"347 797 CURVE SMOOTH",
"463 797 OFFCURVE",
"557 717 OFFCURVE",
"557 604 CURVE SMOOTH",
"557 533 OFFCURVE",
"475 468 OFFCURVE",
"311 407 CURVE",
"311 307 LINE SMOOTH",
"311 280 OFFCURVE",
"321 267 OFFCURVE",
"342 267 CURVE SMOOTH"
);
},
{
closed = 1;
nodes = (
"370 -21 LINE SMOOTH",
"411 -21 OFFCURVE",
"445 13 OFFCURVE",
"445 54 CURVE SMOOTH",
"445 94 OFFCURVE",
"411 128 OFFCURVE",
"370 128 CURVE SMOOTH",
"310 128 LINE SMOOTH",
"269 128 OFFCURVE",
"236 94 OFFCURVE",
"236 53 CURVE SMOOTH",
"236 13 OFFCURVE",
"270 -21 OFFCURVE",
"310 -21 CURVE SMOOTH"
);
}
);
userData = {
assembly = "NPUSHB[ ]	/* 38 values pushed */
1 42 42 64 43 0 20 18 16 9 8 23 22 5 0 11 6 0 28 5 35 14 8 25 6 7 25 39 38 8 31 25 32 31 1 1 22 70
SROUND[ ]	/* SuperRound */
MDAP[1]	/* MoveDirectAbsPt */
SHZ[1]	/* ShiftZoneByLastPoint */
RTG[ ]	/* RoundToGrid */
SVTCA[0]	/* SetFreedomAndProjectionVectorToAxis */
MIAP[1]	/* MoveIndirectAbsPt */
ALIGNRP[ ]	/* AlignRelativePt */
MDAP[1]	/* MoveDirectAbsPt */
SRP0[ ]	/* SetRefPoint0 */
MIRP[11101]	/* MoveIndirectRelPt */
ALIGNRP[ ]	/* AlignRelativePt */
SRP0[ ]	/* SetRefPoint0 */
MIRP[11101]	/* MoveIndirectRelPt */
SRP0[ ]	/* SetRefPoint0 */
MIRP[11101]	/* MoveIndirectRelPt */
SVTCA[1]	/* SetFreedomAndProjectionVectorToAxis */
MDAP[1]	/* MoveDirectAbsPt */
MIRP[11101]	/* MoveIndirectRelPt */
MDAP[1]	/* MoveDirectAbsPt */
MIRP[11101]	/* MoveIndirectRelPt */
SRP0[ ]	/* SetRefPoint0 */
MIRP[11101]	/* MoveIndirectRelPt */
ALIGNRP[ ]	/* AlignRelativePt */
MDAP[0]	/* MoveDirectAbsPt */
MDAP[0]	/* MoveDirectAbsPt */
MDAP[0]	/* MoveDirectAbsPt */
MDAP[0]	/* MoveDirectAbsPt */
SVTCA[0]	/* SetFreedomAndProjectionVectorToAxis */
MDAP[0]	/* MoveDirectAbsPt */
IUP[1]	/* InterpolateUntPts */
IUP[0]	/* InterpolateUntPts */
SVTCA[1]	/* SetFreedomAndProjectionVectorToAxis */
MD[0]	/* MeasureDistance */
ROUND[00]	/* Round */
PUSHW[ ]	/* 2 values pushed */
22 42
MD[0]	/* MeasureDistance */
ROUND[00]	/* Round */
SUB[ ]	/* Subtract */
PUSHB[ ]	/* 1 value pushed */
64
GT[ ]	/* GreaterThan */
IF[ ]	/* If */
SHPIX[ ]	/* ShiftZoneByPixel */
SRP1[ ]	/* SetRefPoint1 */
SHZ[1]	/* ShiftZoneByLastPoint */
PUSHW[ ]	/* 2 values pushed */
42 -64
SHPIX[ ]	/* ShiftZoneByPixel */
EIF[ ]	/* EndIf */";
};
width = 693;
}
);
note = question;
unicode = 003F;
},
{
glyphname = at;
lastChange = "2025-02-10 17:38:38 +0000";
layers = (
{
background = {
paths = (
{
closed = 1;
nodes = (
"1106 469 QCURVE SMOOTH",
"1035 469 LINE",
"1036 962 LINE SMOOTH",
"1036 1074 OFFCURVE",
"758 1297 OFFCURVE",
"617 1297 QCURVE SMOOTH",
"419 1297 OFFCURVE",
"278 1110 QCURVE SMOOTH",
"150 940 OFFCURVE",
"150 744 QCURVE SMOOTH",
"150 408 LINE SMOOTH",
"150 211 OFFCURVE",
"277 48 QCURVE SMOOTH",
"417 -130 OFFCURVE",
"618 -130 QCURVE SMOOTH",
"855 -130 OFFCURVE",
"949 -69 QCURVE SMOOTH",
"1009 -30 OFFCURVE",
"1009 1 QCURVE SMOOTH",
"1009 41 OFFCURVE",
"968 41 QCURVE SMOOTH",
"954 41 OFFCURVE",
"935 25 QCURVE SMOOTH",
"850 -46 OFFCURVE",
"630 -46 QCURVE SMOOTH",
"460 -46 OFFCURVE",
"342 105 QCURVE SMOOTH",
"234 243 OFFCURVE",
"234 408 QCURVE SMOOTH",
"234 739 LINE SMOOTH",
"234 901 OFFCURVE",
"340 1048 QCURVE SMOOTH",
"457 1212 OFFCURVE",
"621 1212 QCURVE SMOOTH",
"737 1212 OFFCURVE",
"844 1139 QCURVE SMOOTH",
"959 1062 OFFCURVE",
"959 962 QCURVE SMOOTH",
"959 839 LINE",
"821 867 OFFCURVE",
"713 867 QCURVE SMOOTH",
"561 867 OFFCURVE",
"452 807 QCURVE SMOOTH",
"316 733 OFFCURVE",
"316 593 QCURVE SMOOTH",
"316 478 OFFCURVE",
"407 413 QCURVE SMOOTH",
"487 355 OFFCURVE",
"606 355 QCURVE SMOOTH",
"794 355 OFFCURVE",
"959 494 QCURVE",
"959 384 LINE",
"1106 384 LINE SMOOTH",
"1162 384 OFFCURVE",
"1162 426 QCURVE SMOOTH",
"1162 469 OFFCURVE"
);
},
{
closed = 1;
nodes = (
"603 430 QCURVE SMOOTH",
"516 430 OFFCURVE",
"459 467 QCURVE SMOOTH",
"392 511 OFFCURVE",
"392 593 QCURVE SMOOTH",
"392 696 OFFCURVE",
"512 750 QCURVE SMOOTH",
"604 791 OFFCURVE",
"721 791 QCURVE SMOOTH",
"856 791 OFFCURVE",
"959 762 QCURVE",
"959 595 LINE",
"788 430 OFFCURVE"
);
}
);
};
layerId = m01;
paths = (
{
closed = 1;
nodes = (
"776 -130 OFFCURVE",
"886 -110 OFFCURVE",
"949 -69 CURVE SMOOTH",
"989 -43 OFFCURVE",
"1009 -20 OFFCURVE",
"1009 1 CURVE SMOOTH",
"1009 28 OFFCURVE",
"995 41 OFFCURVE",
"968 41 CURVE SMOOTH",
"959 41 OFFCURVE",
"948 36 OFFCURVE",
"935 25 CURVE SMOOTH",
"878 -22 OFFCURVE",
"777 -46 OFFCURVE",
"630 -46 CURVE SMOOTH",
"517 -46 OFFCURVE",
"421 4 OFFCURVE",
"342 105 CURVE SMOOTH",
"270 197 OFFCURVE",
"234 298 OFFCURVE",
"234 408 CURVE SMOOTH",
"234 739 LINE SMOOTH",
"234 847 OFFCURVE",
"269 950 OFFCURVE",
"340 1048 CURVE SMOOTH",
"418 1157 OFFCURVE",
"512 1212 OFFCURVE",
"621 1212 CURVE SMOOTH",
"698 1212 OFFCURVE",
"773 1188 OFFCURVE",
"844 1139 CURVE SMOOTH",
"921 1088 OFFCURVE",
"959 1029 OFFCURVE",
"959 962 CURVE SMOOTH",
"959 839 LINE",
"867 858 OFFCURVE",
"785 867 OFFCURVE",
"713 867 CURVE SMOOTH",
"612 867 OFFCURVE",
"525 847 OFFCURVE",
"452 807 CURVE SMOOTH",
"361 758 OFFCURVE",
"316 686 OFFCURVE",
"316 593 CURVE SMOOTH",
"316 516 OFFCURVE",
"346 456 OFFCURVE",
"407 413 CURVE SMOOTH",
"460 374 OFFCURVE",
"527 355 OFFCURVE",
"606 355 CURVE SMOOTH",
"731 355 OFFCURVE",
"849 401 OFFCURVE",
"959 494 CURVE",
"959 384 LINE",
"1106 384 LINE SMOOTH",
"1143 384 OFFCURVE",
"1162 398 OFFCURVE",
"1162 426 CURVE SMOOTH",
"1162 455 OFFCURVE",
"1143 469 OFFCURVE",
"1106 469 CURVE SMOOTH",
"1035 469 LINE",
"1036 962 LINE SMOOTH",
"1036 1111 OFFCURVE",
"805 1297 OFFCURVE",
"617 1297 CURVE SMOOTH",
"485 1297 OFFCURVE",
"372 1235 OFFCURVE",
"278 1110 CURVE SMOOTH",
"193 997 OFFCURVE",
"150 875 OFFCURVE",
"150 744 CURVE SMOOTH",
"150 408 LINE SMOOTH",
"150 277 OFFCURVE",
"192 157 OFFCURVE",
"277 48 CURVE SMOOTH",
"370 -71 OFFCURVE",
"484 -130 OFFCURVE",
"618 -130 CURVE SMOOTH"
);
},
{
closed = 1;
nodes = (
"545 430 OFFCURVE",
"497 442 OFFCURVE",
"459 467 CURVE SMOOTH",
"414 496 OFFCURVE",
"392 538 OFFCURVE",
"392 593 CURVE SMOOTH",
"392 662 OFFCURVE",
"432 714 OFFCURVE",
"512 750 CURVE SMOOTH",
"573 777 OFFCURVE",
"643 791 OFFCURVE",
"721 791 CURVE SMOOTH",
"811 791 OFFCURVE",
"890 781 OFFCURVE",
"959 762 CURVE",
"959 595 LINE",
"845 485 OFFCURVE",
"726 430 OFFCURVE",
"603 430 CURVE SMOOTH"
);
}
);
userData = {
assembly = "NPUSHB[ ]	/* 53 values pushed */
1 69 69 64 70 0 34 16 4 36 52 53 6 3 63 6 10 26 25 6 45 44 57 56 17 16 4 5 3 5 0 54 53 8 3 2 67 8 6 21 8 49 30 8 40 59 8 14 49 40 1 44 70
SROUND[ ]	/* SuperRound */
MDAP[1]	/* MoveDirectAbsPt */
SHZ[1]	/* ShiftZoneByLastPoint */
RTG[ ]	/* RoundToGrid */
SVTCA[0]	/* SetFreedomAndProjectionVectorToAxis */
MDAP[1]	/* MoveDirectAbsPt */
MDAP[1]	/* MoveDirectAbsPt */
MDAP[1]	/* MoveDirectAbsPt */
MIRP[11101]	/* MoveIndirectRelPt */
SRP0[ ]	/* SetRefPoint0 */
MIRP[11101]	/* MoveIndirectRelPt */
SRP0[ ]	/* SetRefPoint0 */
MIRP[11101]	/* MoveIndirectRelPt */
MDAP[1]	/* MoveDirectAbsPt */
MIRP[11101]	/* MoveIndirectRelPt */
MDAP[1]	/* MoveDirectAbsPt */
ALIGNRP[ ]	/* AlignRelativePt */
MIRP[11101]	/* MoveIndirectRelPt */
ALIGNRP[ ]	/* AlignRelativePt */
SVTCA[1]	/* SetFreedomAndProjectionVectorToAxis */
MDAP[1]	/* MoveDirectAbsPt */
MIRP[11101]	/* MoveIndirectRelPt */
SLOOP[ ]	/* SetLoopVariable */
ALIGNRP[ ]	/* AlignRelativePt */
MDAP[1]	/* MoveDirectAbsPt */
ALIGNRP[ ]	/* AlignRelativePt */
MIRP[11101]	/* MoveIndirectRelPt */
ALIGNRP[ ]	/* AlignRelativePt */
MDAP[1]	/* MoveDirectAbsPt */
MIRP[11101]	/* MoveIndirectRelPt */
SRP0[ ]	/* SetRefPoint0 */
MIRP[11101]	/* MoveIndirectRelPt */
ALIGNRP[ ]	/* AlignRelativePt */
MDAP[0]	/* MoveDirectAbsPt */
SVTCA[0]	/* SetFreedomAndProjectionVectorToAxis */
MDAP[0]	/* MoveDirectAbsPt */
MDAP[0]	/* MoveDirectAbsPt */
MDAP[0]	/* MoveDirectAbsPt */
IUP[1]	/* InterpolateUntPts */
IUP[0]	/* InterpolateUntPts */
SVTCA[1]	/* SetFreedomAndProjectionVectorToAxis */
MD[0]	/* MeasureDistance */
ROUND[00]	/* Round */
PUSHW[ ]	/* 2 values pushed */
44 69
MD[0]	/* MeasureDistance */
ROUND[00]	/* Round */
SUB[ ]	/* Subtract */
PUSHB[ ]	/* 1 value pushed */
64
GT[ ]	/* GreaterThan */
IF[ ]	/* If */
SHPIX[ ]	/* ShiftZoneByPixel */
SRP1[ ]	/* SetRefPoint1 */
SHZ[1]	/* ShiftZoneByLastPoint */
PUSHW[ ]	/* 2 values pushed */
69 -64
SHPIX[ ]	/* ShiftZoneByPixel */
EIF[ ]	/* EndIf */";
};
width = 1307;
}
);
note = at;
unicode = 0040;
},
{
glyphname = A;
lastChange = "2025-02-10 17:38:38 +0000";
layers = (
{
background = {
paths = (
{
closed = 1;
nodes = (
"1230 84 QCURVE SMOOTH",
"1159 84 LINE",
"753 1170 LINE",
"613 1171 LINE",
"207 84 LINE",
"136 84 LINE SMOOTH",
"80 84 OFFCURVE",
"80 41 QCURVE SMOOTH",
"80 -1 OFFCURVE",
"136 -1 QCURVE SMOOTH",
"362 -1 LINE SMOOTH",
"418 -1 OFFCURVE",
"418 41 QCURVE SMOOTH",
"418 84 OFFCURVE",
"362 84 QCURVE SMOOTH",
"301 84 LINE",
"408 391 LINE",
"960 391 LINE",
"1075 84 LINE",
"1004 84 LINE SMOOTH",
"948 84 OFFCURVE",
"948 41 QCURVE SMOOTH",
"948 -1 OFFCURVE",
"1004 -1 QCURVE SMOOTH",
"1230 -1 LINE SMOOTH",
"1286 -1 OFFCURVE",
"1286 41 QCURVE SMOOTH",
"1286 84 OFFCURVE"
);
},
{
closed = 1;
nodes = (
"665 1086 LINE",
"696 1086 LINE",
"928 475 LINE",
"440 475 LINE"
);
}
);
};
layerId = m01;
paths = (
{
closed = 1;
nodes = (
"362 -1 LINE SMOOTH",
"399 -1 OFFCURVE",
"418 13 OFFCURVE",
"418 41 CURVE SMOOTH",
"418 70 OFFCURVE",
"399 84 OFFCURVE",
"362 84 CURVE SMOOTH",
"301 84 LINE",
"408 391 LINE",
"960 391 LINE",
"1075 84 LINE",
"1004 84 LINE SMOOTH",
"967 84 OFFCURVE",
"948 70 OFFCURVE",
"948 41 CURVE SMOOTH",
"948 13 OFFCURVE",
"967 -1 OFFCURVE",
"1004 -1 CURVE SMOOTH",
"1230 -1 LINE SMOOTH",
"1267 -1 OFFCURVE",
"1286 13 OFFCURVE",
"1286 41 CURVE SMOOTH",
"1286 70 OFFCURVE",
"1267 84 OFFCURVE",
"1230 84 CURVE SMOOTH",
"1159 84 LINE",
"753 1170 LINE",
"613 1171 LINE",
"207 84 LINE",
"136 84 LINE SMOOTH",
"99 84 OFFCURVE",
"80 70 OFFCURVE",
"80 41 CURVE SMOOTH",
"80 13 OFFCURVE",
"99 -1 OFFCURVE",
"136 -1 CURVE SMOOTH"
);
},
{
closed = 1;
nodes = (
"665 1086 LINE",
"696 1086 LINE",
"928 475 LINE",
"440 475 LINE"
);
}
);
userData = {
assembly = "NPUSHB[ ]	/* 80 values pushed */
1 32 32 64 33 0 31 28 11 8 31 31 28 10 9 10 30 11 9 23 23 24 22 22 23 8 9 9 9 10 25 24 24 25 28 31 28 29 9 25 24 24 25 5 5 0 14 5 19 26 25 22 21 12 11 8 7 7 8 2 31 28 8 10 9 30 29 8 24 23 3 17 16 3 3 2 1 1 19 70
SROUND[ ]	/* SuperRound */
MDAP[1]	/* MoveDirectAbsPt */
SHZ[1]	/* ShiftZoneByLastPoint */
RTG[ ]	/* RoundToGrid */
SVTCA[0]	/* SetFreedomAndProjectionVectorToAxis */
MIAP[1]	/* MoveIndirectAbsPt */
SLOOP[ ]	/* SetLoopVariable */
ALIGNRP[ ]	/* AlignRelativePt */
MIAP[1]	/* MoveIndirectAbsPt */
MDAP[1]	/* MoveDirectAbsPt */
MIRP[11101]	/* MoveIndirectRelPt */
ALIGNRP[ ]	/* AlignRelativePt */
MDAP[1]	/* MoveDirectAbsPt */
ALIGNRP[ ]	/* AlignRelativePt */
MIRP[11101]	/* MoveIndirectRelPt */
ALIGNRP[ ]	/* AlignRelativePt */
SRP0[ ]	/* SetRefPoint0 */
MIRP[11101]	/* MoveIndirectRelPt */
SLOOP[ ]	/* SetLoopVariable */
ALIGNRP[ ]	/* AlignRelativePt */
SVTCA[1]	/* SetFreedomAndProjectionVectorToAxis */
MDAP[1]	/* MoveDirectAbsPt */
MIRP[11101]	/* MoveIndirectRelPt */
MDAP[1]	/* MoveDirectAbsPt */
MIRP[11101]	/* MoveIndirectRelPt */
SDPVTL[1]	/* SetDualPVectorToLine */
MDAP[0]	/* MoveDirectAbsPt */
SFVTPV[ ]	/* SetFVectorToPVector */
MDRP[00100]	/* MoveDirectRelPt */
SFVTPV[ ]	/* SetFVectorToPVector */
MIRP[11100]	/* MoveIndirectRelPt */
SFVTL[0]	/* SetFVectorToLine */
MDRP[00100]	/* MoveDirectRelPt */
SDPVTL[1]	/* SetDualPVectorToLine */
MDAP[0]	/* MoveDirectAbsPt */
SFVTPV[ ]	/* SetFVectorToPVector */
MDRP[00100]	/* MoveDirectRelPt */
SFVTL[0]	/* SetFVectorToLine */
MIRP[11100]	/* MoveIndirectRelPt */
SFVTPV[ ]	/* SetFVectorToPVector */
MDRP[00100]	/* MoveDirectRelPt */
SDPVTL[1]	/* SetDualPVectorToLine */
MDAP[0]	/* MoveDirectAbsPt */
SFVTL[0]	/* SetFVectorToLine */
MDRP[00100]	/* MoveDirectRelPt */
SFVTPV[ ]	/* SetFVectorToPVector */
MIRP[11100]	/* MoveIndirectRelPt */
SFVTPV[ ]	/* SetFVectorToPVector */
MDRP[00100]	/* MoveDirectRelPt */
SFVTL[0]	/* SetFVectorToLine */
MDRP[00100]	/* MoveDirectRelPt */
SFVTL[0]	/* SetFVectorToLine */
MDRP[00100]	/* MoveDirectRelPt */
SVTCA[1]	/* SetFreedomAndProjectionVectorToAxis */
MDAP[0]	/* MoveDirectAbsPt */
MDAP[0]	/* MoveDirectAbsPt */
MDAP[0]	/* MoveDirectAbsPt */
MDAP[0]	/* MoveDirectAbsPt */
SVTCA[0]	/* SetFreedomAndProjectionVectorToAxis */
IUP[1]	/* InterpolateUntPts */
IUP[0]	/* InterpolateUntPts */
SVTCA[1]	/* SetFreedomAndProjectionVectorToAxis */
MD[0]	/* MeasureDistance */
ROUND[00]	/* Round */
PUSHW[ ]	/* 2 values pushed */
19 32
MD[0]	/* MeasureDistance */
ROUND[00]	/* Round */
SUB[ ]	/* Subtract */
PUSHB[ ]	/* 1 value pushed */
64
GT[ ]	/* GreaterThan */
IF[ ]	/* If */
SHPIX[ ]	/* ShiftZoneByPixel */
SRP1[ ]	/* SetRefPoint1 */
SHZ[1]	/* ShiftZoneByLastPoint */
PUSHW[ ]	/* 2 values pushed */
32 -64
SHPIX[ ]	/* ShiftZoneByPixel */
EIF[ ]	/* EndIf */";
};
width = 1356;
}
);
note = A;
unicode = 0041;
},
{
glyphname = B;
lastChange = "2025-02-10 17:38:38 +0000";
layers = (
{
background = {
paths = (
{
closed = 1;
nodes = (
"881 618 QCURVE",
"1046 713 OFFCURVE",
"1046 867 QCURVE SMOOTH",
"1046 1004 OFFCURVE",
"935 1090 QCURVE SMOOTH",
"833 1170 OFFCURVE",
"692 1170 QCURVE SMOOTH",
"206 1171 LINE SMOOTH",
"150 1171 OFFCURVE",
"150 1129 QCURVE SMOOTH",
"150 1086 OFFCURVE",
"206 1086 QCURVE SMOOTH",
"277 1086 LINE",
"277 84 LINE",
"206 84 LINE SMOOTH",
"150 84 OFFCURVE",
"150 41 QCURVE SMOOTH",
"150 -1 OFFCURVE",
"206 -1 QCURVE SMOOTH",
"792 0 LINE SMOOTH",
"930 0 OFFCURVE",
"1030 91 QCURVE SMOOTH",
"1134 185 OFFCURVE",
"1134 321 QCURVE SMOOTH",
"1134 527 OFFCURVE"
);
},
{
closed = 1;
nodes = (
"860 702 QCURVE SMOOTH",
"776 650 OFFCURVE",
"658 650 QCURVE SMOOTH",
"361 650 LINE",
"361 1086 LINE",
"694 1086 LINE SMOOTH",
"794 1086 OFFCURVE",
"872 1031 QCURVE SMOOTH",
"961 970 OFFCURVE",
"961 874 QCURVE SMOOTH",
"961 763 OFFCURVE"
);
},
{
closed = 1;
nodes = (
"967 149 QCURVE SMOOTH",
"890 84 OFFCURVE",
"786 84 QCURVE SMOOTH",
"361 84 LINE",
"361 565 LINE",
"663 565 LINE SMOOTH",
"914 565 OFFCURVE",
"1005 443 QCURVE SMOOTH",
"1049 383 OFFCURVE",
"1049 319 QCURVE SMOOTH",
"1049 217 OFFCURVE"
);
}
);
};
layerId = m01;
paths = (
{
closed = 1;
nodes = (
"792 0 LINE SMOOTH",
"884 0 OFFCURVE",
"963 30 OFFCURVE",
"1030 91 CURVE SMOOTH",
"1099 154 OFFCURVE",
"1134 230 OFFCURVE",
"1134 321 CURVE SMOOTH",
"1134 458 OFFCURVE",
"1050 557 OFFCURVE",
"881 618 CURVE",
"991 681 OFFCURVE",
"1046 764 OFFCURVE",
"1046 867 CURVE SMOOTH",
"1046 958 OFFCURVE",
"1009 1033 OFFCURVE",
"935 1090 CURVE SMOOTH",
"867 1143 OFFCURVE",
"786 1170 OFFCURVE",
"692 1170 CURVE SMOOTH",
"206 1171 LINE SMOOTH",
"169 1171 OFFCURVE",
"150 1157 OFFCURVE",
"150 1129 CURVE SMOOTH",
"150 1100 OFFCURVE",
"169 1086 OFFCURVE",
"206 1086 CURVE SMOOTH",
"277 1086 LINE",
"277 84 LINE",
"206 84 LINE SMOOTH",
"169 84 OFFCURVE",
"150 70 OFFCURVE",
"150 41 CURVE SMOOTH",
"150 13 OFFCURVE",
"169 -1 OFFCURVE",
"206 -1 CURVE SMOOTH"
);
},
{
closed = 1;
nodes = (
"361 565 LINE",
"663 565 LINE SMOOTH",
"830 565 OFFCURVE",
"944 524 OFFCURVE",
"1005 443 CURVE SMOOTH",
"1034 403 OFFCURVE",
"1049 362 OFFCURVE",
"1049 319 CURVE SMOOTH",
"1049 251 OFFCURVE",
"1022 194 OFFCURVE",
"967 149 CURVE SMOOTH",
"916 106 OFFCURVE",
"855 84 OFFCURVE",
"786 84 CURVE SMOOTH",
"361 84 LINE"
);
},
{
closed = 1;
nodes = (
"361 1086 LINE",
"694 1086 LINE SMOOTH",
"761 1086 OFFCURVE",
"820 1068 OFFCURVE",
"872 1031 CURVE SMOOTH",
"931 990 OFFCURVE",
"961 938 OFFCURVE",
"961 874 CURVE SMOOTH",
"961 800 OFFCURVE",
"927 743 OFFCURVE",
"860 702 CURVE SMOOTH",
"804 667 OFFCURVE",
"737 650 OFFCURVE",
"658 650 CURVE SMOOTH",
"361 650 LINE"
);
}
);
userData = {
assembly = "NPUSHB[ ]	/* 49 values pushed */
1 47 47 64 48 0 23 14 7 42 41 31 3 30 6 11 10 25 6 21 36 6 0 43 42 10 3 9 8 4 30 29 12 3 11 8 17 41 40 8 32 31 16 3 5 1 1 7 70
SROUND[ ]	/* SuperRound */
MDAP[1]	/* MoveDirectAbsPt */
SHZ[1]	/* ShiftZoneByLastPoint */
RTG[ ]	/* RoundToGrid */
SVTCA[0]	/* SetFreedomAndProjectionVectorToAxis */
MIAP[1]	/* MoveIndirectAbsPt */
MIAP[1]	/* MoveIndirectAbsPt */
MDAP[1]	/* MoveDirectAbsPt */
ALIGNRP[ ]	/* AlignRelativePt */
MIRP[11101]	/* MoveIndirectRelPt */
ALIGNRP[ ]	/* AlignRelativePt */
MDAP[1]	/* MoveDirectAbsPt */
MIRP[11101]	/* MoveIndirectRelPt */
SLOOP[ ]	/* SetLoopVariable */
ALIGNRP[ ]	/* AlignRelativePt */
MDAP[1]	/* MoveDirectAbsPt */
MIRP[11101]	/* MoveIndirectRelPt */
SLOOP[ ]	/* SetLoopVariable */
ALIGNRP[ ]	/* AlignRelativePt */
SVTCA[1]	/* SetFreedomAndProjectionVectorToAxis */
MDAP[1]	/* MoveDirectAbsPt */
MIRP[11101]	/* MoveIndirectRelPt */
MDAP[1]	/* MoveDirectAbsPt */
MIRP[11101]	/* MoveIndirectRelPt */
MDAP[1]	/* MoveDirectAbsPt */
ALIGNRP[ ]	/* AlignRelativePt */
MIRP[11101]	/* MoveIndirectRelPt */
SLOOP[ ]	/* SetLoopVariable */
ALIGNRP[ ]	/* AlignRelativePt */
MDAP[0]	/* MoveDirectAbsPt */
MDAP[0]	/* MoveDirectAbsPt */
MDAP[0]	/* MoveDirectAbsPt */
SVTCA[0]	/* SetFreedomAndProjectionVectorToAxis */
IUP[1]	/* InterpolateUntPts */
IUP[0]	/* InterpolateUntPts */
SVTCA[1]	/* SetFreedomAndProjectionVectorToAxis */
MD[0]	/* MeasureDistance */
ROUND[00]	/* Round */
PUSHW[ ]	/* 2 values pushed */
7 47
MD[0]	/* MeasureDistance */
ROUND[00]	/* Round */
SUB[ ]	/* Subtract */
PUSHB[ ]	/* 1 value pushed */
64
GT[ ]	/* GreaterThan */
IF[ ]	/* If */
SHPIX[ ]	/* ShiftZoneByPixel */
SRP1[ ]	/* SetRefPoint1 */
SHZ[1]	/* ShiftZoneByLastPoint */
PUSHW[ ]	/* 2 values pushed */
47 -64
SHPIX[ ]	/* ShiftZoneByPixel */
EIF[ ]	/* EndIf */";
};
width = 1284;
}
);
note = B;
unicode = 0042;
},
{
glyphname = C;
lastChange = "2025-02-10 17:38:38 +0000";
layers = (
{
background = {
paths = (
{
closed = 1;
nodes = (
"1060 261 QCURVE SMOOTH",
"1047 261 OFFCURVE",
"992 207 QCURVE SMOOTH",
"924 139 OFFCURVE",
"865 105 QCURVE SMOOTH",
"771 51 OFFCURVE",
"663 51 QCURVE SMOOTH",
"478 51 OFFCURVE",
"344 192 QCURVE SMOOTH",
"211 330 OFFCURVE",
"211 516 QCURVE SMOOTH",
"211 663 LINE SMOOTH",
"211 843 OFFCURVE",
"329 976 QCURVE SMOOTH",
"451 1113 OFFCURVE",
"629 1113 QCURVE SMOOTH",
"777 1113 OFFCURVE",
"893 1024 QCURVE SMOOTH",
"961 972 OFFCURVE",
"978 907 QCURVE SMOOTH",
"996 837 OFFCURVE",
"998 836 QCURVE",
"1009 824 OFFCURVE",
"1026 824 QCURVE SMOOTH",
"1068 824 OFFCURVE",
"1068 881 QCURVE SMOOTH",
"1068 1114 LINE SMOOTH",
"1068 1170 OFFCURVE",
"1026 1170 QCURVE SMOOTH",
"991 1170 OFFCURVE",
"984 1126 QCURVE SMOOTH",
"984 1124 OFFCURVE",
"984 1055 QCURVE",
"834 1197 OFFCURVE",
"626 1197 QCURVE SMOOTH",
"417 1197 OFFCURVE",
"127 886 OFFCURVE",
"127 675 QCURVE SMOOTH",
"127 504 LINE SMOOTH",
"127 335 OFFCURVE",
"246 187 QCURVE SMOOTH",
"421 -33 OFFCURVE",
"665 -33 QCURVE SMOOTH",
"892 -33 OFFCURVE",
"1057 152 QCURVE SMOOTH",
"1100 200 OFFCURVE",
"1100 222 QCURVE SMOOTH",
"1100 261 OFFCURVE"
);
}
);
};
layerId = m01;
paths = (
{
closed = 1;
nodes = (
"816 -33 OFFCURVE",
"947 29 OFFCURVE",
"1057 152 CURVE SMOOTH",
"1086 184 OFFCURVE",
"1100 207 OFFCURVE",
"1100 222 CURVE SMOOTH",
"1100 248 OFFCURVE",
"1087 261 OFFCURVE",
"1060 261 CURVE SMOOTH",
"1051 261 OFFCURVE",
"1029 243 OFFCURVE",
"992 207 CURVE SMOOTH",
"947 162 OFFCURVE",
"904 128 OFFCURVE",
"865 105 CURVE SMOOTH",
"802 69 OFFCURVE",
"735 51 OFFCURVE",
"663 51 CURVE SMOOTH",
"540 51 OFFCURVE",
"433 98 OFFCURVE",
"344 192 CURVE SMOOTH",
"255 284 OFFCURVE",
"211 392 OFFCURVE",
"211 516 CURVE SMOOTH",
"211 663 LINE SMOOTH",
"211 783 OFFCURVE",
"250 887 OFFCURVE",
"329 976 CURVE SMOOTH",
"410 1067 OFFCURVE",
"510 1113 OFFCURVE",
"629 1113 CURVE SMOOTH",
"728 1113 OFFCURVE",
"816 1083 OFFCURVE",
"893 1024 CURVE SMOOTH",
"938 989 OFFCURVE",
"967 950 OFFCURVE",
"978 907 CURVE SMOOTH",
"990 860 OFFCURVE",
"997 837 OFFCURVE",
"998 836 CURVE SMOOTH",
"1005 828 OFFCURVE",
"1015 824 OFFCURVE",
"1026 824 CURVE SMOOTH",
"1054 824 OFFCURVE",
"1068 843 OFFCURVE",
"1068 881 CURVE SMOOTH",
"1068 1114 LINE SMOOTH",
"1068 1151 OFFCURVE",
"1054 1170 OFFCURVE",
"1026 1170 CURVE SMOOTH",
"1003 1170 OFFCURVE",
"989 1155 OFFCURVE",
"984 1126 CURVE",
"984 1055 LINE",
"884 1150 OFFCURVE",
"765 1197 OFFCURVE",
"626 1197 CURVE SMOOTH",
"347 1197 OFFCURVE",
"127 956 OFFCURVE",
"127 675 CURVE SMOOTH",
"127 504 LINE SMOOTH",
"127 391 OFFCURVE",
"167 286 OFFCURVE",
"246 187 CURVE SMOOTH",
"363 40 OFFCURVE",
"502 -33 OFFCURVE",
"665 -33 CURVE SMOOTH"
);
}
);
userData = {
assembly = "NPUSHB[ ]	/* 36 values pushed */
1 48 48 64 49 0 46 14 21 20 16 14 0 36 35 6 9 8 23 7 18 40 8 4 31 8 12 18 3 12 3 4 1 1 8 70
SROUND[ ]	/* SuperRound */
MDAP[1]	/* MoveDirectAbsPt */
SHZ[1]	/* ShiftZoneByLastPoint */
RTG[ ]	/* RoundToGrid */
SVTCA[0]	/* SetFreedomAndProjectionVectorToAxis */
MIAP[1]	/* MoveIndirectAbsPt */
MIAP[1]	/* MoveIndirectAbsPt */
MIAP[1]	/* MoveIndirectAbsPt */
SRP0[ ]	/* SetRefPoint0 */
MIRP[11101]	/* MoveIndirectRelPt */
SRP0[ ]	/* SetRefPoint0 */
MIRP[11101]	/* MoveIndirectRelPt */
SRP0[ ]	/* SetRefPoint0 */
MIRP[11101]	/* MoveIndirectRelPt */
SVTCA[1]	/* SetFreedomAndProjectionVectorToAxis */
MDAP[1]	/* MoveDirectAbsPt */
ALIGNRP[ ]	/* AlignRelativePt */
MIRP[11101]	/* MoveIndirectRelPt */
ALIGNRP[ ]	/* AlignRelativePt */
MDAP[0]	/* MoveDirectAbsPt */
MDAP[0]	/* MoveDirectAbsPt */
MDAP[0]	/* MoveDirectAbsPt */
MDAP[0]	/* MoveDirectAbsPt */
MDAP[0]	/* MoveDirectAbsPt */
SVTCA[0]	/* SetFreedomAndProjectionVectorToAxis */
MDAP[0]	/* MoveDirectAbsPt */
MDAP[0]	/* MoveDirectAbsPt */
IUP[1]	/* InterpolateUntPts */
IUP[0]	/* InterpolateUntPts */
SVTCA[1]	/* SetFreedomAndProjectionVectorToAxis */
MD[0]	/* MeasureDistance */
ROUND[00]	/* Round */
PUSHW[ ]	/* 2 values pushed */
8 48
MD[0]	/* MeasureDistance */
ROUND[00]	/* Round */
SUB[ ]	/* Subtract */
PUSHB[ ]	/* 1 value pushed */
64
GT[ ]	/* GreaterThan */
IF[ ]	/* If */
SHPIX[ ]	/* ShiftZoneByPixel */
SRP1[ ]	/* SetRefPoint1 */
SHZ[1]	/* ShiftZoneByLastPoint */
PUSHW[ ]	/* 2 values pushed */
48 -64
SHPIX[ ]	/* ShiftZoneByPixel */
EIF[ ]	/* EndIf */";
};
width = 1229;
}
);
note = C;
unicode = 0043;
},
{
glyphname = D;
lastChange = "2025-02-10 17:38:38 +0000";
layers = (
{
background = {
paths = (
{
closed = 1;
nodes = (
"1105 825 QCURVE SMOOTH",
"974 1170 OFFCURVE",
"658 1170 QCURVE SMOOTH",
"206 1169 LINE SMOOTH",
"150 1169 OFFCURVE",
"150 1127 QCURVE SMOOTH",
"150 1084 OFFCURVE",
"206 1084 QCURVE SMOOTH",
"277 1084 LINE",
"277 84 LINE",
"206 84 LINE SMOOTH",
"150 84 OFFCURVE",
"150 41 QCURVE SMOOTH",
"150 23 OFFCURVE",
"163 11 QCURVE",
"189 1 OFFCURVE",
"206 -1 QCURVE",
"658 0 LINE SMOOTH",
"862 0 OFFCURVE",
"1001 164 QCURVE SMOOTH",
"1134 320 OFFCURVE",
"1134 527 QCURVE SMOOTH",
"1134 749 OFFCURVE"
);
},
{
closed = 1;
nodes = (
"938 220 QCURVE SMOOTH",
"821 84 OFFCURVE",
"666 84 QCURVE SMOOTH",
"361 84 LINE",
"361 1086 LINE",
"666 1086 LINE SMOOTH",
"823 1086 OFFCURVE",
"939 950 QCURVE SMOOTH",
"1050 820 OFFCURVE",
"1050 661 QCURVE SMOOTH",
"1050 509 LINE SMOOTH",
"1050 351 OFFCURVE"
);
}
);
};
layerId = m01;
paths = (
{
closed = 1;
nodes = (
"658 0 LINE SMOOTH",
"794 0 OFFCURVE",
"908 55 OFFCURVE",
"1001 164 CURVE SMOOTH",
"1090 268 OFFCURVE",
"1134 389 OFFCURVE",
"1134 527 CURVE SMOOTH",
"1134 675 OFFCURVE",
"1124 774 OFFCURVE",
"1105 825 CURVE SMOOTH",
"1018 1055 OFFCURVE",
"869 1170 OFFCURVE",
"658 1170 CURVE SMOOTH",
"206 1169 LINE SMOOTH",
"169 1169 OFFCURVE",
"150 1155 OFFCURVE",
"150 1127 CURVE SMOOTH",
"150 1098 OFFCURVE",
"169 1084 OFFCURVE",
"206 1084 CURVE SMOOTH",
"277 1084 LINE",
"277 84 LINE",
"206 84 LINE SMOOTH",
"169 84 OFFCURVE",
"150 70 OFFCURVE",
"150 41 CURVE SMOOTH",
"150 29 OFFCURVE",
"154 19 OFFCURVE",
"163 11 CURVE",
"180 4 OFFCURVE",
"195 0 OFFCURVE",
"206 -1 CURVE"
);
},
{
closed = 1;
nodes = (
"361 1086 LINE",
"666 1086 LINE SMOOTH",
"771 1086 OFFCURVE",
"862 1041 OFFCURVE",
"939 950 CURVE SMOOTH",
"1013 863 OFFCURVE",
"1050 767 OFFCURVE",
"1050 661 CURVE SMOOTH",
"1050 509 LINE SMOOTH",
"1050 404 OFFCURVE",
"1013 307 OFFCURVE",
"938 220 CURVE SMOOTH",
"860 129 OFFCURVE",
"769 84 OFFCURVE",
"666 84 CURVE SMOOTH",
"361 84 LINE"
);
}
);
userData = {
assembly = "NPUSHB[ ]	/* 38 values pushed */
1 35 35 64 36 0 16 9 30 29 6 13 12 24 23 6 0 31 30 12 3 11 8 4 29 14 13 3 28 8 19 19 3 5 1 1 9 70
SROUND[ ]	/* SuperRound */
MDAP[1]	/* MoveDirectAbsPt */
SHZ[1]	/* ShiftZoneByLastPoint */
RTG[ ]	/* RoundToGrid */
SVTCA[0]	/* SetFreedomAndProjectionVectorToAxis */
MIAP[1]	/* MoveIndirectAbsPt */
MIAP[1]	/* MoveIndirectAbsPt */
SRP0[ ]	/* SetRefPoint0 */
MIRP[11101]	/* MoveIndirectRelPt */
SLOOP[ ]	/* SetLoopVariable */
ALIGNRP[ ]	/* AlignRelativePt */
MDAP[1]	/* MoveDirectAbsPt */
MIRP[11101]	/* MoveIndirectRelPt */
SLOOP[ ]	/* SetLoopVariable */
ALIGNRP[ ]	/* AlignRelativePt */
SVTCA[1]	/* SetFreedomAndProjectionVectorToAxis */
MDAP[1]	/* MoveDirectAbsPt */
MIRP[11101]	/* MoveIndirectRelPt */
ALIGNRP[ ]	/* AlignRelativePt */
MDAP[1]	/* MoveDirectAbsPt */
ALIGNRP[ ]	/* AlignRelativePt */
MIRP[11101]	/* MoveIndirectRelPt */
ALIGNRP[ ]	/* AlignRelativePt */
MDAP[0]	/* MoveDirectAbsPt */
MDAP[0]	/* MoveDirectAbsPt */
SVTCA[0]	/* SetFreedomAndProjectionVectorToAxis */
IUP[1]	/* InterpolateUntPts */
IUP[0]	/* InterpolateUntPts */
SVTCA[1]	/* SetFreedomAndProjectionVectorToAxis */
MD[0]	/* MeasureDistance */
ROUND[00]	/* Round */
PUSHW[ ]	/* 2 values pushed */
9 35
MD[0]	/* MeasureDistance */
ROUND[00]	/* Round */
SUB[ ]	/* Subtract */
PUSHB[ ]	/* 1 value pushed */
64
GT[ ]	/* GreaterThan */
IF[ ]	/* If */
SHPIX[ ]	/* ShiftZoneByPixel */
SRP1[ ]	/* SetRefPoint1 */
SHZ[1]	/* ShiftZoneByLastPoint */
PUSHW[ ]	/* 2 values pushed */
35 -64
SHPIX[ ]	/* ShiftZoneByPixel */
EIF[ ]	/* EndIf */";
};
width = 1283;
}
);
note = D;
unicode = 0044;
},
{
glyphname = E;
lastChange = "2025-02-10 17:38:38 +0000";
layers = (
{
background = {
paths = (
{
closed = 1;
nodes = (
"1091 211 OFFCURVE",
"1049 211 QCURVE SMOOTH",
"1005 211 OFFCURVE",
"1006 155 QCURVE SMOOTH",
"1007 84 LINE",
"361 84 LINE",
"361 565 LINE",
"662 565 LINE",
"662 494 LINE SMOOTH",
"662 438 OFFCURVE",
"705 438 QCURVE SMOOTH",
"747 438 OFFCURVE",
"747 494 QCURVE SMOOTH",
"747 720 LINE SMOOTH",
"747 776 OFFCURVE",
"705 776 QCURVE SMOOTH",
"662 776 OFFCURVE",
"662 720 QCURVE SMOOTH",
"662 649 LINE",
"361 649 LINE",
"361 1086 LINE",
"963 1086 LINE",
"962 1015 LINE SMOOTH",
"961 959 OFFCURVE",
"1005 959 QCURVE SMOOTH",
"1047 959 OFFCURVE",
"1047 1015 QCURVE SMOOTH",
"1047 1170 LINE",
"206 1171 LINE SMOOTH",
"150 1171 OFFCURVE",
"150 1129 QCURVE SMOOTH",
"150 1086 OFFCURVE",
"206 1086 QCURVE SMOOTH",
"277 1086 LINE",
"277 84 LINE",
"206 84 LINE SMOOTH",
"150 84 OFFCURVE",
"150 41 QCURVE SMOOTH",
"150 23 OFFCURVE",
"163 11 QCURVE",
"189 1 OFFCURVE",
"206 -1 QCURVE",
"1091 0 LINE",
"1091 155 LINE SMOOTH"
);
}
);
};
layerId = m01;
paths = (
{
closed = 1;
nodes = (
"1091 0 LINE",
"1091 155 LINE SMOOTH",
"1091 192 OFFCURVE",
"1077 211 OFFCURVE",
"1049 211 CURVE SMOOTH",
"1020 211 OFFCURVE",
"1005 192 OFFCURVE",
"1006 155 CURVE SMOOTH",
"1007 84 LINE",
"361 84 LINE",
"361 565 LINE",
"662 565 LINE",
"662 494 LINE SMOOTH",
"662 457 OFFCURVE",
"676 438 OFFCURVE",
"705 438 CURVE SMOOTH",
"733 438 OFFCURVE",
"747 457 OFFCURVE",
"747 494 CURVE SMOOTH",
"747 720 LINE SMOOTH",
"747 757 OFFCURVE",
"733 776 OFFCURVE",
"705 776 CURVE SMOOTH",
"676 776 OFFCURVE",
"662 757 OFFCURVE",
"662 720 CURVE SMOOTH",
"662 649 LINE",
"361 649 LINE",
"361 1086 LINE",
"963 1086 LINE",
"962 1015 LINE SMOOTH",
"961 978 OFFCURVE",
"976 959 OFFCURVE",
"1005 959 CURVE SMOOTH",
"1033 959 OFFCURVE",
"1047 978 OFFCURVE",
"1047 1015 CURVE SMOOTH",
"1047 1170 LINE",
"206 1171 LINE SMOOTH",
"169 1171 OFFCURVE",
"150 1157 OFFCURVE",
"150 1129 CURVE SMOOTH",
"150 1100 OFFCURVE",
"169 1086 OFFCURVE",
"206 1086 CURVE SMOOTH",
"277 1086 LINE",
"277 84 LINE",
"206 84 LINE SMOOTH",
"169 84 OFFCURVE",
"150 70 OFFCURVE",
"150 41 CURVE SMOOTH",
"150 29 OFFCURVE",
"154 19 OFFCURVE",
"163 11 CURVE",
"180 4 OFFCURVE",
"195 0 OFFCURVE",
"206 -1 CURVE"
);
}
);
userData = {
assembly = "NPUSHB[ ]	/* 71 values pushed */
1 44 44 64 45 0 12 5 37 36 23 3 22 6 9 8 21 20 6 16 15 35 34 25 3 24 6 30 29 39 38 6 43 0 32 30 35 41 7 0 18 7 15 38 37 8 3 7 8 0 22 21 10 3 9 8 15 36 35 8 24 23 27 2 14 3 1 1 1 5 70
SROUND[ ]	/* SuperRound */
MDAP[1]	/* MoveDirectAbsPt */
SHZ[1]	/* ShiftZoneByLastPoint */
RTG[ ]	/* RoundToGrid */
SVTCA[0]	/* SetFreedomAndProjectionVectorToAxis */
MIAP[1]	/* MoveIndirectAbsPt */
MIAP[1]	/* MoveIndirectAbsPt */
MIAP[1]	/* MoveIndirectAbsPt */
MDAP[1]	/* MoveDirectAbsPt */
ALIGNRP[ ]	/* AlignRelativePt */
MIRP[11101]	/* MoveIndirectRelPt */
ALIGNRP[ ]	/* AlignRelativePt */
MDAP[1]	/* MoveDirectAbsPt */
MIRP[11101]	/* MoveIndirectRelPt */
SLOOP[ ]	/* SetLoopVariable */
ALIGNRP[ ]	/* AlignRelativePt */
MDAP[1]	/* MoveDirectAbsPt */
MIRP[11101]	/* MoveIndirectRelPt */
SLOOP[ ]	/* SetLoopVariable */
ALIGNRP[ ]	/* AlignRelativePt */
SRP0[ ]	/* SetRefPoint0 */
MIRP[11101]	/* MoveIndirectRelPt */
SRP0[ ]	/* SetRefPoint0 */
MIRP[11101]	/* MoveIndirectRelPt */
SRP0[ ]	/* SetRefPoint0 */
MIRP[11101]	/* MoveIndirectRelPt */
SVTCA[1]	/* SetFreedomAndProjectionVectorToAxis */
MDAP[1]	/* MoveDirectAbsPt */
ALIGNRP[ ]	/* AlignRelativePt */
MIRP[11101]	/* MoveIndirectRelPt */
ALIGNRP[ ]	/* AlignRelativePt */
MDAP[1]	/* MoveDirectAbsPt */
ALIGNRP[ ]	/* AlignRelativePt */
MIRP[11101]	/* MoveIndirectRelPt */
SLOOP[ ]	/* SetLoopVariable */
ALIGNRP[ ]	/* AlignRelativePt */
MDAP[1]	/* MoveDirectAbsPt */
ALIGNRP[ ]	/* AlignRelativePt */
MIRP[11101]	/* MoveIndirectRelPt */
ALIGNRP[ ]	/* AlignRelativePt */
MDAP[1]	/* MoveDirectAbsPt */
ALIGNRP[ ]	/* AlignRelativePt */
MIRP[11101]	/* MoveIndirectRelPt */
SLOOP[ ]	/* SetLoopVariable */
ALIGNRP[ ]	/* AlignRelativePt */
MDAP[0]	/* MoveDirectAbsPt */
MDAP[0]	/* MoveDirectAbsPt */
SVTCA[0]	/* SetFreedomAndProjectionVectorToAxis */
IUP[1]	/* InterpolateUntPts */
IUP[0]	/* InterpolateUntPts */
SVTCA[1]	/* SetFreedomAndProjectionVectorToAxis */
MD[0]	/* MeasureDistance */
ROUND[00]	/* Round */
PUSHW[ ]	/* 2 values pushed */
5 44
MD[0]	/* MeasureDistance */
ROUND[00]	/* Round */
SUB[ ]	/* Subtract */
PUSHB[ ]	/* 1 value pushed */
64
GT[ ]	/* GreaterThan */
IF[ ]	/* If */
SHPIX[ ]	/* ShiftZoneByPixel */
SRP1[ ]	/* SetRefPoint1 */
SHZ[1]	/* ShiftZoneByLastPoint */
PUSHW[ ]	/* 2 values pushed */
44 -64
SHPIX[ ]	/* ShiftZoneByPixel */
EIF[ ]	/* EndIf */";
};
width = 1241;
}
);
note = E;
unicode = 0045;
},
{
glyphname = F;
lastChange = "2025-02-10 17:38:38 +0000";
layers = (
{
background = {
paths = (
{
closed = 1;
nodes = (
"206 1171 LINE SMOOTH",
"150 1171 OFFCURVE",
"150 1129 QCURVE SMOOTH",
"150 1086 OFFCURVE",
"206 1086 QCURVE SMOOTH",
"277 1086 LINE",
"277 84 LINE",
"206 84 LINE SMOOTH",
"150 84 OFFCURVE",
"150 41 QCURVE SMOOTH",
"150 -1 OFFCURVE",
"206 -1 QCURVE SMOOTH",
"432 -1 LINE SMOOTH",
"488 -1 OFFCURVE",
"488 41 QCURVE SMOOTH",
"488 84 OFFCURVE",
"432 84 QCURVE SMOOTH",
"361 84 LINE",
"361 565 LINE",
"662 565 LINE",
"662 494 LINE SMOOTH",
"662 438 OFFCURVE",
"705 438 QCURVE SMOOTH",
"747 438 OFFCURVE",
"747 494 QCURVE SMOOTH",
"747 720 LINE SMOOTH",
"747 776 OFFCURVE",
"705 776 QCURVE SMOOTH",
"662 776 OFFCURVE",
"662 720 QCURVE SMOOTH",
"662 649 LINE",
"361 649 LINE",
"361 1086 LINE",
"1005 1086 LINE",
"1004 1015 LINE SMOOTH",
"1003 959 OFFCURVE",
"1047 959 QCURVE SMOOTH",
"1089 959 OFFCURVE",
"1089 1015 QCURVE SMOOTH",
"1089 1170 LINE"
);
}
);
};
layerId = m01;
paths = (
{
closed = 1;
nodes = (
"432 -1 LINE SMOOTH",
"469 -1 OFFCURVE",
"488 13 OFFCURVE",
"488 41 CURVE SMOOTH",
"488 70 OFFCURVE",
"469 84 OFFCURVE",
"432 84 CURVE SMOOTH",
"361 84 LINE",
"361 565 LINE",
"662 565 LINE",
"662 494 LINE SMOOTH",
"662 457 OFFCURVE",
"676 438 OFFCURVE",
"705 438 CURVE SMOOTH",
"733 438 OFFCURVE",
"747 457 OFFCURVE",
"747 494 CURVE SMOOTH",
"747 720 LINE SMOOTH",
"747 757 OFFCURVE",
"733 776 OFFCURVE",
"705 776 CURVE SMOOTH",
"676 776 OFFCURVE",
"662 757 OFFCURVE",
"662 720 CURVE SMOOTH",
"662 649 LINE",
"361 649 LINE",
"361 1086 LINE",
"1005 1086 LINE",
"1004 1015 LINE SMOOTH",
"1003 978 OFFCURVE",
"1018 959 OFFCURVE",
"1047 959 CURVE SMOOTH",
"1075 959 OFFCURVE",
"1089 978 OFFCURVE",
"1089 1015 CURVE SMOOTH",
"1089 1170 LINE",
"206 1171 LINE SMOOTH",
"169 1171 OFFCURVE",
"150 1157 OFFCURVE",
"150 1129 CURVE SMOOTH",
"150 1100 OFFCURVE",
"169 1086 OFFCURVE",
"206 1086 CURVE SMOOTH",
"277 1086 LINE",
"277 84 LINE",
"206 84 LINE SMOOTH",
"169 84 OFFCURVE",
"150 70 OFFCURVE",
"150 41 CURVE SMOOTH",
"150 13 OFFCURVE",
"169 -1 OFFCURVE",
"206 -1 CURVE SMOOTH"
);
}
);
userData = {
assembly = "NPUSHB[ ]	/* 69 values pushed */
1 40 40 64 41 0 24 24 6 36 29 24 32 5 4 6 39 0 19 18 9 3 8 6 14 13 21 20 7 3 6 6 33 32 16 30 19 2 7 39 34 33 6 3 5 8 39 20 19 8 8 7 32 31 22 3 21 8 26 38 3 27 26 1 11 2 1 29 70
SROUND[ ]	/* SuperRound */
MDAP[1]	/* MoveDirectAbsPt */
SHZ[1]	/* ShiftZoneByLastPoint */
RTG[ ]	/* RoundToGrid */
SVTCA[0]	/* SetFreedomAndProjectionVectorToAxis */
MIAP[1]	/* MoveIndirectAbsPt */
MIAP[1]	/* MoveIndirectAbsPt */
ALIGNRP[ ]	/* AlignRelativePt */
MIAP[1]	/* MoveIndirectAbsPt */
SRP0[ ]	/* SetRefPoint0 */
MIRP[11101]	/* MoveIndirectRelPt */
SLOOP[ ]	/* SetLoopVariable */
ALIGNRP[ ]	/* AlignRelativePt */
MDAP[1]	/* MoveDirectAbsPt */
ALIGNRP[ ]	/* AlignRelativePt */
MIRP[11101]	/* MoveIndirectRelPt */
ALIGNRP[ ]	/* AlignRelativePt */
MDAP[1]	/* MoveDirectAbsPt */
MIRP[11101]	/* MoveIndirectRelPt */
SLOOP[ ]	/* SetLoopVariable */
ALIGNRP[ ]	/* AlignRelativePt */
SRP0[ ]	/* SetRefPoint0 */
MIRP[11101]	/* MoveIndirectRelPt */
SRP0[ ]	/* SetRefPoint0 */
MIRP[11101]	/* MoveIndirectRelPt */
SVTCA[1]	/* SetFreedomAndProjectionVectorToAxis */
MDAP[1]	/* MoveDirectAbsPt */
ALIGNRP[ ]	/* AlignRelativePt */
MIRP[11101]	/* MoveIndirectRelPt */
SLOOP[ ]	/* SetLoopVariable */
ALIGNRP[ ]	/* AlignRelativePt */
MDAP[1]	/* MoveDirectAbsPt */
ALIGNRP[ ]	/* AlignRelativePt */
MIRP[11101]	/* MoveIndirectRelPt */
SLOOP[ ]	/* SetLoopVariable */
ALIGNRP[ ]	/* AlignRelativePt */
MDAP[1]	/* MoveDirectAbsPt */
ALIGNRP[ ]	/* AlignRelativePt */
MIRP[11101]	/* MoveIndirectRelPt */
ALIGNRP[ ]	/* AlignRelativePt */
SRP0[ ]	/* SetRefPoint0 */
MIRP[11101]	/* MoveIndirectRelPt */
ALIGNRP[ ]	/* AlignRelativePt */
SRP0[ ]	/* SetRefPoint0 */
MIRP[11101]	/* MoveIndirectRelPt */
SVTCA[0]	/* SetFreedomAndProjectionVectorToAxis */
IUP[1]	/* InterpolateUntPts */
IUP[0]	/* InterpolateUntPts */
SVTCA[1]	/* SetFreedomAndProjectionVectorToAxis */
MD[0]	/* MeasureDistance */
ROUND[00]	/* Round */
PUSHW[ ]	/* 2 values pushed */
29 40
MD[0]	/* MeasureDistance */
ROUND[00]	/* Round */
SUB[ ]	/* Subtract */
PUSHB[ ]	/* 1 value pushed */
64
GT[ ]	/* GreaterThan */
IF[ ]	/* If */
SHPIX[ ]	/* ShiftZoneByPixel */
SRP1[ ]	/* SetRefPoint1 */
SHZ[1]	/* ShiftZoneByLastPoint */
PUSHW[ ]	/* 2 values pushed */
40 -64
SHPIX[ ]	/* ShiftZoneByPixel */
EIF[ ]	/* EndIf */";
};
width = 1241;
}
);
note = F;
unicode = 0046;
},
{
glyphname = G;
lastChange = "2025-02-10 17:38:38 +0000";
layers = (
{
background = {
paths = (
{
closed = 1;
nodes = (
"1123 517 QCURVE SMOOTH",
"719 518 LINE SMOOTH",
"663 518 OFFCURVE",
"663 475 QCURVE SMOOTH",
"663 433 OFFCURVE",
"719 433 QCURVE SMOOTH",
"1008 433 LINE",
"1008 122 LINE",
"851 50 OFFCURVE",
"715 50 QCURVE SMOOTH",
"496 50 OFFCURVE",
"368 167 QCURVE SMOOTH",
"234 289 OFFCURVE",
"234 505 QCURVE SMOOTH",
"234 658 LINE SMOOTH",
"234 775 OFFCURVE",
"288 869 QCURVE SMOOTH",
"427 1112 OFFCURVE",
"672 1112 QCURVE SMOOTH",
"796 1112 OFFCURVE",
"900 1058 QCURVE SMOOTH",
"964 1024 OFFCURVE",
"991 974 QCURVE SMOOTH",
"998 961 OFFCURVE",
"1016 899 QCURVE SMOOTH",
"1025 867 OFFCURVE",
"1051 867 QCURVE SMOOTH",
"1093 867 OFFCURVE",
"1093 923 QCURVE SMOOTH",
"1093 1113 LINE SMOOTH",
"1093 1169 OFFCURVE",
"1051 1169 QCURVE SMOOTH",
"1019 1169 OFFCURVE",
"1011 1140 QCURVE SMOOTH",
"1008 1129 OFFCURVE",
"1008 1085 QCURVE",
"868 1196 OFFCURVE",
"665 1196 QCURVE SMOOTH",
"444 1196 OFFCURVE",
"150 881 OFFCURVE",
"150 659 QCURVE SMOOTH",
"150 505 LINE SMOOTH",
"150 257 OFFCURVE",
"307 110 QCURVE SMOOTH",
"460 -34 OFFCURVE",
"711 -34 QCURVE SMOOTH",
"899 -34 OFFCURVE",
"1093 73 QCURVE",
"1093 433 LINE",
"1179 433 OFFCURVE",
"1179 475 QCURVE SMOOTH",
"1179 517 OFFCURVE"
);
}
);
};
layerId = m01;
paths = (
{
closed = 1;
nodes = (
"836 -34 OFFCURVE",
"964 2 OFFCURVE",
"1093 73 CURVE",
"1093 433 LINE",
"1150 433 OFFCURVE",
"1179 447 OFFCURVE",
"1179 475 CURVE SMOOTH",
"1179 503 OFFCURVE",
"1160 517 OFFCURVE",
"1123 517 CURVE SMOOTH",
"719 518 LINE SMOOTH",
"682 518 OFFCURVE",
"663 504 OFFCURVE",
"663 475 CURVE SMOOTH",
"663 447 OFFCURVE",
"682 433 OFFCURVE",
"719 433 CURVE SMOOTH",
"1008 433 LINE",
"1008 122 LINE",
"903 74 OFFCURVE",
"806 50 OFFCURVE",
"715 50 CURVE SMOOTH",
"569 50 OFFCURVE",
"453 89 OFFCURVE",
"368 167 CURVE SMOOTH",
"279 248 OFFCURVE",
"234 361 OFFCURVE",
"234 505 CURVE SMOOTH",
"234 658 LINE SMOOTH",
"234 736 OFFCURVE",
"252 806 OFFCURVE",
"288 869 CURVE SMOOTH",
"381 1031 OFFCURVE",
"509 1112 OFFCURVE",
"672 1112 CURVE SMOOTH",
"755 1112 OFFCURVE",
"831 1094 OFFCURVE",
"900 1058 CURVE SMOOTH",
"943 1035 OFFCURVE",
"973 1007 OFFCURVE",
"991 974 CURVE SMOOTH",
"996 965 OFFCURVE",
"1004 940 OFFCURVE",
"1016 899 CURVE SMOOTH",
"1022 878 OFFCURVE",
"1034 867 OFFCURVE",
"1051 867 CURVE SMOOTH",
"1079 867 OFFCURVE",
"1093 886 OFFCURVE",
"1093 923 CURVE SMOOTH",
"1093 1113 LINE SMOOTH",
"1093 1150 OFFCURVE",
"1079 1169 OFFCURVE",
"1051 1169 CURVE SMOOTH",
"1030 1169 OFFCURVE",
"1016 1159 OFFCURVE",
"1011 1140 CURVE SMOOTH",
"1009 1133 OFFCURVE",
"1008 1114 OFFCURVE",
"1008 1085 CURVE",
"915 1159 OFFCURVE",
"800 1196 OFFCURVE",
"665 1196 CURVE SMOOTH",
"370 1196 OFFCURVE",
"150 955 OFFCURVE",
"150 659 CURVE SMOOTH",
"150 505 LINE SMOOTH",
"150 340 OFFCURVE",
"202 208 OFFCURVE",
"307 110 CURVE SMOOTH",
"409 14 OFFCURVE",
"544 -34 OFFCURVE",
"711 -34 CURVE SMOOTH"
);
}
);
userData = {
assembly = "NPUSHB[ ]	/* 46 values pushed */
1 52 52 64 53 0 45 15 47 0 37 36 6 10 9 44 43 6 22 21 3 3 2 24 7 19 41 8 5 32 8 13 49 50 8 44 2 19 3 13 3 5 1 1 9 70
SROUND[ ]	/* SuperRound */
MDAP[1]	/* MoveDirectAbsPt */
SHZ[1]	/* ShiftZoneByLastPoint */
RTG[ ]	/* RoundToGrid */
SVTCA[0]	/* SetFreedomAndProjectionVectorToAxis */
MIAP[1]	/* MoveIndirectAbsPt */
MIAP[1]	/* MoveIndirectAbsPt */
MIAP[1]	/* MoveIndirectAbsPt */
MDAP[1]	/* MoveDirectAbsPt */
ALIGNRP[ ]	/* AlignRelativePt */
MIRP[11101]	/* MoveIndirectRelPt */
ALIGNRP[ ]	/* AlignRelativePt */
SRP0[ ]	/* SetRefPoint0 */
MIRP[11101]	/* MoveIndirectRelPt */
SRP0[ ]	/* SetRefPoint0 */
MIRP[11101]	/* MoveIndirectRelPt */
SRP0[ ]	/* SetRefPoint0 */
MIRP[11101]	/* MoveIndirectRelPt */
SVTCA[1]	/* SetFreedomAndProjectionVectorToAxis */
MDAP[1]	/* MoveDirectAbsPt */
SLOOP[ ]	/* SetLoopVariable */
ALIGNRP[ ]	/* AlignRelativePt */
MIRP[11101]	/* MoveIndirectRelPt */
ALIGNRP[ ]	/* AlignRelativePt */
MDAP[1]	/* MoveDirectAbsPt */
ALIGNRP[ ]	/* AlignRelativePt */
MIRP[11101]	/* MoveIndirectRelPt */
ALIGNRP[ ]	/* AlignRelativePt */
MDAP[0]	/* MoveDirectAbsPt */
MDAP[0]	/* MoveDirectAbsPt */
SVTCA[0]	/* SetFreedomAndProjectionVectorToAxis */
MDAP[0]	/* MoveDirectAbsPt */
MDAP[0]	/* MoveDirectAbsPt */
IUP[1]	/* InterpolateUntPts */
IUP[0]	/* InterpolateUntPts */
SVTCA[1]	/* SetFreedomAndProjectionVectorToAxis */
MD[0]	/* MeasureDistance */
ROUND[00]	/* Round */
PUSHW[ ]	/* 2 values pushed */
9 52
MD[0]	/* MeasureDistance */
ROUND[00]	/* Round */
SUB[ ]	/* Subtract */
PUSHB[ ]	/* 1 value pushed */
64
GT[ ]	/* GreaterThan */
IF[ ]	/* If */
SHPIX[ ]	/* ShiftZoneByPixel */
SRP1[ ]	/* SetRefPoint1 */
SHZ[1]	/* ShiftZoneByLastPoint */
PUSHW[ ]	/* 2 values pushed */
52 -64
SHPIX[ ]	/* ShiftZoneByPixel */
EIF[ ]	/* EndIf */";
};
width = 1327;
}
);
note = G;
unicode = 0047;
},
{
glyphname = H;
lastChange = "2025-02-10 17:38:38 +0000";
layers = (
{
background = {
paths = (
{
closed = 1;
nodes = (
"1074 84 QCURVE SMOOTH",
"1003 84 LINE",
"1003 1086 LINE",
"1074 1086 LINE SMOOTH",
"1130 1086 OFFCURVE",
"1130 1129 QCURVE SMOOTH",
"1130 1171 OFFCURVE",
"1074 1171 QCURVE SMOOTH",
"848 1171 LINE SMOOTH",
"792 1171 OFFCURVE",
"792 1129 QCURVE SMOOTH",
"792 1086 OFFCURVE",
"848 1086 QCURVE SMOOTH",
"919 1086 LINE",
"918 650 LINE",
"361 650 LINE",
"361 1086 LINE",
"432 1086 LINE SMOOTH",
"488 1086 OFFCURVE",
"488 1129 QCURVE SMOOTH",
"488 1171 OFFCURVE",
"432 1171 QCURVE SMOOTH",
"206 1171 LINE SMOOTH",
"150 1171 OFFCURVE",
"150 1129 QCURVE SMOOTH",
"150 1086 OFFCURVE",
"206 1086 QCURVE SMOOTH",
"277 1086 LINE",
"277 84 LINE",
"206 84 LINE SMOOTH",
"150 84 OFFCURVE",
"150 41 QCURVE SMOOTH",
"150 -1 OFFCURVE",
"206 -1 QCURVE SMOOTH",
"432 -1 LINE SMOOTH",
"488 -1 OFFCURVE",
"488 41 QCURVE SMOOTH",
"488 84 OFFCURVE",
"432 84 QCURVE SMOOTH",
"361 84 LINE",
"361 566 LINE",
"918 566 LINE",
"918 84 LINE",
"848 84 LINE SMOOTH",
"792 84 OFFCURVE",
"792 41 QCURVE SMOOTH",
"792 -1 OFFCURVE",
"848 -1 QCURVE SMOOTH",
"1074 -1 LINE SMOOTH",
"1130 -1 OFFCURVE",
"1130 41 QCURVE SMOOTH",
"1130 84 OFFCURVE"
);
}
);
};
layerId = m01;
paths = (
{
closed = 1;
nodes = (
"432 -1 LINE SMOOTH",
"469 -1 OFFCURVE",
"488 13 OFFCURVE",
"488 41 CURVE SMOOTH",
"488 70 OFFCURVE",
"469 84 OFFCURVE",
"432 84 CURVE SMOOTH",
"361 84 LINE",
"361 566 LINE",
"918 566 LINE",
"918 84 LINE",
"848 84 LINE SMOOTH",
"811 84 OFFCURVE",
"792 70 OFFCURVE",
"792 41 CURVE SMOOTH",
"792 13 OFFCURVE",
"811 -1 OFFCURVE",
"848 -1 CURVE SMOOTH",
"1074 -1 LINE SMOOTH",
"1111 -1 OFFCURVE",
"1130 13 OFFCURVE",
"1130 41 CURVE SMOOTH",
"1130 70 OFFCURVE",
"1111 84 OFFCURVE",
"1074 84 CURVE SMOOTH",
"1003 84 LINE",
"1003 1086 LINE",
"1074 1086 LINE SMOOTH",
"1111 1086 OFFCURVE",
"1130 1100 OFFCURVE",
"1130 1129 CURVE SMOOTH",
"1130 1157 OFFCURVE",
"1111 1171 OFFCURVE",
"1074 1171 CURVE SMOOTH",
"848 1171 LINE SMOOTH",
"811 1171 OFFCURVE",
"792 1157 OFFCURVE",
"792 1129 CURVE SMOOTH",
"792 1100 OFFCURVE",
"811 1086 OFFCURVE",
"848 1086 CURVE SMOOTH",
"919 1086 LINE",
"918 650 LINE",
"361 650 LINE",
"361 1086 LINE",
"432 1086 LINE SMOOTH",
"469 1086 OFFCURVE",
"488 1100 OFFCURVE",
"488 1129 CURVE SMOOTH",
"488 1157 OFFCURVE",
"469 1171 OFFCURVE",
"432 1171 CURVE SMOOTH",
"206 1171 LINE SMOOTH",
"169 1171 OFFCURVE",
"150 1157 OFFCURVE",
"150 1129 CURVE SMOOTH",
"150 1100 OFFCURVE",
"169 1086 OFFCURVE",
"206 1086 CURVE SMOOTH",
"277 1086 LINE",
"277 84 LINE",
"206 84 LINE SMOOTH",
"169 84 OFFCURVE",
"150 70 OFFCURVE",
"150 41 CURVE SMOOTH",
"150 13 OFFCURVE",
"169 -1 OFFCURVE",
"206 -1 CURVE SMOOTH"
);
}
);
userData = {
assembly = "NPUSHB[ ]	/* 80 values pushed */
1 52 52 64 53 0 31 14 24 10 26 19 24 22 45 0 24 48 40 5 24 8 37 36 9 3 8 6 49 48 35 34 11 3 10 6 23 22 50 49 22 21 12 11 8 7 7 8 2 10 9 8 36 35 48 47 38 37 34 33 24 7 23 8 28 43 42 29 3 28 3 17 16 3 3 2 1 1 19 70
SROUND[ ]	/* SuperRound */
MDAP[1]	/* MoveDirectAbsPt */
SHZ[1]	/* ShiftZoneByLastPoint */
RTG[ ]	/* RoundToGrid */
SVTCA[0]	/* SetFreedomAndProjectionVectorToAxis */
MIAP[1]	/* MoveIndirectAbsPt */
SLOOP[ ]	/* SetLoopVariable */
ALIGNRP[ ]	/* AlignRelativePt */
MIAP[1]	/* MoveIndirectAbsPt */
SLOOP[ ]	/* SetLoopVariable */
ALIGNRP[ ]	/* AlignRelativePt */
SRP0[ ]	/* SetRefPoint0 */
MIRP[11101]	/* MoveIndirectRelPt */
SLOOP[ ]	/* SetLoopVariable */
ALIGNRP[ ]	/* AlignRelativePt */
MDAP[1]	/* MoveDirectAbsPt */
ALIGNRP[ ]	/* AlignRelativePt */
MIRP[11101]	/* MoveIndirectRelPt */
ALIGNRP[ ]	/* AlignRelativePt */
SRP0[ ]	/* SetRefPoint0 */
MIRP[11101]	/* MoveIndirectRelPt */
SLOOP[ ]	/* SetLoopVariable */
ALIGNRP[ ]	/* AlignRelativePt */
SVTCA[1]	/* SetFreedomAndProjectionVectorToAxis */
MDAP[1]	/* MoveDirectAbsPt */
ALIGNRP[ ]	/* AlignRelativePt */
MIRP[11101]	/* MoveIndirectRelPt */
SLOOP[ ]	/* SetLoopVariable */
ALIGNRP[ ]	/* AlignRelativePt */
MDAP[1]	/* MoveDirectAbsPt */
ALIGNRP[ ]	/* AlignRelativePt */
MIRP[11101]	/* MoveIndirectRelPt */
SLOOP[ ]	/* SetLoopVariable */
ALIGNRP[ ]	/* AlignRelativePt */
SRP0[ ]	/* SetRefPoint0 */
MIRP[11101]	/* MoveIndirectRelPt */
ALIGNRP[ ]	/* AlignRelativePt */
SRP0[ ]	/* SetRefPoint0 */
MIRP[11101]	/* MoveIndirectRelPt */
ALIGNRP[ ]	/* AlignRelativePt */
SRP0[ ]	/* SetRefPoint0 */
MIRP[11101]	/* MoveIndirectRelPt */
ALIGNRP[ ]	/* AlignRelativePt */
SRP0[ ]	/* SetRefPoint0 */
MIRP[11101]	/* MoveIndirectRelPt */
ALIGNRP[ ]	/* AlignRelativePt */
SVTCA[0]	/* SetFreedomAndProjectionVectorToAxis */
IUP[1]	/* InterpolateUntPts */
IUP[0]	/* InterpolateUntPts */
SVTCA[1]	/* SetFreedomAndProjectionVectorToAxis */
MD[0]	/* MeasureDistance */
ROUND[00]	/* Round */
PUSHW[ ]	/* 2 values pushed */
19 52
MD[0]	/* MeasureDistance */
ROUND[00]	/* Round */
SUB[ ]	/* Subtract */
PUSHB[ ]	/* 1 value pushed */
64
GT[ ]	/* GreaterThan */
IF[ ]	/* If */
SHPIX[ ]	/* ShiftZoneByPixel */
SRP1[ ]	/* SetRefPoint1 */
SHZ[1]	/* ShiftZoneByLastPoint */
PUSHW[ ]	/* 2 values pushed */
52 -64
SHPIX[ ]	/* ShiftZoneByPixel */
EIF[ ]	/* EndIf */";
};
width = 1278;
}
);
note = H;
unicode = 0048;
},
{
glyphname = I;
lastChange = "2025-02-10 17:38:38 +0000";
layers = (
{
background = {
paths = (
{
closed = 1;
nodes = (
"432 84 QCURVE SMOOTH",
"361 84 LINE",
"361 1086 LINE",
"432 1086 LINE SMOOTH",
"488 1086 OFFCURVE",
"488 1129 QCURVE SMOOTH",
"488 1171 OFFCURVE",
"432 1171 QCURVE SMOOTH",
"206 1171 LINE SMOOTH",
"150 1171 OFFCURVE",
"150 1129 QCURVE SMOOTH",
"150 1086 OFFCURVE",
"206 1086 QCURVE SMOOTH",
"277 1086 LINE",
"277 84 LINE",
"206 84 LINE SMOOTH",
"150 84 OFFCURVE",
"150 41 QCURVE SMOOTH",
"150 -1 OFFCURVE",
"206 -1 QCURVE SMOOTH",
"432 -1 LINE SMOOTH",
"488 -1 OFFCURVE",
"488 41 QCURVE SMOOTH",
"488 84 OFFCURVE"
);
}
);
};
layerId = m01;
paths = (
{
closed = 1;
nodes = (
"432 -1 LINE SMOOTH",
"469 -1 OFFCURVE",
"488 13 OFFCURVE",
"488 41 CURVE SMOOTH",
"488 70 OFFCURVE",
"469 84 OFFCURVE",
"432 84 CURVE SMOOTH",
"361 84 LINE",
"361 1086 LINE",
"432 1086 LINE SMOOTH",
"469 1086 OFFCURVE",
"488 1100 OFFCURVE",
"488 1129 CURVE SMOOTH",
"488 1157 OFFCURVE",
"469 1171 OFFCURVE",
"432 1171 CURVE SMOOTH",
"206 1171 LINE SMOOTH",
"169 1171 OFFCURVE",
"150 1157 OFFCURVE",
"150 1129 CURVE SMOOTH",
"150 1100 OFFCURVE",
"169 1086 OFFCURVE",
"206 1086 CURVE SMOOTH",
"277 1086 LINE",
"277 84 LINE",
"206 84 LINE SMOOTH",
"169 84 OFFCURVE",
"150 70 OFFCURVE",
"150 41 CURVE SMOOTH",
"150 13 OFFCURVE",
"169 -1 OFFCURVE",
"206 -1 CURVE SMOOTH"
);
}
);
userData = {
assembly = "NPUSHB[ ]	/* 42 values pushed */
1 24 24 64 25 0 17 0 24 20 12 5 24 8 21 20 6 9 8 22 21 8 3 7 8 2 20 19 10 3 9 8 14 15 14 3 3 2 1 1 5 70
SROUND[ ]	/* SuperRound */
MDAP[1]	/* MoveDirectAbsPt */
SHZ[1]	/* ShiftZoneByLastPoint */
RTG[ ]	/* RoundToGrid */
SVTCA[0]	/* SetFreedomAndProjectionVectorToAxis */
MIAP[1]	/* MoveIndirectAbsPt */
ALIGNRP[ ]	/* AlignRelativePt */
MIAP[1]	/* MoveIndirectAbsPt */
ALIGNRP[ ]	/* AlignRelativePt */
SRP0[ ]	/* SetRefPoint0 */
MIRP[11101]	/* MoveIndirectRelPt */
SLOOP[ ]	/* SetLoopVariable */
ALIGNRP[ ]	/* AlignRelativePt */
SRP0[ ]	/* SetRefPoint0 */
MIRP[11101]	/* MoveIndirectRelPt */
SLOOP[ ]	/* SetLoopVariable */
ALIGNRP[ ]	/* AlignRelativePt */
SVTCA[1]	/* SetFreedomAndProjectionVectorToAxis */
MDAP[1]	/* MoveDirectAbsPt */
ALIGNRP[ ]	/* AlignRelativePt */
MIRP[11101]	/* MoveIndirectRelPt */
ALIGNRP[ ]	/* AlignRelativePt */
SRP0[ ]	/* SetRefPoint0 */
MIRP[11101]	/* MoveIndirectRelPt */
ALIGNRP[ ]	/* AlignRelativePt */
SRP0[ ]	/* SetRefPoint0 */
MIRP[11101]	/* MoveIndirectRelPt */
ALIGNRP[ ]	/* AlignRelativePt */
SVTCA[0]	/* SetFreedomAndProjectionVectorToAxis */
IUP[1]	/* InterpolateUntPts */
IUP[0]	/* InterpolateUntPts */
SVTCA[1]	/* SetFreedomAndProjectionVectorToAxis */
MD[0]	/* MeasureDistance */
ROUND[00]	/* Round */
PUSHW[ ]	/* 2 values pushed */
5 24
MD[0]	/* MeasureDistance */
ROUND[00]	/* Round */
SUB[ ]	/* Subtract */
PUSHB[ ]	/* 1 value pushed */
64
GT[ ]	/* GreaterThan */
IF[ ]	/* If */
SHPIX[ ]	/* ShiftZoneByPixel */
SRP1[ ]	/* SetRefPoint1 */
SHZ[1]	/* ShiftZoneByLastPoint */
PUSHW[ ]	/* 2 values pushed */
24 -64
SHPIX[ ]	/* ShiftZoneByPixel */
EIF[ ]	/* EndIf */";
};
width = 638;
}
);
note = I;
unicode = 0049;
},
{
glyphname = J;
lastChange = "2025-02-10 17:38:38 +0000";
layers = (
{
background = {
paths = (
{
closed = 1;
nodes = (
"1082 1165 QCURVE SMOOTH",
"468 1165 LINE SMOOTH",
"411 1165 OFFCURVE",
"411 1123 QCURVE SMOOTH",
"411 1081 OFFCURVE",
"468 1081 QCURVE SMOOTH",
"797 1081 LINE",
"797 339 LINE SMOOTH",
"797 216 OFFCURVE",
"619 46 OFFCURVE",
"496 46 QCURVE SMOOTH",
"353 46 OFFCURVE",
"298 116 QCURVE SMOOTH",
"253 174 OFFCURVE",
"235 338 QCURVE SMOOTH",
"229 394 OFFCURVE",
"192 394 QCURVE SMOOTH",
"147 394 OFFCURVE",
"150 338 QCURVE SMOOTH",
"159 147 OFFCURVE",
"223 65 QCURVE SMOOTH",
"302 -38 OFFCURVE",
"496 -38 QCURVE SMOOTH",
"653 -38 OFFCURVE",
"882 183 OFFCURVE",
"882 339 QCURVE SMOOTH",
"882 1081 LINE",
"1082 1081 LINE SMOOTH",
"1138 1081 OFFCURVE",
"1138 1123 QCURVE SMOOTH",
"1138 1165 OFFCURVE"
);
}
);
};
layerId = m01;
paths = (
{
closed = 1;
nodes = (
"705 -38 OFFCURVE",
"882 131 OFFCURVE",
"882 339 CURVE SMOOTH",
"882 1081 LINE",
"1082 1081 LINE SMOOTH",
"1119 1081 OFFCURVE",
"1138 1095 OFFCURVE",
"1138 1123 CURVE SMOOTH",
"1138 1151 OFFCURVE",
"1119 1165 OFFCURVE",
"1082 1165 CURVE SMOOTH",
"468 1165 LINE SMOOTH",
"430 1165 OFFCURVE",
"411 1151 OFFCURVE",
"411 1123 CURVE SMOOTH",
"411 1095 OFFCURVE",
"430 1081 OFFCURVE",
"468 1081 CURVE SMOOTH",
"797 1081 LINE",
"797 339 LINE SMOOTH",
"797 175 OFFCURVE",
"660 46 OFFCURVE",
"496 46 CURVE SMOOTH",
"401 46 OFFCURVE",
"335 69 OFFCURVE",
"298 116 CURVE SMOOTH",
"268 155 OFFCURVE",
"247 229 OFFCURVE",
"235 338 CURVE SMOOTH",
"231 375 OFFCURVE",
"217 394 OFFCURVE",
"192 394 CURVE SMOOTH",
"162 394 OFFCURVE",
"148 375 OFFCURVE",
"150 338 CURVE SMOOTH",
"156 211 OFFCURVE",
"180 120 OFFCURVE",
"223 65 CURVE SMOOTH",
"276 -4 OFFCURVE",
"367 -38 OFFCURVE",
"496 -38 CURVE SMOOTH"
);
}
);
userData = {
assembly = "NPUSHB[ ]	/* 35 values pushed */
1 31 31 64 32 0 26 11 0 23 22 6 4 3 13 7 7 24 23 3 3 2 8 28 19 8 7 29 28 3 7 1 1 11 70
SROUND[ ]	/* SuperRound */
MDAP[1]	/* MoveDirectAbsPt */
SHZ[1]	/* ShiftZoneByLastPoint */
RTG[ ]	/* RoundToGrid */
SVTCA[0]	/* SetFreedomAndProjectionVectorToAxis */
MIAP[1]	/* MoveIndirectAbsPt */
MIAP[1]	/* MoveIndirectAbsPt */
ALIGNRP[ ]	/* AlignRelativePt */
SRP0[ ]	/* SetRefPoint0 */
MIRP[11101]	/* MoveIndirectRelPt */
SRP0[ ]	/* SetRefPoint0 */
MIRP[11101]	/* MoveIndirectRelPt */
SLOOP[ ]	/* SetLoopVariable */
ALIGNRP[ ]	/* AlignRelativePt */
SRP0[ ]	/* SetRefPoint0 */
MIRP[11101]	/* MoveIndirectRelPt */
SVTCA[1]	/* SetFreedomAndProjectionVectorToAxis */
MDAP[1]	/* MoveDirectAbsPt */
ALIGNRP[ ]	/* AlignRelativePt */
MIRP[11101]	/* MoveIndirectRelPt */
ALIGNRP[ ]	/* AlignRelativePt */
MDAP[0]	/* MoveDirectAbsPt */
MDAP[0]	/* MoveDirectAbsPt */
MDAP[0]	/* MoveDirectAbsPt */
SVTCA[0]	/* SetFreedomAndProjectionVectorToAxis */
IUP[1]	/* InterpolateUntPts */
IUP[0]	/* InterpolateUntPts */
SVTCA[1]	/* SetFreedomAndProjectionVectorToAxis */
MD[0]	/* MeasureDistance */
ROUND[00]	/* Round */
PUSHW[ ]	/* 2 values pushed */
11 31
MD[0]	/* MeasureDistance */
ROUND[00]	/* Round */
SUB[ ]	/* Subtract */
PUSHB[ ]	/* 1 value pushed */
64
GT[ ]	/* GreaterThan */
IF[ ]	/* If */
SHPIX[ ]	/* ShiftZoneByPixel */
SRP1[ ]	/* SetRefPoint1 */
SHZ[1]	/* ShiftZoneByLastPoint */
PUSHW[ ]	/* 2 values pushed */
31 -64
SHPIX[ ]	/* ShiftZoneByPixel */
EIF[ ]	/* EndIf */";
};
width = 1278;
}
);
note = J;
unicode = 004A;
},
{
glyphname = K;
lastChange = "2025-02-10 17:38:38 +0000";
layers = (
{
background = {
paths = (
{
closed = 1;
nodes = (
"1114 84 QCURVE SMOOTH",
"1043 84 LINE",
"581 673 LINE",
"1043 1086 LINE",
"1114 1086 LINE SMOOTH",
"1170 1086 OFFCURVE",
"1170 1129 QCURVE SMOOTH",
"1170 1171 OFFCURVE",
"1114 1171 QCURVE SMOOTH",
"851 1171 LINE SMOOTH",
"795 1171 OFFCURVE",
"795 1129 QCURVE SMOOTH",
"795 1086 OFFCURVE",
"851 1086 QCURVE SMOOTH",
"922 1086 LINE",
"342 569 LINE",
"342 1086 LINE",
"413 1086 LINE SMOOTH",
"469 1086 OFFCURVE",
"469 1129 QCURVE SMOOTH",
"469 1171 OFFCURVE",
"413 1171 QCURVE SMOOTH",
"187 1171 LINE SMOOTH",
"131 1171 OFFCURVE",
"131 1129 QCURVE SMOOTH",
"131 1086 OFFCURVE",
"187 1086 QCURVE SMOOTH",
"258 1086 LINE",
"258 84 LINE",
"187 84 LINE SMOOTH",
"131 84 OFFCURVE",
"131 41 QCURVE SMOOTH",
"131 -1 OFFCURVE",
"187 -1 QCURVE SMOOTH",
"413 -1 LINE SMOOTH",
"469 -1 OFFCURVE",
"469 41 QCURVE SMOOTH",
"469 84 OFFCURVE",
"413 84 QCURVE SMOOTH",
"342 84 LINE",
"342 458 LINE",
"511 610 LINE",
"919 85 LINE",
"848 85 LINE SMOOTH",
"792 85 OFFCURVE",
"792 42 QCURVE SMOOTH",
"792 0 OFFCURVE",
"848 0 QCURVE SMOOTH",
"1114 -1 LINE SMOOTH",
"1170 -1 OFFCURVE",
"1170 41 QCURVE SMOOTH",
"1170 84 OFFCURVE"
);
}
);
};
layerId = m01;
paths = (
{
closed = 1;
nodes = (
"413 -1 LINE SMOOTH",
"450 -1 OFFCURVE",
"469 13 OFFCURVE",
"469 41 CURVE SMOOTH",
"469 70 OFFCURVE",
"450 84 OFFCURVE",
"413 84 CURVE SMOOTH",
"342 84 LINE",
"342 458 LINE",
"511 610 LINE",
"919 85 LINE",
"848 85 LINE SMOOTH",
"811 85 OFFCURVE",
"792 71 OFFCURVE",
"792 42 CURVE SMOOTH",
"792 14 OFFCURVE",
"811 0 OFFCURVE",
"848 0 CURVE SMOOTH",
"1114 -1 LINE SMOOTH",
"1151 -1 OFFCURVE",
"1170 13 OFFCURVE",
"1170 41 CURVE SMOOTH",
"1170 70 OFFCURVE",
"1151 84 OFFCURVE",
"1114 84 CURVE SMOOTH",
"1043 84 LINE",
"581 673 LINE",
"1043 1086 LINE",
"1114 1086 LINE SMOOTH",
"1151 1086 OFFCURVE",
"1170 1100 OFFCURVE",
"1170 1129 CURVE SMOOTH",
"1170 1157 OFFCURVE",
"1151 1171 OFFCURVE",
"1114 1171 CURVE SMOOTH",
"851 1171 LINE SMOOTH",
"814 1171 OFFCURVE",
"795 1157 OFFCURVE",
"795 1129 CURVE SMOOTH",
"795 1100 OFFCURVE",
"814 1086 OFFCURVE",
"851 1086 CURVE SMOOTH",
"922 1086 LINE",
"342 569 LINE",
"342 1086 LINE",
"413 1086 LINE SMOOTH",
"450 1086 OFFCURVE",
"469 1100 OFFCURVE",
"469 1129 CURVE SMOOTH",
"469 1157 OFFCURVE",
"450 1171 OFFCURVE",
"413 1171 CURVE SMOOTH",
"187 1171 LINE SMOOTH",
"150 1171 OFFCURVE",
"131 1157 OFFCURVE",
"131 1129 CURVE SMOOTH",
"131 1100 OFFCURVE",
"150 1086 OFFCURVE",
"187 1086 CURVE SMOOTH",
"258 1086 LINE",
"258 84 LINE",
"187 84 LINE SMOOTH",
"150 84 OFFCURVE",
"131 70 OFFCURVE",
"131 41 CURVE SMOOTH",
"131 13 OFFCURVE",
"150 -1 OFFCURVE",
"187 -1 CURVE SMOOTH"
);
}
);
userData = {
assembly = "NPUSHB[ ]	/* 95 values pushed */
1 52 52 64 53 0 35 9 48 36 8 48 48 49 9 8 9 47 10 9 10 11 36 35 35 36 48 47 48 49 9 9 9 10 8 8 9 31 14 24 10 26 19 24 22 5 5 0 39 5 44 0 35 34 11 3 10 6 23 22 50 49 22 21 12 11 8 7 7 8 2 47 46 37 36 34 33 24 7 23 8 28 42 41 29 3 28 3 17 16 2 1 1 19 70
SROUND[ ]	/* SuperRound */
MDAP[1]	/* MoveDirectAbsPt */
SHZ[1]	/* ShiftZoneByLastPoint */
RTG[ ]	/* RoundToGrid */
SVTCA[0]	/* SetFreedomAndProjectionVectorToAxis */
MIAP[1]	/* MoveIndirectAbsPt */
ALIGNRP[ ]	/* AlignRelativePt */
ALIGNRP[ ]	/* AlignRelativePt */
MIAP[1]	/* MoveIndirectAbsPt */
SLOOP[ ]	/* SetLoopVariable */
ALIGNRP[ ]	/* AlignRelativePt */
SRP0[ ]	/* SetRefPoint0 */
MIRP[11101]	/* MoveIndirectRelPt */
SLOOP[ ]	/* SetLoopVariable */
ALIGNRP[ ]	/* AlignRelativePt */
SRP0[ ]	/* SetRefPoint0 */
MIRP[11101]	/* MoveIndirectRelPt */
SLOOP[ ]	/* SetLoopVariable */
ALIGNRP[ ]	/* AlignRelativePt */
SVTCA[1]	/* SetFreedomAndProjectionVectorToAxis */
MDAP[1]	/* MoveDirectAbsPt */
ALIGNRP[ ]	/* AlignRelativePt */
MIRP[11101]	/* MoveIndirectRelPt */
SLOOP[ ]	/* SetLoopVariable */
ALIGNRP[ ]	/* AlignRelativePt */
MDAP[1]	/* MoveDirectAbsPt */
ALIGNRP[ ]	/* AlignRelativePt */
MIRP[11101]	/* MoveIndirectRelPt */
SRP0[ ]	/* SetRefPoint0 */
MIRP[11101]	/* MoveIndirectRelPt */
SRP0[ ]	/* SetRefPoint0 */
MIRP[11101]	/* MoveIndirectRelPt */
ALIGNRP[ ]	/* AlignRelativePt */
SRP0[ ]	/* SetRefPoint0 */
MIRP[11101]	/* MoveIndirectRelPt */
ALIGNRP[ ]	/* AlignRelativePt */
SDPVTL[1]	/* SetDualPVectorToLine */
MDAP[0]	/* MoveDirectAbsPt */
SFVTL[0]	/* SetFVectorToLine */
MDRP[00100]	/* MoveDirectRelPt */
SFVTPV[ ]	/* SetFVectorToPVector */
MIRP[11100]	/* MoveIndirectRelPt */
SFVTL[0]	/* SetFVectorToLine */
MDRP[00100]	/* MoveDirectRelPt */
SDPVTL[1]	/* SetDualPVectorToLine */
MDAP[0]	/* MoveDirectAbsPt */
SFVTPV[ ]	/* SetFVectorToPVector */
MDRP[00100]	/* MoveDirectRelPt */
SFVTL[0]	/* SetFVectorToLine */
MIRP[11100]	/* MoveIndirectRelPt */
SFVTPV[ ]	/* SetFVectorToPVector */
MDRP[00100]	/* MoveDirectRelPt */
SFVTL[0]	/* SetFVectorToLine */
MDRP[00100]	/* MoveDirectRelPt */
SFVTL[0]	/* SetFVectorToLine */
MDRP[00100]	/* MoveDirectRelPt */
SVTCA[1]	/* SetFreedomAndProjectionVectorToAxis */
MDAP[0]	/* MoveDirectAbsPt */
MDAP[0]	/* MoveDirectAbsPt */
MDAP[0]	/* MoveDirectAbsPt */
SVTCA[0]	/* SetFreedomAndProjectionVectorToAxis */
MDAP[0]	/* MoveDirectAbsPt */
MDAP[0]	/* MoveDirectAbsPt */
IUP[1]	/* InterpolateUntPts */
IUP[0]	/* InterpolateUntPts */
SVTCA[1]	/* SetFreedomAndProjectionVectorToAxis */
MD[0]	/* MeasureDistance */
ROUND[00]	/* Round */
PUSHW[ ]	/* 2 values pushed */
19 52
MD[0]	/* MeasureDistance */
ROUND[00]	/* Round */
SUB[ ]	/* Subtract */
PUSHB[ ]	/* 1 value pushed */
64
GT[ ]	/* GreaterThan */
IF[ ]	/* If */
SHPIX[ ]	/* ShiftZoneByPixel */
SRP1[ ]	/* SetRefPoint1 */
SHZ[1]	/* ShiftZoneByLastPoint */
PUSHW[ ]	/* 2 values pushed */
52 -64
SHPIX[ ]	/* ShiftZoneByPixel */
EIF[ ]	/* EndIf */";
};
width = 1320;
}
);
note = K;
unicode = 004B;
},
{
glyphname = L;
lastChange = "2025-02-10 17:38:38 +0000";
layers = (
{
background = {
paths = (
{
closed = 1;
nodes = (
"1005 211 OFFCURVE",
"963 211 QCURVE SMOOTH",
"919 211 OFFCURVE",
"920 155 QCURVE SMOOTH",
"921 84 LINE",
"362 84 LINE",
"362 1086 LINE",
"433 1086 LINE SMOOTH",
"489 1086 OFFCURVE",
"489 1129 QCURVE SMOOTH",
"489 1171 OFFCURVE",
"433 1171 QCURVE SMOOTH",
"207 1171 LINE SMOOTH",
"151 1171 OFFCURVE",
"151 1129 QCURVE SMOOTH",
"151 1086 OFFCURVE",
"207 1086 QCURVE SMOOTH",
"278 1086 LINE",
"277 84 LINE",
"206 84 LINE SMOOTH",
"150 84 OFFCURVE",
"150 41 QCURVE SMOOTH",
"150 -1 OFFCURVE",
"206 -1 QCURVE SMOOTH",
"1005 0 LINE",
"1005 155 LINE SMOOTH"
);
}
);
};
layerId = m01;
paths = (
{
closed = 1;
nodes = (
"1005 0 LINE",
"1005 155 LINE SMOOTH",
"1005 192 OFFCURVE",
"991 211 OFFCURVE",
"963 211 CURVE SMOOTH",
"934 211 OFFCURVE",
"919 192 OFFCURVE",
"920 155 CURVE SMOOTH",
"921 84 LINE",
"362 84 LINE",
"362 1086 LINE",
"433 1086 LINE SMOOTH",
"470 1086 OFFCURVE",
"489 1100 OFFCURVE",
"489 1129 CURVE SMOOTH",
"489 1157 OFFCURVE",
"470 1171 OFFCURVE",
"433 1171 CURVE SMOOTH",
"207 1171 LINE SMOOTH",
"170 1171 OFFCURVE",
"151 1157 OFFCURVE",
"151 1129 CURVE SMOOTH",
"151 1100 OFFCURVE",
"170 1086 OFFCURVE",
"207 1086 CURVE SMOOTH",
"278 1086 LINE",
"277 84 LINE",
"206 84 LINE SMOOTH",
"169 84 OFFCURVE",
"150 70 OFFCURVE",
"150 41 CURVE SMOOTH",
"150 13 OFFCURVE",
"169 -1 OFFCURVE",
"206 -1 CURVE SMOOTH"
);
}
);
userData = {
assembly = "NPUSHB[ ]	/* 48 values pushed */
1 26 26 64 27 0 15 24 18 3 10 24 6 19 18 6 7 6 21 20 6 25 0 23 7 0 20 19 6 3 5 8 0 18 17 8 3 7 8 12 13 12 3 1 1 1 3 70
SROUND[ ]	/* SuperRound */
MDAP[1]	/* MoveDirectAbsPt */
SHZ[1]	/* ShiftZoneByLastPoint */
RTG[ ]	/* RoundToGrid */
SVTCA[0]	/* SetFreedomAndProjectionVectorToAxis */
MIAP[1]	/* MoveIndirectAbsPt */
MIAP[1]	/* MoveIndirectAbsPt */
ALIGNRP[ ]	/* AlignRelativePt */
SRP0[ ]	/* SetRefPoint0 */
MIRP[11101]	/* MoveIndirectRelPt */
SLOOP[ ]	/* SetLoopVariable */
ALIGNRP[ ]	/* AlignRelativePt */
MDAP[1]	/* MoveDirectAbsPt */
MIRP[11101]	/* MoveIndirectRelPt */
SLOOP[ ]	/* SetLoopVariable */
ALIGNRP[ ]	/* AlignRelativePt */
SRP0[ ]	/* SetRefPoint0 */
MIRP[11101]	/* MoveIndirectRelPt */
SVTCA[1]	/* SetFreedomAndProjectionVectorToAxis */
MDAP[1]	/* MoveDirectAbsPt */
ALIGNRP[ ]	/* AlignRelativePt */
MIRP[11101]	/* MoveIndirectRelPt */
ALIGNRP[ ]	/* AlignRelativePt */
MDAP[1]	/* MoveDirectAbsPt */
ALIGNRP[ ]	/* AlignRelativePt */
MIRP[11101]	/* MoveIndirectRelPt */
ALIGNRP[ ]	/* AlignRelativePt */
SRP0[ ]	/* SetRefPoint0 */
MIRP[11101]	/* MoveIndirectRelPt */
ALIGNRP[ ]	/* AlignRelativePt */
SRP0[ ]	/* SetRefPoint0 */
MIRP[11101]	/* MoveIndirectRelPt */
SVTCA[0]	/* SetFreedomAndProjectionVectorToAxis */
IUP[1]	/* InterpolateUntPts */
IUP[0]	/* InterpolateUntPts */
SVTCA[1]	/* SetFreedomAndProjectionVectorToAxis */
MD[0]	/* MeasureDistance */
ROUND[00]	/* Round */
PUSHW[ ]	/* 2 values pushed */
3 26
MD[0]	/* MeasureDistance */
ROUND[00]	/* Round */
SUB[ ]	/* Subtract */
PUSHB[ ]	/* 1 value pushed */
64
GT[ ]	/* GreaterThan */
IF[ ]	/* If */
SHPIX[ ]	/* ShiftZoneByPixel */
SRP1[ ]	/* SetRefPoint1 */
SHZ[1]	/* ShiftZoneByLastPoint */
PUSHW[ ]	/* 2 values pushed */
26 -64
SHPIX[ ]	/* ShiftZoneByPixel */
EIF[ ]	/* EndIf */";
};
width = 1155;
}
);
note = L;
unicode = 004C;
},
{
glyphname = M;
lastChange = "2025-02-10 17:38:38 +0000";
layers = (
{
background = {
paths = (
{
closed = 1;
nodes = (
"1286 84 QCURVE SMOOTH",
"1215 84 LINE",
"1215 1086 LINE",
"1286 1086 LINE SMOOTH",
"1342 1086 OFFCURVE",
"1342 1129 QCURVE SMOOTH",
"1342 1147 OFFCURVE",
"1329 1159 QCURVE",
"1303 1169 OFFCURVE",
"1286 1171 QCURVE",
"1061 1170 LINE",
"748 446 LINE",
"430 1170 LINE",
"206 1171 LINE",
"163 1159 OFFCURVE",
"163 1159 QCURVE",
"150 1147 OFFCURVE",
"150 1129 QCURVE SMOOTH",
"150 1086 OFFCURVE",
"206 1086 QCURVE SMOOTH",
"277 1086 LINE",
"277 84 LINE",
"206 84 LINE SMOOTH",
"150 84 OFFCURVE",
"150 41 QCURVE SMOOTH",
"150 -1 OFFCURVE",
"206 -1 QCURVE SMOOTH",
"432 -1 LINE SMOOTH",
"488 -1 OFFCURVE",
"488 41 QCURVE SMOOTH",
"488 84 OFFCURVE",
"432 84 QCURVE SMOOTH",
"361 84 LINE",
"361 1086 LINE",
"377 1086 LINE",
"700 351 LINE",
"796 351 LINE",
"1113 1086 LINE",
"1131 1086 LINE",
"1131 84 LINE",
"1060 84 LINE SMOOTH",
"1004 84 OFFCURVE",
"1004 41 QCURVE SMOOTH",
"1004 -1 OFFCURVE",
"1060 -1 QCURVE SMOOTH",
"1286 -1 LINE SMOOTH",
"1342 -1 OFFCURVE",
"1342 41 QCURVE SMOOTH",
"1342 84 OFFCURVE"
);
}
);
};
layerId = m01;
paths = (
{
closed = 1;
nodes = (
"432 -1 LINE SMOOTH",
"469 -1 OFFCURVE",
"488 13 OFFCURVE",
"488 41 CURVE SMOOTH",
"488 70 OFFCURVE",
"469 84 OFFCURVE",
"432 84 CURVE SMOOTH",
"361 84 LINE",
"361 1086 LINE",
"377 1086 LINE",
"700 351 LINE",
"796 351 LINE",
"1113 1086 LINE",
"1131 1086 LINE",
"1131 84 LINE",
"1060 84 LINE SMOOTH",
"1023 84 OFFCURVE",
"1004 70 OFFCURVE",
"1004 41 CURVE SMOOTH",
"1004 13 OFFCURVE",
"1023 -1 OFFCURVE",
"1060 -1 CURVE SMOOTH",
"1286 -1 LINE SMOOTH",
"1323 -1 OFFCURVE",
"1342 13 OFFCURVE",
"1342 41 CURVE SMOOTH",
"1342 70 OFFCURVE",
"1323 84 OFFCURVE",
"1286 84 CURVE SMOOTH",
"1215 84 LINE",
"1215 1086 LINE",
"1286 1086 LINE SMOOTH",
"1323 1086 OFFCURVE",
"1342 1100 OFFCURVE",
"1342 1129 CURVE SMOOTH",
"1342 1141 OFFCURVE",
"1338 1151 OFFCURVE",
"1329 1159 CURVE",
"1312 1166 OFFCURVE",
"1297 1170 OFFCURVE",
"1286 1171 CURVE",
"1061 1170 LINE",
"748 446 LINE",
"430 1170 LINE",
"206 1171 LINE",
"163 1159 LINE",
"154 1151 OFFCURVE",
"150 1141 OFFCURVE",
"150 1129 CURVE SMOOTH",
"150 1100 OFFCURVE",
"169 1086 OFFCURVE",
"206 1086 CURVE SMOOTH",
"277 1086 LINE",
"277 84 LINE",
"206 84 LINE SMOOTH",
"169 84 OFFCURVE",
"150 70 OFFCURVE",
"150 41 CURVE SMOOTH",
"150 13 OFFCURVE",
"169 -1 OFFCURVE",
"206 -1 CURVE SMOOTH"
);
}
);
userData = {
assembly = "NPUSHB[ ]	/* 90 values pushed */
1 49 49 64 50 0 36 12 11 36 35 36 37 9 37 38 11 10 10 11 35 34 35 36 9 36 37 13 12 12 13 18 24 14 30 23 24 26 42 0 24 45 5 24 8 9 8 6 46 45 15 14 6 27 26 47 46 26 25 16 15 8 7 7 8 2 45 44 28 27 14 13 10 7 9 8 37 35 38 34 3 21 20 3 3 2 1 1 23 70
SROUND[ ]	/* SuperRound */
MDAP[1]	/* MoveDirectAbsPt */
SHZ[1]	/* ShiftZoneByLastPoint */
RTG[ ]	/* RoundToGrid */
SVTCA[0]	/* SetFreedomAndProjectionVectorToAxis */
MIAP[1]	/* MoveIndirectAbsPt */
SLOOP[ ]	/* SetLoopVariable */
ALIGNRP[ ]	/* AlignRelativePt */
MIAP[1]	/* MoveIndirectAbsPt */
ALIGNRP[ ]	/* AlignRelativePt */
MDAP[1]	/* MoveDirectAbsPt */
ALIGNRP[ ]	/* AlignRelativePt */
MIRP[11101]	/* MoveIndirectRelPt */
SLOOP[ ]	/* SetLoopVariable */
ALIGNRP[ ]	/* AlignRelativePt */
SRP0[ ]	/* SetRefPoint0 */
MIRP[11101]	/* MoveIndirectRelPt */
SLOOP[ ]	/* SetLoopVariable */
ALIGNRP[ ]	/* AlignRelativePt */
SVTCA[1]	/* SetFreedomAndProjectionVectorToAxis */
MDAP[1]	/* MoveDirectAbsPt */
ALIGNRP[ ]	/* AlignRelativePt */
MIRP[11101]	/* MoveIndirectRelPt */
ALIGNRP[ ]	/* AlignRelativePt */
MDAP[1]	/* MoveDirectAbsPt */
ALIGNRP[ ]	/* AlignRelativePt */
MIRP[11101]	/* MoveIndirectRelPt */
ALIGNRP[ ]	/* AlignRelativePt */
SRP0[ ]	/* SetRefPoint0 */
MIRP[11101]	/* MoveIndirectRelPt */
SRP0[ ]	/* SetRefPoint0 */
MIRP[11101]	/* MoveIndirectRelPt */
ALIGNRP[ ]	/* AlignRelativePt */
SRP0[ ]	/* SetRefPoint0 */
MIRP[11101]	/* MoveIndirectRelPt */
ALIGNRP[ ]	/* AlignRelativePt */
SRP0[ ]	/* SetRefPoint0 */
MIRP[11101]	/* MoveIndirectRelPt */
SDPVTL[1]	/* SetDualPVectorToLine */
MDAP[0]	/* MoveDirectAbsPt */
SFVTPV[ ]	/* SetFVectorToPVector */
MDRP[00100]	/* MoveDirectRelPt */
SFVTL[0]	/* SetFVectorToLine */
MIRP[11100]	/* MoveIndirectRelPt */
SFVTL[0]	/* SetFVectorToLine */
MDRP[00100]	/* MoveDirectRelPt */
SDPVTL[1]	/* SetDualPVectorToLine */
MDAP[0]	/* MoveDirectAbsPt */
SFVTPV[ ]	/* SetFVectorToPVector */
MDRP[00100]	/* MoveDirectRelPt */
SFVTL[0]	/* SetFVectorToLine */
MIRP[11100]	/* MoveIndirectRelPt */
SFVTL[0]	/* SetFVectorToLine */
MDRP[00100]	/* MoveDirectRelPt */
SVTCA[1]	/* SetFreedomAndProjectionVectorToAxis */
SVTCA[0]	/* SetFreedomAndProjectionVectorToAxis */
MDAP[0]	/* MoveDirectAbsPt */
MDAP[0]	/* MoveDirectAbsPt */
MDAP[0]	/* MoveDirectAbsPt */
IUP[1]	/* InterpolateUntPts */
IUP[0]	/* InterpolateUntPts */
SVTCA[1]	/* SetFreedomAndProjectionVectorToAxis */
MD[0]	/* MeasureDistance */
ROUND[00]	/* Round */
PUSHW[ ]	/* 2 values pushed */
23 49
MD[0]	/* MeasureDistance */
ROUND[00]	/* Round */
SUB[ ]	/* Subtract */
PUSHB[ ]	/* 1 value pushed */
64
GT[ ]	/* GreaterThan */
IF[ ]	/* If */
SHPIX[ ]	/* ShiftZoneByPixel */
SRP1[ ]	/* SetRefPoint1 */
SHZ[1]	/* ShiftZoneByLastPoint */
PUSHW[ ]	/* 2 values pushed */
49 -64
SHPIX[ ]	/* ShiftZoneByPixel */
EIF[ ]	/* EndIf */";
};
width = 1491;
}
);
note = M;
unicode = 004D;
},
{
glyphname = N;
lastChange = "2025-02-10 17:38:38 +0000";
layers = (
{
background = {
paths = (
{
closed = 1;
nodes = (
"1159 1171 QCURVE SMOOTH",
"933 1171 LINE SMOOTH",
"877 1171 OFFCURVE",
"877 1129 QCURVE SMOOTH",
"877 1086 OFFCURVE",
"933 1086 QCURVE SMOOTH",
"1004 1086 LINE",
"1004 121 LINE",
"384 1170 LINE",
"206 1171 LINE SMOOTH",
"150 1171 OFFCURVE",
"150 1129 QCURVE SMOOTH",
"150 1086 OFFCURVE",
"206 1086 QCURVE SMOOTH",
"277 1086 LINE",
"277 84 LINE",
"206 84 LINE SMOOTH",
"150 84 OFFCURVE",
"150 41 QCURVE SMOOTH",
"150 -1 OFFCURVE",
"206 -1 QCURVE SMOOTH",
"432 -1 LINE SMOOTH",
"488 -1 OFFCURVE",
"488 41 QCURVE SMOOTH",
"488 84 OFFCURVE",
"432 84 QCURVE SMOOTH",
"361 84 LINE",
"361 1047 LINE",
"980 0 LINE",
"1088 0 LINE",
"1088 1086 LINE",
"1159 1086 LINE SMOOTH",
"1215 1086 OFFCURVE",
"1215 1129 QCURVE SMOOTH",
"1215 1171 OFFCURVE"
);
}
);
};
layerId = m01;
paths = (
{
closed = 1;
nodes = (
"432 -1 LINE SMOOTH",
"469 -1 OFFCURVE",
"488 13 OFFCURVE",
"488 41 CURVE SMOOTH",
"488 70 OFFCURVE",
"469 84 OFFCURVE",
"432 84 CURVE SMOOTH",
"361 84 LINE",
"361 1047 LINE",
"980 0 LINE",
"1088 0 LINE",
"1088 1086 LINE",
"1159 1086 LINE SMOOTH",
"1196 1086 OFFCURVE",
"1215 1100 OFFCURVE",
"1215 1129 CURVE SMOOTH",
"1215 1157 OFFCURVE",
"1196 1171 OFFCURVE",
"1159 1171 CURVE SMOOTH",
"933 1171 LINE SMOOTH",
"896 1171 OFFCURVE",
"877 1157 OFFCURVE",
"877 1129 CURVE SMOOTH",
"877 1100 OFFCURVE",
"896 1086 OFFCURVE",
"933 1086 CURVE SMOOTH",
"1004 1086 LINE",
"1004 121 LINE",
"384 1170 LINE",
"206 1171 LINE SMOOTH",
"169 1171 OFFCURVE",
"150 1157 OFFCURVE",
"150 1129 CURVE SMOOTH",
"150 1100 OFFCURVE",
"169 1086 OFFCURVE",
"206 1086 CURVE SMOOTH",
"277 1086 LINE",
"277 84 LINE",
"206 84 LINE SMOOTH",
"169 84 OFFCURVE",
"150 70 OFFCURVE",
"150 41 CURVE SMOOTH",
"150 13 OFFCURVE",
"169 -1 OFFCURVE",
"206 -1 CURVE SMOOTH"
);
}
);
userData = {
assembly = "NPUSHB[ ]	/* 73 values pushed */
1 35 35 64 36 0 26 6 25 24 25 26 9 26 27 6 6 7 5 5 6 0 24 3 30 24 26 10 24 6 22 15 24 18 7 6 6 19 18 27 26 6 4 3 28 27 20 19 3 5 2 8 24 18 17 8 3 7 8 12 33 32 24 3 13 12 5 3 4 1 1 15 70
SROUND[ ]	/* SuperRound */
MDAP[1]	/* MoveDirectAbsPt */
SHZ[1]	/* ShiftZoneByLastPoint */
RTG[ ]	/* RoundToGrid */
SVTCA[0]	/* SetFreedomAndProjectionVectorToAxis */
MIAP[1]	/* MoveIndirectAbsPt */
SLOOP[ ]	/* SetLoopVariable */
ALIGNRP[ ]	/* AlignRelativePt */
MIAP[1]	/* MoveIndirectAbsPt */
ALIGNRP[ ]	/* AlignRelativePt */
ALIGNRP[ ]	/* AlignRelativePt */
SRP0[ ]	/* SetRefPoint0 */
MIRP[11101]	/* MoveIndirectRelPt */
SLOOP[ ]	/* SetLoopVariable */
ALIGNRP[ ]	/* AlignRelativePt */
SRP0[ ]	/* SetRefPoint0 */
MIRP[11101]	/* MoveIndirectRelPt */
SLOOP[ ]	/* SetLoopVariable */
ALIGNRP[ ]	/* AlignRelativePt */
SVTCA[1]	/* SetFreedomAndProjectionVectorToAxis */
MDAP[1]	/* MoveDirectAbsPt */
ALIGNRP[ ]	/* AlignRelativePt */
MIRP[11101]	/* MoveIndirectRelPt */
ALIGNRP[ ]	/* AlignRelativePt */
MDAP[1]	/* MoveDirectAbsPt */
ALIGNRP[ ]	/* AlignRelativePt */
MIRP[11101]	/* MoveIndirectRelPt */
ALIGNRP[ ]	/* AlignRelativePt */
SRP0[ ]	/* SetRefPoint0 */
MIRP[11101]	/* MoveIndirectRelPt */
ALIGNRP[ ]	/* AlignRelativePt */
SRP0[ ]	/* SetRefPoint0 */
MIRP[11101]	/* MoveIndirectRelPt */
SRP0[ ]	/* SetRefPoint0 */
MIRP[11101]	/* MoveIndirectRelPt */
SRP0[ ]	/* SetRefPoint0 */
MIRP[11101]	/* MoveIndirectRelPt */
SDPVTL[1]	/* SetDualPVectorToLine */
MDAP[0]	/* MoveDirectAbsPt */
SFVTL[0]	/* SetFVectorToLine */
MDRP[00100]	/* MoveDirectRelPt */
SFVTL[0]	/* SetFVectorToLine */
MIRP[11100]	/* MoveIndirectRelPt */
SFVTL[0]	/* SetFVectorToLine */
MDRP[00100]	/* MoveDirectRelPt */
SVTCA[1]	/* SetFreedomAndProjectionVectorToAxis */
SVTCA[0]	/* SetFreedomAndProjectionVectorToAxis */
MDAP[0]	/* MoveDirectAbsPt */
MDAP[0]	/* MoveDirectAbsPt */
IUP[1]	/* InterpolateUntPts */
IUP[0]	/* InterpolateUntPts */
SVTCA[1]	/* SetFreedomAndProjectionVectorToAxis */
MD[0]	/* MeasureDistance */
ROUND[00]	/* Round */
PUSHW[ ]	/* 2 values pushed */
15 35
MD[0]	/* MeasureDistance */
ROUND[00]	/* Round */
SUB[ ]	/* Subtract */
PUSHB[ ]	/* 1 value pushed */
64
GT[ ]	/* GreaterThan */
IF[ ]	/* If */
SHPIX[ ]	/* ShiftZoneByPixel */
SRP1[ ]	/* SetRefPoint1 */
SHZ[1]	/* ShiftZoneByLastPoint */
PUSHW[ ]	/* 2 values pushed */
35 -64
SHPIX[ ]	/* ShiftZoneByPixel */
EIF[ ]	/* EndIf */";
};
width = 1364;
}
);
note = N;
unicode = 004E;
},
{
glyphname = O;
lastChange = "2025-02-10 17:38:38 +0000";
layers = (
{
background = {
paths = (
{
closed = 1;
nodes = (
"1040 1002 QCURVE SMOOTH",
"894 1199 OFFCURVE",
"662 1199 QCURVE SMOOTH",
"430 1199 OFFCURVE",
"283 1002 QCURVE SMOOTH",
"150 823 OFFCURVE",
"150 584 QCURVE SMOOTH",
"150 345 OFFCURVE",
"283 166 QCURVE SMOOTH",
"430 -31 OFFCURVE",
"662 -31 QCURVE SMOOTH",
"894 -31 OFFCURVE",
"1041 166 QCURVE SMOOTH",
"1174 344 OFFCURVE",
"1174 584 QCURVE SMOOTH",
"1174 823 OFFCURVE"
);
},
{
closed = 1;
nodes = (
"979 226 QCURVE SMOOTH",
"856 53 OFFCURVE",
"662 53 QCURVE SMOOTH",
"468 53 OFFCURVE",
"345 227 QCURVE SMOOTH",
"234 383 OFFCURVE",
"234 584 QCURVE SMOOTH",
"234 786 OFFCURVE",
"345 941 QCURVE SMOOTH",
"468 1115 OFFCURVE",
"662 1115 QCURVE SMOOTH",
"856 1115 OFFCURVE",
"979 942 QCURVE SMOOTH",
"1089 786 OFFCURVE",
"1089 584 QCURVE SMOOTH",
"1089 381 OFFCURVE"
);
}
);
};
layerId = m01;
paths = (
{
closed = 1;
nodes = (
"817 -31 OFFCURVE",
"943 35 OFFCURVE",
"1041 166 CURVE SMOOTH",
"1130 285 OFFCURVE",
"1174 424 OFFCURVE",
"1174 584 CURVE SMOOTH",
"1174 743 OFFCURVE",
"1129 883 OFFCURVE",
"1040 1002 CURVE SMOOTH",
"943 1133 OFFCURVE",
"817 1199 OFFCURVE",
"662 1199 CURVE SMOOTH",
"507 1199 OFFCURVE",
"381 1133 OFFCURVE",
"283 1002 CURVE SMOOTH",
"194 883 OFFCURVE",
"150 743 OFFCURVE",
"150 584 CURVE SMOOTH",
"150 425 OFFCURVE",
"194 285 OFFCURVE",
"283 166 CURVE SMOOTH",
"381 35 OFFCURVE",
"507 -31 OFFCURVE",
"662 -31 CURVE SMOOTH"
);
},
{
closed = 1;
nodes = (
"533 53 OFFCURVE",
"427 111 OFFCURVE",
"345 227 CURVE SMOOTH",
"271 331 OFFCURVE",
"234 450 OFFCURVE",
"234 584 CURVE SMOOTH",
"234 719 OFFCURVE",
"271 838 OFFCURVE",
"345 941 CURVE SMOOTH",
"427 1057 OFFCURVE",
"533 1115 OFFCURVE",
"662 1115 CURVE SMOOTH",
"791 1115 OFFCURVE",
"897 1057 OFFCURVE",
"979 942 CURVE SMOOTH",
"1052 838 OFFCURVE",
"1089 719 OFFCURVE",
"1089 584 CURVE SMOOTH",
"1089 449 OFFCURVE",
"1052 329 OFFCURVE",
"979 226 CURVE SMOOTH",
"897 111 OFFCURVE",
"791 53 OFFCURVE",
"662 53 CURVE SMOOTH"
);
}
);
userData = {
assembly = "NPUSHB[ ]	/* 25 values pushed */
1 32 32 64 33 0 24 6 8 16 6 0 28 8 4 20 8 12 12 3 4 1 1 8 70
SROUND[ ]	/* SuperRound */
MDAP[1]	/* MoveDirectAbsPt */
SHZ[1]	/* ShiftZoneByLastPoint */
RTG[ ]	/* RoundToGrid */
SVTCA[0]	/* SetFreedomAndProjectionVectorToAxis */
MIAP[1]	/* MoveIndirectAbsPt */
MIAP[1]	/* MoveIndirectAbsPt */
SRP0[ ]	/* SetRefPoint0 */
MIRP[11101]	/* MoveIndirectRelPt */
SRP0[ ]	/* SetRefPoint0 */
MIRP[11101]	/* MoveIndirectRelPt */
SVTCA[1]	/* SetFreedomAndProjectionVectorToAxis */
MDAP[1]	/* MoveDirectAbsPt */
MIRP[11101]	/* MoveIndirectRelPt */
MDAP[1]	/* MoveDirectAbsPt */
MIRP[11101]	/* MoveIndirectRelPt */
SVTCA[0]	/* SetFreedomAndProjectionVectorToAxis */
IUP[1]	/* InterpolateUntPts */
IUP[0]	/* InterpolateUntPts */
SVTCA[1]	/* SetFreedomAndProjectionVectorToAxis */
MD[0]	/* MeasureDistance */
ROUND[00]	/* Round */
PUSHW[ ]	/* 2 values pushed */
8 32
MD[0]	/* MeasureDistance */
ROUND[00]	/* Round */
SUB[ ]	/* Subtract */
PUSHB[ ]	/* 1 value pushed */
64
GT[ ]	/* GreaterThan */
IF[ ]	/* If */
SHPIX[ ]	/* ShiftZoneByPixel */
SRP1[ ]	/* SetRefPoint1 */
SHZ[1]	/* ShiftZoneByLastPoint */
PUSHW[ ]	/* 2 values pushed */
32 -64
SHPIX[ ]	/* ShiftZoneByPixel */
EIF[ ]	/* EndIf */";
};
width = 1324;
}
);
note = O;
unicode = 004F;
},
{
glyphname = P;
lastChange = "2025-02-10 17:38:38 +0000";
layers = (
{
background = {
paths = (
{
closed = 1;
nodes = (
"922 1078 QCURVE SMOOTH",
"808 1169 OFFCURVE",
"652 1169 QCURVE SMOOTH",
"206 1170 LINE SMOOTH",
"150 1170 OFFCURVE",
"150 1128 QCURVE SMOOTH",
"150 1085 OFFCURVE",
"206 1085 QCURVE SMOOTH",
"277 1085 LINE",
"277 83 LINE",
"206 83 LINE SMOOTH",
"150 83 OFFCURVE",
"150 40 QCURVE SMOOTH",
"150 -2 OFFCURVE",
"206 -2 QCURVE SMOOTH",
"432 -2 LINE SMOOTH",
"488 -2 OFFCURVE",
"488 40 QCURVE SMOOTH",
"488 83 OFFCURVE",
"432 83 QCURVE SMOOTH",
"361 83 LINE",
"361 479 LINE",
"375 479 OFFCURVE",
"495 476 QCURVE SMOOTH",
"583 473 OFFCURVE",
"638 476 QCURVE SMOOTH",
"716 481 OFFCURVE",
"768 498 QCURVE SMOOTH",
"890 538 OFFCURVE",
"963 618 QCURVE SMOOTH",
"1044 707 OFFCURVE",
"1044 828 QCURVE SMOOTH",
"1044 981 OFFCURVE"
);
},
{
closed = 1;
nodes = (
"850 632 QCURVE SMOOTH",
"752 563 OFFCURVE",
"629 563 QCURVE SMOOTH",
"361 563 LINE",
"361 1085 LINE",
"660 1085 LINE SMOOTH",
"776 1085 OFFCURVE",
"864 1016 QCURVE SMOOTH",
"960 941 OFFCURVE",
"960 828 QCURVE SMOOTH",
"960 710 OFFCURVE"
);
}
);
};
layerId = m01;
paths = (
{
closed = 1;
nodes = (
"432 -2 LINE SMOOTH",
"469 -2 OFFCURVE",
"488 12 OFFCURVE",
"488 40 CURVE SMOOTH",
"488 69 OFFCURVE",
"469 83 OFFCURVE",
"432 83 CURVE SMOOTH",
"361 83 LINE",
"361 479 LINE",
"495 476 LINE SMOOTH",
"554 474 OFFCURVE",
"601 474 OFFCURVE",
"638 476 CURVE SMOOTH",
"690 479 OFFCURVE",
"733 487 OFFCURVE",
"768 498 CURVE SMOOTH",
"849 525 OFFCURVE",
"914 565 OFFCURVE",
"963 618 CURVE SMOOTH",
"1017 677 OFFCURVE",
"1044 747 OFFCURVE",
"1044 828 CURVE SMOOTH",
"1044 930 OFFCURVE",
"1003 1013 OFFCURVE",
"922 1078 CURVE SMOOTH",
"846 1139 OFFCURVE",
"756 1169 OFFCURVE",
"652 1169 CURVE SMOOTH",
"206 1170 LINE SMOOTH",
"169 1170 OFFCURVE",
"150 1156 OFFCURVE",
"150 1128 CURVE SMOOTH",
"150 1099 OFFCURVE",
"169 1085 OFFCURVE",
"206 1085 CURVE SMOOTH",
"277 1085 LINE",
"277 83 LINE",
"206 83 LINE SMOOTH",
"169 83 OFFCURVE",
"150 69 OFFCURVE",
"150 40 CURVE SMOOTH",
"150 12 OFFCURVE",
"169 -2 OFFCURVE",
"206 -2 CURVE SMOOTH"
);
},
{
closed = 1;
nodes = (
"361 1085 LINE",
"660 1085 LINE SMOOTH",
"737 1085 OFFCURVE",
"805 1062 OFFCURVE",
"864 1016 CURVE SMOOTH",
"928 966 OFFCURVE",
"960 903 OFFCURVE",
"960 828 CURVE SMOOTH",
"960 749 OFFCURVE",
"923 684 OFFCURVE",
"850 632 CURVE SMOOTH",
"785 586 OFFCURVE",
"711 563 OFFCURVE",
"629 563 CURVE SMOOTH",
"361 563 LINE"
);
}
);
userData = {
assembly = "NPUSHB[ ]	/* 53 values pushed */
1 44 44 64 45 0 10 8 6 14 24 10 26 19 24 22 39 38 11 3 10 6 23 22 33 6 0 40 39 7 16 22 21 12 3 11 8 16 38 37 24 3 23 8 29 28 3 17 16 1 1 19 70
SROUND[ ]	/* SuperRound */
MDAP[1]	/* MoveDirectAbsPt */
SHZ[1]	/* ShiftZoneByLastPoint */
RTG[ ]	/* RoundToGrid */
SVTCA[0]	/* SetFreedomAndProjectionVectorToAxis */
MIAP[1]	/* MoveIndirectAbsPt */
ALIGNRP[ ]	/* AlignRelativePt */
MIAP[1]	/* MoveIndirectAbsPt */
MDAP[1]	/* MoveDirectAbsPt */
MIRP[11101]	/* MoveIndirectRelPt */
SLOOP[ ]	/* SetLoopVariable */
ALIGNRP[ ]	/* AlignRelativePt */
SRP0[ ]	/* SetRefPoint0 */
MIRP[11101]	/* MoveIndirectRelPt */
SLOOP[ ]	/* SetLoopVariable */
ALIGNRP[ ]	/* AlignRelativePt */
SRP0[ ]	/* SetRefPoint0 */
MIRP[11101]	/* MoveIndirectRelPt */
ALIGNRP[ ]	/* AlignRelativePt */
SVTCA[1]	/* SetFreedomAndProjectionVectorToAxis */
MDAP[1]	/* MoveDirectAbsPt */
MIRP[11101]	/* MoveIndirectRelPt */
MDAP[1]	/* MoveDirectAbsPt */
ALIGNRP[ ]	/* AlignRelativePt */
MIRP[11101]	/* MoveIndirectRelPt */
SLOOP[ ]	/* SetLoopVariable */
ALIGNRP[ ]	/* AlignRelativePt */
SRP0[ ]	/* SetRefPoint0 */
MIRP[11101]	/* MoveIndirectRelPt */
ALIGNRP[ ]	/* AlignRelativePt */
SRP0[ ]	/* SetRefPoint0 */
MIRP[11101]	/* MoveIndirectRelPt */
SVTCA[0]	/* SetFreedomAndProjectionVectorToAxis */
MDAP[0]	/* MoveDirectAbsPt */
MDAP[0]	/* MoveDirectAbsPt */
MDAP[0]	/* MoveDirectAbsPt */
IUP[1]	/* InterpolateUntPts */
IUP[0]	/* InterpolateUntPts */
SVTCA[1]	/* SetFreedomAndProjectionVectorToAxis */
MD[0]	/* MeasureDistance */
ROUND[00]	/* Round */
PUSHW[ ]	/* 2 values pushed */
19 44
MD[0]	/* MeasureDistance */
ROUND[00]	/* Round */
SUB[ ]	/* Subtract */
PUSHB[ ]	/* 1 value pushed */
64
GT[ ]	/* GreaterThan */
IF[ ]	/* If */
SHPIX[ ]	/* ShiftZoneByPixel */
SRP1[ ]	/* SetRefPoint1 */
SHZ[1]	/* ShiftZoneByLastPoint */
PUSHW[ ]	/* 2 values pushed */
44 -64
SHPIX[ ]	/* ShiftZoneByPixel */
EIF[ ]	/* EndIf */";
};
width = 1192;
}
);
note = P;
unicode = 0050;
},
{
glyphname = Q;
lastChange = "2025-02-10 17:38:38 +0000";
layers = (
{
background = {
paths = (
{
closed = 1;
nodes = (
"1040 999 QCURVE SMOOTH",
"894 1196 OFFCURVE",
"662 1196 QCURVE SMOOTH",
"430 1196 OFFCURVE",
"284 999 QCURVE SMOOTH",
"150 820 OFFCURVE",
"150 581 QCURVE SMOOTH",
"150 375 OFFCURVE",
"253 208 QCURVE SMOOTH",
"366 25 OFFCURVE",
"556 -22 QCURVE",
"497 -63 OFFCURVE",
"438 -103 QCURVE SMOOTH",
"346 -170 OFFCURVE",
"346 -193 QCURVE SMOOTH",
"346 -237 OFFCURVE",
"387 -237 QCURVE SMOOTH",
"396 -237 OFFCURVE",
"416 -232 QCURVE SMOOTH",
"599 -186 OFFCURVE",
"699 -186 QCURVE SMOOTH",
"747 -186 OFFCURVE",
"915 -240 OFFCURVE",
"958 -240 QCURVE SMOOTH",
"1006 -240 OFFCURVE",
"1084 -209 QCURVE SMOOTH",
"1173 -172 OFFCURVE",
"1173 -133 QCURVE SMOOTH",
"1173 -91 OFFCURVE",
"1132 -91 QCURVE SMOOTH",
"1126 -91 OFFCURVE",
"1008 -156 OFFCURVE",
"963 -156 QCURVE SMOOTH",
"934 -156 OFFCURVE",
"757 -101 OFFCURVE",
"697 -101 QCURVE SMOOTH",
"643 -101 OFFCURVE",
"560 -118 QCURVE",
"672 -34 LINE",
"899 -31 OFFCURVE",
"1043 167 QCURVE SMOOTH",
"1174 346 OFFCURVE",
"1174 581 QCURVE SMOOTH",
"1174 820 OFFCURVE"
);
},
{
closed = 1;
nodes = (
"979 223 QCURVE SMOOTH",
"856 50 OFFCURVE",
"662 50 QCURVE SMOOTH",
"468 50 OFFCURVE",
"345 224 QCURVE SMOOTH",
"234 380 OFFCURVE",
"234 581 QCURVE SMOOTH",
"234 783 OFFCURVE",
"345 938 QCURVE SMOOTH",
"468 1112 OFFCURVE",
"662 1112 QCURVE SMOOTH",
"856 1112 OFFCURVE",
"979 939 QCURVE SMOOTH",
"1089 783 OFFCURVE",
"1089 581 QCURVE SMOOTH",
"1089 378 OFFCURVE"
);
}
);
};
layerId = m01;
paths = (
{
closed = 1;
nodes = (
"990 -240 OFFCURVE",
"1032 -230 OFFCURVE",
"1084 -209 CURVE SMOOTH",
"1143 -184 OFFCURVE",
"1173 -159 OFFCURVE",
"1173 -133 CURVE SMOOTH",
"1173 -105 OFFCURVE",
"1159 -91 OFFCURVE",
"1132 -91 CURVE SMOOTH",
"1128 -91 OFFCURVE",
"1106 -102 OFFCURVE",
"1067 -123 CURVE SMOOTH",
"1028 -145 OFFCURVE",
"993 -156 OFFCURVE",
"963 -156 CURVE SMOOTH",
"944 -156 OFFCURVE",
"905 -147 OFFCURVE",
"846 -128 CURVE SMOOTH",
"787 -110 OFFCURVE",
"737 -101 OFFCURVE",
"697 -101 CURVE SMOOTH",
"661 -101 OFFCURVE",
"615 -107 OFFCURVE",
"560 -118 CURVE",
"672 -34 LINE",
"823 -32 OFFCURVE",
"947 35 OFFCURVE",
"1043 167 CURVE SMOOTH",
"1130 286 OFFCURVE",
"1174 424 OFFCURVE",
"1174 581 CURVE SMOOTH",
"1174 740 OFFCURVE",
"1129 880 OFFCURVE",
"1040 999 CURVE SMOOTH",
"943 1130 OFFCURVE",
"817 1196 OFFCURVE",
"662 1196 CURVE SMOOTH",
"507 1196 OFFCURVE",
"381 1130 OFFCURVE",
"284 999 CURVE SMOOTH",
"195 880 OFFCURVE",
"150 740 OFFCURVE",
"150 581 CURVE SMOOTH",
"150 444 OFFCURVE",
"184 319 OFFCURVE",
"253 208 CURVE SMOOTH",
"328 86 OFFCURVE",
"429 9 OFFCURVE",
"556 -22 CURVE",
"438 -103 LINE SMOOTH",
"377 -148 OFFCURVE",
"346 -178 OFFCURVE",
"346 -193 CURVE SMOOTH",
"346 -222 OFFCURVE",
"360 -237 OFFCURVE",
"387 -237 CURVE SMOOTH",
"393 -237 OFFCURVE",
"403 -235 OFFCURVE",
"416 -232 CURVE SMOOTH",
"538 -201 OFFCURVE",
"632 -186 OFFCURVE",
"699 -186 CURVE SMOOTH",
"731 -186 OFFCURVE",
"775 -195 OFFCURVE",
"831 -213 CURVE SMOOTH",
"887 -231 OFFCURVE",
"929 -240 OFFCURVE",
"958 -240 CURVE SMOOTH"
);
},
{
closed = 1;
nodes = (
"533 50 OFFCURVE",
"427 108 OFFCURVE",
"345 224 CURVE SMOOTH",
"271 328 OFFCURVE",
"234 447 OFFCURVE",
"234 581 CURVE SMOOTH",
"234 716 OFFCURVE",
"271 835 OFFCURVE",
"345 938 CURVE SMOOTH",
"427 1054 OFFCURVE",
"533 1112 OFFCURVE",
"662 1112 CURVE SMOOTH",
"791 1112 OFFCURVE",
"897 1054 OFFCURVE",
"979 939 CURVE SMOOTH",
"1052 835 OFFCURVE",
"1089 716 OFFCURVE",
"1089 581 CURVE SMOOTH",
"1089 446 OFFCURVE",
"1052 326 OFFCURVE",
"979 223 CURVE SMOOTH",
"897 108 OFFCURVE",
"791 50 OFFCURVE",
"662 50 CURVE SMOOTH"
);
}
);
userData = {
assembly = "NPUSHB[ ]	/* 37 values pushed */
1 60 60 64 61 0 26 13 5 32 28 5 52 6 36 44 6 15 0 56 7 22 10 8 19 7 8 22 48 8 40 19 40 3 1 36 70
SROUND[ ]	/* SuperRound */
MDAP[1]	/* MoveDirectAbsPt */
SHZ[1]	/* ShiftZoneByLastPoint */
RTG[ ]	/* RoundToGrid */
SVTCA[0]	/* SetFreedomAndProjectionVectorToAxis */
MIAP[1]	/* MoveIndirectAbsPt */
MDAP[1]	/* MoveDirectAbsPt */
SRP0[ ]	/* SetRefPoint0 */
MIRP[11101]	/* MoveIndirectRelPt */
MDAP[1]	/* MoveDirectAbsPt */
MIRP[11101]	/* MoveIndirectRelPt */
SRP0[ ]	/* SetRefPoint0 */
MIRP[11101]	/* MoveIndirectRelPt */
SRP0[ ]	/* SetRefPoint0 */
MIRP[11101]	/* MoveIndirectRelPt */
SVTCA[1]	/* SetFreedomAndProjectionVectorToAxis */
MDAP[1]	/* MoveDirectAbsPt */
ALIGNRP[ ]	/* AlignRelativePt */
MIRP[11101]	/* MoveIndirectRelPt */
MDAP[1]	/* MoveDirectAbsPt */
MIRP[11101]	/* MoveIndirectRelPt */
MDAP[0]	/* MoveDirectAbsPt */
MDAP[0]	/* MoveDirectAbsPt */
MDAP[0]	/* MoveDirectAbsPt */
SVTCA[0]	/* SetFreedomAndProjectionVectorToAxis */
MDAP[0]	/* MoveDirectAbsPt */
MDAP[0]	/* MoveDirectAbsPt */
MDAP[0]	/* MoveDirectAbsPt */
IUP[1]	/* InterpolateUntPts */
IUP[0]	/* InterpolateUntPts */
SVTCA[1]	/* SetFreedomAndProjectionVectorToAxis */
MD[0]	/* MeasureDistance */
ROUND[00]	/* Round */
PUSHW[ ]	/* 2 values pushed */
36 60
MD[0]	/* MeasureDistance */
ROUND[00]	/* Round */
SUB[ ]	/* Subtract */
PUSHB[ ]	/* 1 value pushed */
64
GT[ ]	/* GreaterThan */
IF[ ]	/* If */
SHPIX[ ]	/* ShiftZoneByPixel */
SRP1[ ]	/* SetRefPoint1 */
SHZ[1]	/* ShiftZoneByLastPoint */
PUSHW[ ]	/* 2 values pushed */
60 -64
SHPIX[ ]	/* ShiftZoneByPixel */
EIF[ ]	/* EndIf */";
};
width = 1324;
}
);
note = Q;
unicode = 0051;
},
{
glyphname = R;
lastChange = "2025-02-10 17:38:38 +0000";
layers = (
{
background = {
paths = (
{
closed = 1;
nodes = (
"1125 83 QCURVE SMOOTH",
"1054 83 LINE",
"755 543 LINE",
"1044 641 OFFCURVE",
"1044 845 QCURVE SMOOTH",
"1044 984 OFFCURVE",
"925 1080 QCURVE SMOOTH",
"814 1169 OFFCURVE",
"672 1169 QCURVE SMOOTH",
"206 1170 LINE SMOOTH",
"150 1170 OFFCURVE",
"150 1128 QCURVE SMOOTH",
"150 1085 OFFCURVE",
"206 1085 QCURVE SMOOTH",
"277 1085 LINE",
"277 83 LINE",
"206 83 LINE SMOOTH",
"150 83 OFFCURVE",
"150 40 QCURVE SMOOTH",
"150 -2 OFFCURVE",
"206 -2 QCURVE SMOOTH",
"432 -2 LINE SMOOTH",
"488 -2 OFFCURVE",
"488 40 QCURVE SMOOTH",
"488 83 OFFCURVE",
"432 83 QCURVE SMOOTH",
"361 83 LINE",
"361 521 LINE",
"648 521 LINE",
"986 -1 LINE",
"1125 -2 LINE SMOOTH",
"1181 -2 OFFCURVE",
"1181 40 QCURVE SMOOTH",
"1181 83 OFFCURVE"
);
},
{
closed = 1;
nodes = (
"827 663 QCURVE SMOOTH",
"716 605 OFFCURVE",
"590 605 QCURVE SMOOTH",
"361 605 LINE",
"361 1085 LINE",
"670 1085 LINE SMOOTH",
"774 1085 OFFCURVE",
"863 1020 QCURVE SMOOTH",
"960 949 OFFCURVE",
"960 849 QCURVE SMOOTH",
"960 734 OFFCURVE"
);
}
);
};
layerId = m01;
paths = (
{
closed = 1;
nodes = (
"432 -2 LINE SMOOTH",
"469 -2 OFFCURVE",
"488 12 OFFCURVE",
"488 40 CURVE SMOOTH",
"488 69 OFFCURVE",
"469 83 OFFCURVE",
"432 83 CURVE SMOOTH",
"361 83 LINE",
"361 521 LINE",
"648 521 LINE",
"986 -1 LINE",
"1125 -2 LINE SMOOTH",
"1162 -2 OFFCURVE",
"1181 12 OFFCURVE",
"1181 40 CURVE SMOOTH",
"1181 69 OFFCURVE",
"1162 83 OFFCURVE",
"1125 83 CURVE SMOOTH",
"1054 83 LINE",
"755 543 LINE",
"948 608 OFFCURVE",
"1044 709 OFFCURVE",
"1044 845 CURVE SMOOTH",
"1044 938 OFFCURVE",
"1004 1016 OFFCURVE",
"925 1080 CURVE SMOOTH",
"851 1139 OFFCURVE",
"767 1169 OFFCURVE",
"672 1169 CURVE SMOOTH",
"206 1170 LINE SMOOTH",
"169 1170 OFFCURVE",
"150 1156 OFFCURVE",
"150 1128 CURVE SMOOTH",
"150 1099 OFFCURVE",
"169 1085 OFFCURVE",
"206 1085 CURVE SMOOTH",
"277 1085 LINE",
"277 83 LINE",
"206 83 LINE SMOOTH",
"169 83 OFFCURVE",
"150 69 OFFCURVE",
"150 40 CURVE SMOOTH",
"150 12 OFFCURVE",
"169 -2 OFFCURVE",
"206 -2 CURVE SMOOTH"
);
},
{
closed = 1;
nodes = (
"361 1085 LINE",
"670 1085 LINE SMOOTH",
"739 1085 OFFCURVE",
"804 1063 OFFCURVE",
"863 1020 CURVE SMOOTH",
"928 973 OFFCURVE",
"960 916 OFFCURVE",
"960 849 CURVE SMOOTH",
"960 772 OFFCURVE",
"916 710 OFFCURVE",
"827 663 CURVE SMOOTH",
"753 624 OFFCURVE",
"674 605 OFFCURVE",
"590 605 CURVE SMOOTH",
"361 605 LINE"
);
}
);
userData = {
assembly = "NPUSHB[ ]	/* 67 values pushed */
1 45 45 64 46 0 30 0 3 2 3 4 9 4 5 31 30 30 31 9 24 5 21 14 24 17 40 39 6 3 5 6 18 17 34 6 28 32 31 17 16 7 5 6 8 2 41 40 8 5 4 39 38 19 3 18 8 24 23 3 12 11 2 1 1 14 70
SROUND[ ]	/* SuperRound */
MDAP[1]	/* MoveDirectAbsPt */
SHZ[1]	/* ShiftZoneByLastPoint */
RTG[ ]	/* RoundToGrid */
SVTCA[0]	/* SetFreedomAndProjectionVectorToAxis */
MIAP[1]	/* MoveIndirectAbsPt */
ALIGNRP[ ]	/* AlignRelativePt */
ALIGNRP[ ]	/* AlignRelativePt */
MIAP[1]	/* MoveIndirectAbsPt */
MDAP[1]	/* MoveDirectAbsPt */
MIRP[11101]	/* MoveIndirectRelPt */
SLOOP[ ]	/* SetLoopVariable */
ALIGNRP[ ]	/* AlignRelativePt */
MDAP[1]	/* MoveDirectAbsPt */
ALIGNRP[ ]	/* AlignRelativePt */
MIRP[11101]	/* MoveIndirectRelPt */
ALIGNRP[ ]	/* AlignRelativePt */
SRP0[ ]	/* SetRefPoint0 */
MIRP[11101]	/* MoveIndirectRelPt */
SLOOP[ ]	/* SetLoopVariable */
ALIGNRP[ ]	/* AlignRelativePt */
SVTCA[1]	/* SetFreedomAndProjectionVectorToAxis */
MDAP[1]	/* MoveDirectAbsPt */
MIRP[11101]	/* MoveIndirectRelPt */
MDAP[1]	/* MoveDirectAbsPt */
ALIGNRP[ ]	/* AlignRelativePt */
MIRP[11101]	/* MoveIndirectRelPt */
SLOOP[ ]	/* SetLoopVariable */
ALIGNRP[ ]	/* AlignRelativePt */
SRP0[ ]	/* SetRefPoint0 */
MIRP[11101]	/* MoveIndirectRelPt */
ALIGNRP[ ]	/* AlignRelativePt */
SRP0[ ]	/* SetRefPoint0 */
MIRP[11101]	/* MoveIndirectRelPt */
SDPVTL[1]	/* SetDualPVectorToLine */
MDAP[0]	/* MoveDirectAbsPt */
SFVTPV[ ]	/* SetFVectorToPVector */
MDRP[00100]	/* MoveDirectRelPt */
SFVTL[0]	/* SetFVectorToLine */
MIRP[11100]	/* MoveIndirectRelPt */
SFVTL[0]	/* SetFVectorToLine */
MDRP[00100]	/* MoveDirectRelPt */
SVTCA[1]	/* SetFreedomAndProjectionVectorToAxis */
MDAP[0]	/* MoveDirectAbsPt */
MDAP[0]	/* MoveDirectAbsPt */
SVTCA[0]	/* SetFreedomAndProjectionVectorToAxis */
IUP[1]	/* InterpolateUntPts */
IUP[0]	/* InterpolateUntPts */
SVTCA[1]	/* SetFreedomAndProjectionVectorToAxis */
MD[0]	/* MeasureDistance */
ROUND[00]	/* Round */
PUSHW[ ]	/* 2 values pushed */
14 45
MD[0]	/* MeasureDistance */
ROUND[00]	/* Round */
SUB[ ]	/* Subtract */
PUSHB[ ]	/* 1 value pushed */
64
GT[ ]	/* GreaterThan */
IF[ ]	/* If */
SHPIX[ ]	/* ShiftZoneByPixel */
SRP1[ ]	/* SetRefPoint1 */
SHZ[1]	/* ShiftZoneByLastPoint */
PUSHW[ ]	/* 2 values pushed */
45 -64
SHPIX[ ]	/* ShiftZoneByPixel */
EIF[ ]	/* EndIf */";
};
width = 1332;
}
);
note = R;
unicode = 0052;
},
{
glyphname = S;
lastChange = "2025-02-10 17:38:38 +0000";
layers = (
{
background = {
paths = (
{
closed = 1;
nodes = (
"854 588 QCURVE",
"678 629 OFFCURVE",
"502 670 QCURVE",
"312 723 OFFCURVE",
"312 873 QCURVE SMOOTH",
"312 987 OFFCURVE",
"410 1054 QCURVE SMOOTH",
"496 1113 OFFCURVE",
"615 1113 QCURVE SMOOTH",
"747 1113 OFFCURVE",
"829 1046 QCURVE SMOOTH",
"893 993 OFFCURVE",
"909 927 QCURVE SMOOTH",
"927 857 OFFCURVE",
"928 856 QCURVE SMOOTH",
"939 844 OFFCURVE",
"957 844 QCURVE SMOOTH",
"999 844 OFFCURVE",
"999 900 QCURVE SMOOTH",
"999 1114 LINE SMOOTH",
"999 1170 OFFCURVE",
"957 1170 QCURVE SMOOTH",
"915 1170 OFFCURVE",
"915 1086 QCURVE",
"788 1197 OFFCURVE",
"612 1197 QCURVE SMOOTH",
"458 1197 OFFCURVE",
"349 1115 QCURVE SMOOTH",
"228 1024 OFFCURVE",
"228 875 QCURVE SMOOTH",
"228 686 OFFCURVE",
"418 616 QCURVE",
"594 573 OFFCURVE",
"770 531 QCURVE",
"960 474 OFFCURVE",
"960 317 QCURVE SMOOTH",
"960 189 OFFCURVE",
"849 115 QCURVE SMOOTH",
"753 51 OFFCURVE",
"619 51 QCURVE SMOOTH",
"461 51 OFFCURVE",
"368 127 QCURVE SMOOTH",
"295 185 OFFCURVE",
"276 257 QCURVE SMOOTH",
"266 295 OFFCURVE",
"257 333 QCURVE",
"245 345 OFFCURVE",
"227 345 QCURVE SMOOTH",
"185 345 OFFCURVE",
"185 288 QCURVE SMOOTH",
"185 56 LINE SMOOTH",
"185 0 OFFCURVE",
"227 0 QCURVE SMOOTH",
"261 0 OFFCURVE",
"268 39 QCURVE SMOOTH",
"269 46 OFFCURVE",
"269 104 QCURVE",
"400 -33 OFFCURVE",
"619 -33 QCURVE SMOOTH",
"790 -33 OFFCURVE",
"910 53 QCURVE SMOOTH",
"1044 149 OFFCURVE",
"1044 314 QCURVE SMOOTH",
"1044 515 OFFCURVE"
);
}
);
};
layerId = m01;
paths = (
{
closed = 1;
nodes = (
"733 -33 OFFCURVE",
"830 -4 OFFCURVE",
"910 53 CURVE SMOOTH",
"999 117 OFFCURVE",
"1044 204 OFFCURVE",
"1044 314 CURVE SMOOTH",
"1044 448 OFFCURVE",
"981 539 OFFCURVE",
"854 588 CURVE",
"502 670 LINE",
"375 705 OFFCURVE",
"312 773 OFFCURVE",
"312 873 CURVE SMOOTH",
"312 949 OFFCURVE",
"345 1009 OFFCURVE",
"410 1054 CURVE SMOOTH",
"467 1093 OFFCURVE",
"536 1113 OFFCURVE",
"615 1113 CURVE SMOOTH",
"703 1113 OFFCURVE",
"774 1091 OFFCURVE",
"829 1046 CURVE SMOOTH",
"872 1011 OFFCURVE",
"898 971 OFFCURVE",
"909 927 CURVE SMOOTH",
"928 856 LINE",
"935 848 OFFCURVE",
"945 844 OFFCURVE",
"957 844 CURVE SMOOTH",
"985 844 OFFCURVE",
"999 863 OFFCURVE",
"999 900 CURVE SMOOTH",
"999 1114 LINE SMOOTH",
"999 1151 OFFCURVE",
"985 1170 OFFCURVE",
"957 1170 CURVE SMOOTH",
"929 1170 OFFCURVE",
"915 1142 OFFCURVE",
"915 1086 CURVE",
"830 1160 OFFCURVE",
"729 1197 OFFCURVE",
"612 1197 CURVE SMOOTH",
"509 1197 OFFCURVE",
"422 1170 OFFCURVE",
"349 1115 CURVE SMOOTH",
"268 1054 OFFCURVE",
"228 974 OFFCURVE",
"228 875 CURVE SMOOTH",
"228 749 OFFCURVE",
"291 663 OFFCURVE",
"418 616 CURVE",
"770 531 LINE",
"897 493 OFFCURVE",
"960 422 OFFCURVE",
"960 317 CURVE SMOOTH",
"960 232 OFFCURVE",
"923 164 OFFCURVE",
"849 115 CURVE SMOOTH",
"785 72 OFFCURVE",
"708 51 OFFCURVE",
"619 51 CURVE SMOOTH",
"514 51 OFFCURVE",
"430 76 OFFCURVE",
"368 127 CURVE SMOOTH",
"319 166 OFFCURVE",
"289 209 OFFCURVE",
"276 257 CURVE SMOOTH",
"257 333 LINE",
"249 341 OFFCURVE",
"239 345 OFFCURVE",
"227 345 CURVE SMOOTH",
"199 345 OFFCURVE",
"185 326 OFFCURVE",
"185 288 CURVE SMOOTH",
"185 56 LINE SMOOTH",
"185 19 OFFCURVE",
"199 0 OFFCURVE",
"227 0 CURVE SMOOTH",
"250 0 OFFCURVE",
"263 13 OFFCURVE",
"268 39 CURVE",
"269 104 LINE",
"356 13 OFFCURVE",
"473 -33 OFFCURVE",
"619 -33 CURVE SMOOTH"
);
}
);
userData = {
assembly = "NPUSHB[ ]	/* 41 values pushed */
1 64 64 64 65 0 39 6 44 43 13 12 27 6 0 58 6 33 15 7 10 46 7 41 23 8 4 54 8 37 41 3 37 3 10 1 4 1 1 12 70
SROUND[ ]	/* SuperRound */
MDAP[1]	/* MoveDirectAbsPt */
SHZ[1]	/* ShiftZoneByLastPoint */
RTG[ ]	/* RoundToGrid */
SVTCA[0]	/* SetFreedomAndProjectionVectorToAxis */
MIAP[1]	/* MoveIndirectAbsPt */
MIAP[1]	/* MoveIndirectAbsPt */
MIAP[1]	/* MoveIndirectAbsPt */
MIAP[1]	/* MoveIndirectAbsPt */
SRP0[ ]	/* SetRefPoint0 */
MIRP[11101]	/* MoveIndirectRelPt */
SRP0[ ]	/* SetRefPoint0 */
MIRP[11101]	/* MoveIndirectRelPt */
SRP0[ ]	/* SetRefPoint0 */
MIRP[11101]	/* MoveIndirectRelPt */
SRP0[ ]	/* SetRefPoint0 */
MIRP[11101]	/* MoveIndirectRelPt */
SVTCA[1]	/* SetFreedomAndProjectionVectorToAxis */
MDAP[1]	/* MoveDirectAbsPt */
MIRP[11101]	/* MoveIndirectRelPt */
MDAP[1]	/* MoveDirectAbsPt */
MIRP[11101]	/* MoveIndirectRelPt */
MDAP[0]	/* MoveDirectAbsPt */
MDAP[0]	/* MoveDirectAbsPt */
MDAP[0]	/* MoveDirectAbsPt */
MDAP[0]	/* MoveDirectAbsPt */
SVTCA[0]	/* SetFreedomAndProjectionVectorToAxis */
MDAP[0]	/* MoveDirectAbsPt */
MDAP[0]	/* MoveDirectAbsPt */
IUP[1]	/* InterpolateUntPts */
IUP[0]	/* InterpolateUntPts */
SVTCA[1]	/* SetFreedomAndProjectionVectorToAxis */
MD[0]	/* MeasureDistance */
ROUND[00]	/* Round */
PUSHW[ ]	/* 2 values pushed */
12 64
MD[0]	/* MeasureDistance */
ROUND[00]	/* Round */
SUB[ ]	/* Subtract */
PUSHB[ ]	/* 1 value pushed */
64
GT[ ]	/* GreaterThan */
IF[ ]	/* If */
SHPIX[ ]	/* ShiftZoneByPixel */
SRP1[ ]	/* SetRefPoint1 */
SHZ[1]	/* ShiftZoneByLastPoint */
PUSHW[ ]	/* 2 values pushed */
64 -64
SHPIX[ ]	/* ShiftZoneByPixel */
EIF[ ]	/* EndIf */";
};
width = 1229;
}
);
note = S;
unicode = 0053;
},
{
glyphname = T;
lastChange = "2025-02-10 17:38:38 +0000";
layers = (
{
background = {
paths = (
{
closed = 1;
nodes = (
"150 1169 LINE",
"150 1014 LINE SMOOTH",
"150 958 OFFCURVE",
"192 958 QCURVE SMOOTH",
"236 958 OFFCURVE",
"235 1014 QCURVE SMOOTH",
"234 1085 LINE",
"578 1085 LINE",
"579 83 LINE",
"508 83 LINE SMOOTH",
"452 83 OFFCURVE",
"452 40 QCURVE SMOOTH",
"452 -2 OFFCURVE",
"508 -2 QCURVE SMOOTH",
"734 -2 LINE SMOOTH",
"790 -2 OFFCURVE",
"790 40 QCURVE SMOOTH",
"790 83 OFFCURVE",
"734 83 QCURVE SMOOTH",
"663 83 LINE",
"663 1085 LINE",
"1007 1085 LINE",
"1006 1014 LINE SMOOTH",
"1005 958 OFFCURVE",
"1049 958 QCURVE SMOOTH",
"1091 958 OFFCURVE",
"1091 1014 QCURVE SMOOTH",
"1091 1169 LINE"
);
}
);
};
layerId = m01;
paths = (
{
closed = 1;
nodes = (
"734 -2 LINE SMOOTH",
"771 -2 OFFCURVE",
"790 12 OFFCURVE",
"790 40 CURVE SMOOTH",
"790 69 OFFCURVE",
"771 83 OFFCURVE",
"734 83 CURVE SMOOTH",
"663 83 LINE",
"663 1085 LINE",
"1007 1085 LINE",
"1006 1014 LINE SMOOTH",
"1005 977 OFFCURVE",
"1020 958 OFFCURVE",
"1049 958 CURVE SMOOTH",
"1077 958 OFFCURVE",
"1091 977 OFFCURVE",
"1091 1014 CURVE SMOOTH",
"1091 1169 LINE",
"150 1169 LINE",
"150 1014 LINE SMOOTH",
"150 977 OFFCURVE",
"164 958 OFFCURVE",
"192 958 CURVE SMOOTH",
"221 958 OFFCURVE",
"236 977 OFFCURVE",
"235 1014 CURVE SMOOTH",
"234 1085 LINE",
"578 1085 LINE",
"579 83 LINE",
"508 83 LINE SMOOTH",
"471 83 OFFCURVE",
"452 69 OFFCURVE",
"452 40 CURVE SMOOTH",
"452 12 OFFCURVE",
"471 -2 OFFCURVE",
"508 -2 CURVE SMOOTH"
);
}
);
userData = {
assembly = "NPUSHB[ ]	/* 54 values pushed */
1 28 28 64 29 0 10 24 6 15 24 18 5 4 6 27 0 19 18 6 7 6 20 21 6 26 25 23 2 7 26 20 19 6 3 5 8 26 18 17 8 3 7 8 12 27 26 3 13 12 1 1 25 70
SROUND[ ]	/* SuperRound */
MDAP[1]	/* MoveDirectAbsPt */
SHZ[1]	/* ShiftZoneByLastPoint */
RTG[ ]	/* RoundToGrid */
SVTCA[0]	/* SetFreedomAndProjectionVectorToAxis */
MIAP[1]	/* MoveIndirectAbsPt */
ALIGNRP[ ]	/* AlignRelativePt */
MIAP[1]	/* MoveIndirectAbsPt */
ALIGNRP[ ]	/* AlignRelativePt */
SRP0[ ]	/* SetRefPoint0 */
MIRP[11101]	/* MoveIndirectRelPt */
SLOOP[ ]	/* SetLoopVariable */
ALIGNRP[ ]	/* AlignRelativePt */
SRP0[ ]	/* SetRefPoint0 */
MIRP[11101]	/* MoveIndirectRelPt */
SLOOP[ ]	/* SetLoopVariable */
ALIGNRP[ ]	/* AlignRelativePt */
SRP0[ ]	/* SetRefPoint0 */
MIRP[11101]	/* MoveIndirectRelPt */
ALIGNRP[ ]	/* AlignRelativePt */
SVTCA[1]	/* SetFreedomAndProjectionVectorToAxis */
MDAP[1]	/* MoveDirectAbsPt */
ALIGNRP[ ]	/* AlignRelativePt */
MIRP[11101]	/* MoveIndirectRelPt */
ALIGNRP[ ]	/* AlignRelativePt */
MDAP[1]	/* MoveDirectAbsPt */
ALIGNRP[ ]	/* AlignRelativePt */
MIRP[11101]	/* MoveIndirectRelPt */
ALIGNRP[ ]	/* AlignRelativePt */
MDAP[1]	/* MoveDirectAbsPt */
ALIGNRP[ ]	/* AlignRelativePt */
MIRP[11101]	/* MoveIndirectRelPt */
ALIGNRP[ ]	/* AlignRelativePt */
SRP0[ ]	/* SetRefPoint0 */
MIRP[11101]	/* MoveIndirectRelPt */
SRP0[ ]	/* SetRefPoint0 */
MIRP[11101]	/* MoveIndirectRelPt */
SVTCA[0]	/* SetFreedomAndProjectionVectorToAxis */
IUP[1]	/* InterpolateUntPts */
IUP[0]	/* InterpolateUntPts */
SVTCA[1]	/* SetFreedomAndProjectionVectorToAxis */
MD[0]	/* MeasureDistance */
ROUND[00]	/* Round */
PUSHW[ ]	/* 2 values pushed */
25 28
MD[0]	/* MeasureDistance */
ROUND[00]	/* Round */
SUB[ ]	/* Subtract */
PUSHB[ ]	/* 1 value pushed */
64
GT[ ]	/* GreaterThan */
IF[ ]	/* If */
SHPIX[ ]	/* ShiftZoneByPixel */
SRP1[ ]	/* SetRefPoint1 */
SHZ[1]	/* ShiftZoneByLastPoint */
PUSHW[ ]	/* 2 values pushed */
28 -64
SHPIX[ ]	/* ShiftZoneByPixel */
EIF[ ]	/* EndIf */";
};
width = 1241;
}
);
note = T;
unicode = 0054;
},
{
glyphname = U;
lastChange = "2025-02-10 17:38:38 +0000";
layers = (
{
background = {
paths = (
{
closed = 1;
nodes = (
"1159 1172 QCURVE SMOOTH",
"933 1172 LINE SMOOTH",
"877 1172 OFFCURVE",
"877 1130 QCURVE SMOOTH",
"877 1087 OFFCURVE",
"933 1087 QCURVE SMOOTH",
"1004 1087 LINE",
"1004 385 LINE SMOOTH",
"1004 250 OFFCURVE",
"816 52 OFFCURVE",
"681 52 QCURVE SMOOTH",
"546 52 OFFCURVE",
"453 152 QCURVE SMOOTH",
"361 249 OFFCURVE",
"361 385 QCURVE SMOOTH",
"361 1087 LINE",
"432 1087 LINE SMOOTH",
"488 1087 OFFCURVE",
"488 1130 QCURVE SMOOTH",
"488 1172 OFFCURVE",
"432 1172 QCURVE SMOOTH",
"206 1172 LINE SMOOTH",
"150 1172 OFFCURVE",
"150 1130 QCURVE SMOOTH",
"150 1087 OFFCURVE",
"206 1087 QCURVE SMOOTH",
"277 1087 LINE",
"277 385 LINE SMOOTH",
"277 211 OFFCURVE",
"512 -32 OFFCURVE",
"685 -32 QCURVE SMOOTH",
"857 -32 OFFCURVE",
"974 91 QCURVE SMOOTH",
"1088 211 OFFCURVE",
"1088 385 QCURVE SMOOTH",
"1088 1087 LINE",
"1159 1087 LINE SMOOTH",
"1215 1087 OFFCURVE",
"1215 1130 QCURVE SMOOTH",
"1215 1172 OFFCURVE"
);
}
);
};
layerId = m01;
paths = (
{
closed = 1;
nodes = (
"800 -32 OFFCURVE",
"896 9 OFFCURVE",
"974 91 CURVE SMOOTH",
"1050 171 OFFCURVE",
"1088 269 OFFCURVE",
"1088 385 CURVE SMOOTH",
"1088 1087 LINE",
"1159 1087 LINE SMOOTH",
"1196 1087 OFFCURVE",
"1215 1101 OFFCURVE",
"1215 1130 CURVE SMOOTH",
"1215 1158 OFFCURVE",
"1196 1172 OFFCURVE",
"1159 1172 CURVE SMOOTH",
"933 1172 LINE SMOOTH",
"896 1172 OFFCURVE",
"877 1158 OFFCURVE",
"877 1130 CURVE SMOOTH",
"877 1101 OFFCURVE",
"896 1087 OFFCURVE",
"933 1087 CURVE SMOOTH",
"1004 1087 LINE",
"1004 385 LINE SMOOTH",
"1004 205 OFFCURVE",
"861 52 OFFCURVE",
"681 52 CURVE SMOOTH",
"591 52 OFFCURVE",
"515 85 OFFCURVE",
"453 152 CURVE SMOOTH",
"392 217 OFFCURVE",
"361 294 OFFCURVE",
"361 385 CURVE SMOOTH",
"361 1087 LINE",
"432 1087 LINE SMOOTH",
"469 1087 OFFCURVE",
"488 1101 OFFCURVE",
"488 1130 CURVE SMOOTH",
"488 1158 OFFCURVE",
"469 1172 OFFCURVE",
"432 1172 CURVE SMOOTH",
"206 1172 LINE SMOOTH",
"169 1172 OFFCURVE",
"150 1158 OFFCURVE",
"150 1130 CURVE SMOOTH",
"150 1101 OFFCURVE",
"169 1087 OFFCURVE",
"206 1087 CURVE SMOOTH",
"277 1087 LINE",
"277 385 LINE SMOOTH",
"277 153 OFFCURVE",
"454 -32 OFFCURVE",
"685 -32 CURVE SMOOTH"
);
}
);
userData = {
assembly = "NPUSHB[ ]	/* 53 values pushed */
1 40 40 64 41 0 0 24 3 35 24 31 20 24 23 15 24 11 24 23 6 12 11 32 31 6 4 3 33 32 23 22 13 12 3 7 2 8 17 28 8 8 38 37 18 3 17 3 8 1 1 15 70
SROUND[ ]	/* SuperRound */
MDAP[1]	/* MoveDirectAbsPt */
SHZ[1]	/* ShiftZoneByLastPoint */
RTG[ ]	/* RoundToGrid */
SVTCA[0]	/* SetFreedomAndProjectionVectorToAxis */
MIAP[1]	/* MoveIndirectAbsPt */
MIAP[1]	/* MoveIndirectAbsPt */
SLOOP[ ]	/* SetLoopVariable */
ALIGNRP[ ]	/* AlignRelativePt */
SRP0[ ]	/* SetRefPoint0 */
MIRP[11101]	/* MoveIndirectRelPt */
SRP0[ ]	/* SetRefPoint0 */
MIRP[11101]	/* MoveIndirectRelPt */
SLOOP[ ]	/* SetLoopVariable */
ALIGNRP[ ]	/* AlignRelativePt */
SVTCA[1]	/* SetFreedomAndProjectionVectorToAxis */
MDAP[1]	/* MoveDirectAbsPt */
ALIGNRP[ ]	/* AlignRelativePt */
MIRP[11101]	/* MoveIndirectRelPt */
ALIGNRP[ ]	/* AlignRelativePt */
MDAP[1]	/* MoveDirectAbsPt */
ALIGNRP[ ]	/* AlignRelativePt */
MIRP[11101]	/* MoveIndirectRelPt */
ALIGNRP[ ]	/* AlignRelativePt */
SRP0[ ]	/* SetRefPoint0 */
MIRP[11101]	/* MoveIndirectRelPt */
SRP0[ ]	/* SetRefPoint0 */
MIRP[11101]	/* MoveIndirectRelPt */
SRP0[ ]	/* SetRefPoint0 */
MIRP[11101]	/* MoveIndirectRelPt */
SRP0[ ]	/* SetRefPoint0 */
MIRP[11101]	/* MoveIndirectRelPt */
SVTCA[0]	/* SetFreedomAndProjectionVectorToAxis */
IUP[1]	/* InterpolateUntPts */
IUP[0]	/* InterpolateUntPts */
SVTCA[1]	/* SetFreedomAndProjectionVectorToAxis */
MD[0]	/* MeasureDistance */
ROUND[00]	/* Round */
PUSHW[ ]	/* 2 values pushed */
15 40
MD[0]	/* MeasureDistance */
ROUND[00]	/* Round */
SUB[ ]	/* Subtract */
PUSHB[ ]	/* 1 value pushed */
64
GT[ ]	/* GreaterThan */
IF[ ]	/* If */
SHPIX[ ]	/* ShiftZoneByPixel */
SRP1[ ]	/* SetRefPoint1 */
SHZ[1]	/* ShiftZoneByLastPoint */
PUSHW[ ]	/* 2 values pushed */
40 -64
SHPIX[ ]	/* ShiftZoneByPixel */
EIF[ ]	/* EndIf */";
};
width = 1360;
}
);
note = U;
unicode = 0055;
},
{
glyphname = V;
lastChange = "2025-02-10 17:38:38 +0000";
layers = (
{
background = {
paths = (
{
closed = 1;
nodes = (
"1302 1171 QCURVE SMOOTH",
"1076 1171 LINE SMOOTH",
"1020 1171 OFFCURVE",
"1020 1129 QCURVE SMOOTH",
"1020 1086 OFFCURVE",
"1076 1086 QCURVE SMOOTH",
"1147 1086 LINE",
"758 84 LINE",
"752 84 LINE",
"362 1086 LINE",
"433 1086 LINE SMOOTH",
"489 1086 OFFCURVE",
"489 1129 QCURVE SMOOTH",
"489 1171 OFFCURVE",
"433 1171 QCURVE SMOOTH",
"207 1171 LINE SMOOTH",
"151 1171 OFFCURVE",
"151 1129 QCURVE SMOOTH",
"151 1086 OFFCURVE",
"207 1086 QCURVE SMOOTH",
"275 1086 LINE",
"698 0 LINE",
"815 0 LINE",
"1231 1086 LINE",
"1302 1086 LINE SMOOTH",
"1358 1086 OFFCURVE",
"1358 1129 QCURVE SMOOTH",
"1358 1171 OFFCURVE"
);
}
);
};
layerId = m01;
paths = (
{
closed = 1;
nodes = (
"815 0 LINE",
"1231 1086 LINE",
"1302 1086 LINE SMOOTH",
"1339 1086 OFFCURVE",
"1358 1100 OFFCURVE",
"1358 1129 CURVE SMOOTH",
"1358 1157 OFFCURVE",
"1339 1171 OFFCURVE",
"1302 1171 CURVE SMOOTH",
"1076 1171 LINE SMOOTH",
"1039 1171 OFFCURVE",
"1020 1157 OFFCURVE",
"1020 1129 CURVE SMOOTH",
"1020 1100 OFFCURVE",
"1039 1086 OFFCURVE",
"1076 1086 CURVE SMOOTH",
"1147 1086 LINE",
"758 84 LINE",
"752 84 LINE",
"362 1086 LINE",
"433 1086 LINE SMOOTH",
"470 1086 OFFCURVE",
"489 1100 OFFCURVE",
"489 1129 CURVE SMOOTH",
"489 1157 OFFCURVE",
"470 1171 OFFCURVE",
"433 1171 CURVE SMOOTH",
"207 1171 LINE SMOOTH",
"170 1171 OFFCURVE",
"151 1157 OFFCURVE",
"151 1129 CURVE SMOOTH",
"151 1100 OFFCURVE",
"170 1086 OFFCURVE",
"207 1086 CURVE SMOOTH",
"275 1086 LINE",
"698 0 LINE"
);
}
);
userData = {
assembly = "NPUSHB[ ]	/* 55 values pushed */
1 28 28 64 29 0 19 18 20 17 19 20 9 4 4 5 3 3 4 17 18 9 6 5 5 6 14 5 9 23 5 0 21 20 17 16 7 6 3 7 2 8 11 26 25 12 3 11 3 5 4 1 1 9 70
SROUND[ ]	/* SuperRound */
MDAP[1]	/* MoveDirectAbsPt */
SHZ[1]	/* ShiftZoneByLastPoint */
RTG[ ]	/* RoundToGrid */
SVTCA[0]	/* SetFreedomAndProjectionVectorToAxis */
MIAP[1]	/* MoveIndirectAbsPt */
ALIGNRP[ ]	/* AlignRelativePt */
MIAP[1]	/* MoveIndirectAbsPt */
SLOOP[ ]	/* SetLoopVariable */
ALIGNRP[ ]	/* AlignRelativePt */
SRP0[ ]	/* SetRefPoint0 */
MIRP[11101]	/* MoveIndirectRelPt */
SLOOP[ ]	/* SetLoopVariable */
ALIGNRP[ ]	/* AlignRelativePt */
SVTCA[1]	/* SetFreedomAndProjectionVectorToAxis */
MDAP[1]	/* MoveDirectAbsPt */
MIRP[11101]	/* MoveIndirectRelPt */
MDAP[1]	/* MoveDirectAbsPt */
MIRP[11101]	/* MoveIndirectRelPt */
SDPVTL[1]	/* SetDualPVectorToLine */
MDAP[0]	/* MoveDirectAbsPt */
SFVTPV[ ]	/* SetFVectorToPVector */
MDRP[00100]	/* MoveDirectRelPt */
SFVTPV[ ]	/* SetFVectorToPVector */
MIRP[11100]	/* MoveIndirectRelPt */
SFVTPV[ ]	/* SetFVectorToPVector */
MDRP[00100]	/* MoveDirectRelPt */
SDPVTL[1]	/* SetDualPVectorToLine */
MDAP[0]	/* MoveDirectAbsPt */
SFVTL[0]	/* SetFVectorToLine */
MDRP[00100]	/* MoveDirectRelPt */
SFVTPV[ ]	/* SetFVectorToPVector */
MIRP[11100]	/* MoveIndirectRelPt */
SFVTPV[ ]	/* SetFVectorToPVector */
MDRP[00100]	/* MoveDirectRelPt */
SVTCA[1]	/* SetFreedomAndProjectionVectorToAxis */
MDAP[0]	/* MoveDirectAbsPt */
MDAP[0]	/* MoveDirectAbsPt */
SVTCA[0]	/* SetFreedomAndProjectionVectorToAxis */
MDAP[0]	/* MoveDirectAbsPt */
MDAP[0]	/* MoveDirectAbsPt */
IUP[1]	/* InterpolateUntPts */
IUP[0]	/* InterpolateUntPts */
SVTCA[1]	/* SetFreedomAndProjectionVectorToAxis */
MD[0]	/* MeasureDistance */
ROUND[00]	/* Round */
PUSHW[ ]	/* 2 values pushed */
9 28
MD[0]	/* MeasureDistance */
ROUND[00]	/* Round */
SUB[ ]	/* Subtract */
PUSHB[ ]	/* 1 value pushed */
64
GT[ ]	/* GreaterThan */
IF[ ]	/* If */
SHPIX[ ]	/* ShiftZoneByPixel */
SRP1[ ]	/* SetRefPoint1 */
SHZ[1]	/* ShiftZoneByLastPoint */
PUSHW[ ]	/* 2 values pushed */
28 -64
SHPIX[ ]	/* ShiftZoneByPixel */
EIF[ ]	/* EndIf */";
};
width = 1506;
}
);
note = V;
unicode = 0056;
},
